<svg xmlns="http://www.w3.org/2000/svg" id="emoji" viewBox="0 0 72 72"><g id="color"><rect width="62" height="38" x="5" y="17" fill="#fff"/><polygon fill="#d22f27" points="67 20 67 17 63 17 5 52 5 55 9 55"/><polygon fill="#d22f27" points="5 20 5 17 9 17 67 52 67 55 63 55"/><path fill="#d22f27" stroke="#d22f27" stroke-linecap="round" stroke-linejoin="round" stroke-width="1.522" d="m38.74 22.34s0.2958 0.5821 0.2996 2.759c0.0038 2.177-0.9878 4.162-3.017 5.113-2.03-0.9514-3.071-2.972-3.071-5.113 0-2.141 0.3002-2.759 0.3002-2.759z"/><path fill="#fcea2b" fill-rule="evenodd" stroke="#fcea2b" stroke-linecap="round" stroke-linejoin="round" stroke-miterlimit="10" stroke-width=".986" d="m32.66 19.96h6.683l-0.5663 1.193h-5.604z" paint-order="normal"/><rect width="5.478" height=".868" x="33.26" y="22.72" fill="#fcea2b" fill-rule="evenodd" stroke="#fcea2b" stroke-linecap="round" stroke-linejoin="round" stroke-miterlimit="10" stroke-width=".632" paint-order="stroke fill markers" ry=".017"/><rect width="5.478" height=".868" x="33.26" y="25.08" fill="#fcea2b" fill-rule="evenodd" stroke="#fcea2b" stroke-linecap="round" stroke-linejoin="round" stroke-miterlimit="10" stroke-width=".632" paint-order="stroke fill markers" ry=".017"/><rect width="4.526" height=".717" x="33.74" y="27.39" fill="#fcea2b" fill-rule="evenodd" stroke="#fcea2b" stroke-linecap="round" stroke-linejoin="round" stroke-miterlimit="10" stroke-width=".522" paint-order="stroke fill markers" ry=".014"/></g><g id="line"><rect width="62" height="38" x="5" y="17" fill="none" stroke="#000" stroke-linecap="round" stroke-linejoin="round" stroke-width="2"/></g></svg>