<svg xmlns="http://www.w3.org/2000/svg" id="emoji" viewBox="0 0 72 72"><g id="color"><rect width="62" height="38" x="5" y="17" fill="#186648"/><rect width="14.928" height="38" x="8.171" y="17" fill="#d22f27"/><polygon fill="#781e32" points="18.624 17 12.658 17 8.171 21.216 15.641 28.234 23.11 21.216 18.624 17"/><polygon fill="#f1b31c" points="17.114 19.628 14.167 19.628 12.693 21.216 14.167 22.804 17.114 22.804 18.588 21.216 17.114 19.628"/><polygon fill="#781e32" points="15.641 38.16 8.171 31.142 15.641 24.123 23.11 31.142 15.641 38.16"/><polygon fill="#f1b31c" points="17.114 29.554 14.167 29.554 12.693 31.142 14.167 32.73 17.114 32.73 18.588 31.142 17.114 29.554"/><polygon fill="#781e32" points="15.641 48.086 8.171 41.067 15.641 34.049 23.11 41.067 15.641 48.086"/><polygon fill="#f1b31c" points="17.114 39.479 14.167 39.479 12.693 41.067 14.167 42.655 17.114 42.655 18.588 41.067 17.114 39.479"/><polygon fill="#781e32" points="18.846 55 23.11 50.993 15.641 43.975 8.171 50.993 12.435 55 18.846 55"/><polygon fill="#f1b31c" points="17.114 49.405 14.167 49.405 12.693 50.993 14.167 52.581 17.114 52.581 18.588 50.993 17.114 49.405"/><g><path fill="#fff" stroke="#fff" stroke-linecap="round" stroke-linejoin="round" stroke-width=".995" d="M37.4927,21.8329a7.7649,7.7649,0,0,1-6.8143,13.66,7.77,7.77,0,1,0,6.8143-13.66Z"/><circle cx="32.763" cy="23.055" r=".739" fill="#fff"/><circle cx="32.763" cy="26.009" r=".739" fill="#fff"/><circle cx="29.809" cy="26.009" r=".739" fill="#fff"/><circle cx="35.717" cy="26.009" r=".739" fill="#fff"/><circle cx="32.763" cy="28.963" r=".739" fill="#fff"/></g></g><g id="line"><rect width="62" height="38" x="5" y="17" fill="none" stroke="#000" stroke-linecap="round" stroke-linejoin="round" stroke-width="2"/></g></svg>