<svg xmlns="http://www.w3.org/2000/svg" id="emoji" viewBox="0 0 72 72"><g id="color"><rect width="38" height="38" x="17" y="17" fill="#fff"/><rect width="19" height="38" x="17" y="17" fill="#fcea2b"/><g><ellipse cx="44.727" cy="29.86" fill="#9b9b9a" rx="1.946" ry="2.703"/><g><line x1="43.612" x2="45.842" y1="28.745" y2="28.745" fill="none" stroke="#fcea2b" stroke-linecap="round" stroke-linejoin="round" stroke-width=".91"/><line x1="43.612" x2="45.842" y1="29.86" y2="29.86" fill="none" stroke="#fcea2b" stroke-linecap="round" stroke-linejoin="round" stroke-width=".91"/><line x1="43.612" x2="45.842" y1="30.975" y2="30.975" fill="none" stroke="#fcea2b" stroke-linecap="round" stroke-linejoin="round" stroke-width=".91"/></g></g><path fill="none" stroke="#d22f27" stroke-linecap="round" stroke-linejoin="round" stroke-width="1.147" d="M40.2017,42.2844c2.54,2.54,6.8992,2.29,9.747-.5575"/><g><path fill="#9b9b9a" d="M47.9343,36.1387a3.2621,3.2621,0,1,0,3.9646,2.3588A3.2622,3.2622,0,0,0,47.9343,36.1387Zm1.3,5.1189a2.0193,2.0193,0,1,1,1.46-2.4542A2.0193,2.0193,0,0,1,49.2342,41.2576Z"/><rect width="1.469" height="8.811" x="42.845" y="30.369" fill="#9b9b9a" rx=".416" ry=".416" transform="translate(-11.2822 44.7052) rotate(-48.8483)"/><rect width="1.469" height="1.81" x="39.704" y="32.336" fill="#9b9b9a" rx=".369" ry=".369" transform="translate(31.8635 -18.3991) rotate(41.1517)"/><rect width="1.469" height="1.81" x="41.268" y="33.703" fill="#9b9b9a" rx=".369" ry=".369" transform="translate(33.1492 -19.0905) rotate(41.1517)"/></g><g><path fill="#fcea2b" d="M37.5178,38.8188a3.262,3.262,0,1,0,3.8347-2.5645A3.262,3.262,0,0,0,37.5178,38.8188Zm1.2189.2419a2.0193,2.0193,0,1,1,1.5875,2.3739A2.0192,2.0192,0,0,1,38.7367,39.0607Z"/><rect width="1.469" height="8.811" x="44.895" y="30.257" fill="#fcea2b" rx=".416" ry=".416" transform="translate(52.5644 91.5427) rotate(-134.1739)"/><rect width="1.469" height="1.81" x="47.951" y="32.06" fill="#fcea2b" rx=".369" ry=".369" transform="translate(106.5753 22.6824) rotate(135.8261)"/><rect width="1.469" height="1.81" x="46.462" y="33.507" fill="#fcea2b" rx=".369" ry=".369" transform="translate(105.0258 26.2056) rotate(135.8261)"/></g></g><g id="line"><rect width="38" height="38" x="17" y="17" fill="none" stroke="#000" stroke-linecap="round" stroke-linejoin="round" stroke-width="2"/></g></svg>