<svg xmlns="http://www.w3.org/2000/svg" id="emoji" viewBox="0 0 72 72"><g id="color"><rect width="62" height="38" x="5" y="17" fill="#d22f27"/><rect width="62" height="19" x="5" y="36" fill="#1e50a0"/><polygon fill="#fff" points="26 36 5 55 5 17 26 36"/><circle cx="13" cy="31" r="2.5" fill="#fcea2b" stroke="#fcea2b" stroke-linecap="round" stroke-linejoin="round"/><path fill="#92d3f5" stroke="#d22f27" stroke-linecap="round" stroke-linejoin="round" d="M18,31.7758v4.6121C18,39.847,13.0417,41,13.0417,41S8.0833,39.847,8.0833,36.3879V31.7758A16.6778,16.6778,0,0,1,18,31.7758Z"/><path fill="none" stroke="#fcea2b" stroke-linecap="round" stroke-linejoin="round" d="M19,39c0,1.933-2.6863,3.5-6,3.5S7,40.933,7,39"/><rect width="4" height="3" x="11" y="34" fill="#fff" stroke="#fff" stroke-linecap="round" stroke-linejoin="round" stroke-width="2"/></g><g id="line"><rect width="62" height="38" x="5" y="17" fill="none" stroke="#000" stroke-linecap="round" stroke-linejoin="round" stroke-width="2"/></g></svg>