<svg xmlns="http://www.w3.org/2000/svg" id="emoji" viewBox="0 0 72 72"><g id="color"><rect width="48.984" height="48.984" x="11.472" y="11.042" fill="#d0cfce" rx="1.699"/></g><g id="line"><g><line x1="21.321" x2="51.296" y1="25.123" y2="25.123" fill="none" stroke="#000" stroke-linecap="round" stroke-miterlimit="5" stroke-width="2"/><path fill="none" stroke="#000" stroke-linecap="round" stroke-miterlimit="5" stroke-width="2" d="M34.4333,19.9967a46.0471,46.0471,0,0,1-5.197,10.8748,25.378,25.378,0,0,1-8.5626,8.4156"/><path fill="none" stroke="#000" stroke-linecap="round" stroke-miterlimit="5" stroke-width="2" d="M40.3044,51.304h5.89a.6.6,0,0,0,.661-.5073V32.0284a.6.6,0,0,0-.661-.5073H30.6074"/><line x1="29.85" x2="46.855" y1="37.9" y2="37.9" fill="none" stroke="#000" stroke-linecap="round" stroke-miterlimit="5" stroke-width="2"/><line x1="29.225" x2="29.225" y1="32.083" y2="51.088" fill="none" stroke="#000" stroke-linecap="round" stroke-miterlimit="5" stroke-width="2"/><line x1="29.225" x2="46.855" y1="43.228" y2="43.228" fill="none" stroke="#000" stroke-miterlimit="5" stroke-width="2"/><rect width="48.984" height="48.984" x="11.472" y="11.042" fill="none" stroke="#000" stroke-miterlimit="10" stroke-width="2" rx="1.699"/></g></g></svg>