<svg xmlns="http://www.w3.org/2000/svg" id="emoji" viewBox="0 0 72 72"><g id="color"><rect width="48.984" height="48.984" x="11.234" y="11.922" fill="#d0cfce" rx="1.699"/></g><g id="line"><g><line x1="22.98" x2="35.972" y1="31.429" y2="31.429" fill="none" stroke="#000" stroke-linecap="round" stroke-miterlimit="10" stroke-width="2"/><line x1="22.98" x2="37.087" y1="25.418" y2="25.418" fill="none" stroke="#000" stroke-linecap="round" stroke-miterlimit="10" stroke-width="2"/><line x1="22.223" x2="36.33" y1="25.418" y2="25.418" fill="none" stroke="#000" stroke-linecap="round" stroke-miterlimit="10" stroke-width="2"/><line x1="23.396" x2="35.536" y1="35.547" y2="35.547" fill="none" stroke="#000" stroke-linecap="round" stroke-miterlimit="10" stroke-width="2"/><line x1="24.11" x2="35.025" y1="50.707" y2="50.707" fill="none" stroke="#000" stroke-linecap="round" stroke-miterlimit="10" stroke-width="2"/><line x1="21.728" x2="37.193" y1="40.115" y2="40.115" fill="none" stroke="#000" stroke-linecap="round" stroke-miterlimit="10" stroke-width="2"/><line x1="29.476" x2="29.476" y1="28.885" y2="40.115" fill="none" stroke="#000" stroke-linecap="round" stroke-miterlimit="10" stroke-width="2"/><line x1="42.222" x2="42.222" y1="25.621" y2="43.004" fill="none" stroke="#000" stroke-linecap="round" stroke-miterlimit="10" stroke-width="2"/><line x1="29.476" x2="29.476" y1="21.951" y2="25.156" fill="none" stroke="#000" stroke-linecap="round" stroke-miterlimit="10" stroke-width="2"/><line x1="37.087" x2="37.087" y1="25.418" y2="28.885" fill="none" stroke="#000" stroke-linecap="round" stroke-miterlimit="10" stroke-width="2"/><line x1="22.223" x2="22.223" y1="25.418" y2="28.885" fill="none" stroke="#000" stroke-linecap="round" stroke-miterlimit="10" stroke-width="2"/><polyline fill="none" stroke="#000" stroke-linecap="round" stroke-linejoin="round" stroke-width="2" points="24.11 52.46 24.11 44.388 35.168 44.388 35.168 52.46"/><polyline fill="none" stroke="#000" stroke-linecap="round" stroke-linejoin="round" stroke-width="2" points="49.416 21.951 49.416 51.87 43.774 51.87"/><rect width="48.984" height="48.984" x="11.234" y="11.922" fill="none" stroke="#000" stroke-miterlimit="10" stroke-width="2" rx="1.699"/></g></g></svg>