<svg xmlns="http://www.w3.org/2000/svg" id="emoji" viewBox="0 0 72 72"><g id="color"><rect width="64" height="64" x="4" y="3.985" fill="#8967aa"/><polyline fill="#9b9b9a" points="9.923 45.944 9.923 28.944 19.923 28.944 19.923 45.944"/><rect width="13" height="35.041" x="33.923" y="32.944" fill="#9b9b9a"/><polyline fill="#d0cfce" points="50.923 67.985 50.923 36.944 66.923 36.944 66.923 67.985"/><polyline fill="#d0cfce" points="4.923 67.985 4.923 45.944 38.923 45.944 38.923 67.985"/><rect width="2.991" height="5.997" x="8.923" y="48.948" fill="#fcea2b"/><rect width="2.991" height="5.997" x="14.923" y="48.948" fill="#fcea2b"/><rect width="2.991" height="5.997" x="26.923" y="48.948" fill="#fcea2b"/><rect width="2.991" height="5.997" x="32.923" y="48.948" fill="#fcea2b"/><rect width="2.991" height="5.997" x="54.923" y="39.948" fill="#fcea2b"/><rect width="2.991" height="5.997" x="60.923" y="49.948" fill="#fcea2b"/><rect width="2.991" height="5.997" x="60.923" y="59.948" fill="#fcea2b"/><rect width="2.991" height="5.997" x="54.923" y="59.948" fill="#fcea2b"/><rect width="2.991" height="5.997" x="32.923" y="58.948" fill="#fcea2b"/><rect width="2.991" height="5.997" x="20.923" y="58.948" fill="#fcea2b"/><rect width="2.991" height="5.997" x="8.923" y="58.948" fill="#fcea2b"/><circle cx="22" cy="20.842" r="2" fill="#fcea2b"/><circle cx="34" cy="25.842" r="2" fill="#fcea2b"/><circle cx="33" cy="14.842" r="2" fill="#fcea2b"/><circle cx="14" cy="10.842" r="2" fill="#fcea2b"/><path fill="#fcea2b" d="M56,25.8424c-.4838.5267-9.016-2.3975-9-9,.0107-4.4,3.813-8.5541,9-9a22.1374,22.1374,0,0,0-2.0783,2.0869A10.4512,10.4512,0,0,0,51,16.8424c.0634,2.8883,1.7575,5.2225,3.1609,6.7968C55.262,24.8744,56.1843,25.6419,56,25.8424Z"/></g><g id="line"><polyline fill="none" stroke="#000" stroke-linecap="round" stroke-linejoin="round" stroke-width="2" points="50.923 66.944 50.923 36.944 66.923 36.944 66.923 66.944"/><polyline fill="none" stroke="#000" stroke-linecap="round" stroke-linejoin="round" stroke-width="2" points="4.923 66.944 4.923 45.944 38.923 45.944 38.923 66.944"/><polyline fill="none" stroke="#000" stroke-linecap="round" stroke-linejoin="round" stroke-width="2" points="34.923 42.944 34.923 32.944 46.923 32.944 46.923 66.944"/><polyline fill="none" stroke="#000" stroke-linecap="round" stroke-linejoin="round" stroke-width="2" points="10.923 42.944 10.923 28.944 18.923 28.944 18.923 42.944"/><polyline fill="none" stroke="#000" stroke-linecap="round" stroke-linejoin="round" stroke-width="2" points="56.923 45.944 54.923 45.944 54.923 40.944"/><polyline fill="none" stroke="#000" stroke-linecap="round" stroke-linejoin="round" stroke-width="2" points="62.923 55.944 60.923 55.944 60.923 50.944"/><polyline fill="none" stroke="#000" stroke-linecap="round" stroke-linejoin="round" stroke-width="2" points="28.923 54.944 26.923 54.944 26.923 49.944"/><polyline fill="none" stroke="#000" stroke-linecap="round" stroke-linejoin="round" stroke-width="2" points="34.923 54.944 32.923 54.944 32.923 49.944"/><polyline fill="none" stroke="#000" stroke-linecap="round" stroke-linejoin="round" stroke-width="2" points="34.923 64.944 32.923 64.944 32.923 59.944"/><polyline fill="none" stroke="#000" stroke-linecap="round" stroke-linejoin="round" stroke-width="2" points="16.923 54.944 14.923 54.944 14.923 49.944"/><polyline fill="none" stroke="#000" stroke-linecap="round" stroke-linejoin="round" stroke-width="2" points="10.923 54.944 8.923 54.944 8.923 49.944"/><polyline fill="none" stroke="#000" stroke-linecap="round" stroke-linejoin="round" stroke-width="2" points="10.923 64.944 8.923 64.944 8.923 59.944"/><polyline fill="none" stroke="#000" stroke-linecap="round" stroke-linejoin="round" stroke-width="2" points="22.923 64.944 20.923 64.944 20.923 59.944"/><polyline fill="none" stroke="#000" stroke-linecap="round" stroke-linejoin="round" stroke-width="2" points="56.923 65.944 54.923 65.944 54.923 60.944"/><polyline fill="none" stroke="#000" stroke-linecap="round" stroke-linejoin="round" stroke-width="2" points="62.923 65.944 60.923 65.944 60.923 60.944"/><line x1="14.923" x2="14.923" y1="31.944" y2="42.944" fill="none" stroke="#000" stroke-linecap="round" stroke-linejoin="round" stroke-width="2"/><line x1="38.923" x2="38.923" y1="35.944" y2="42.944" fill="none" stroke="#000" stroke-linecap="round" stroke-linejoin="round" stroke-width="2"/><line x1="42.923" x2="42.923" y1="35.944" y2="66.944" fill="none" stroke="#000" stroke-linecap="round" stroke-linejoin="round" stroke-width="2"/><path fill="none" stroke="#000" stroke-linecap="round" stroke-linejoin="round" stroke-width="2" d="M14,12.8424a2,2,0,0,1,0-4"/><path fill="none" stroke="#000" stroke-linecap="round" stroke-linejoin="round" stroke-width="2" d="M22,22.8424a2,2,0,0,1,0-4"/><path fill="none" stroke="#000" stroke-linecap="round" stroke-linejoin="round" stroke-width="2" d="M33,16.8424a2,2,0,1,1,0-4"/><path fill="none" stroke="#000" stroke-linecap="round" stroke-linejoin="round" stroke-width="2" d="M34,27.8424a2,2,0,0,1,0-4"/><path fill="none" stroke="#000" stroke-linecap="round" stroke-linejoin="round" stroke-width="2" d="M56,25.8424c-.4838.5267-9.016-2.3975-9-9,.0107-4.4,3.813-8.5541,9-9a22.1374,22.1374,0,0,0-2.0783,2.0869A10.4512,10.4512,0,0,0,51,16.8424c.0634,2.8883,1.7575,5.2225,3.1609,6.7968C55.262,24.8744,56.1843,25.6419,56,25.8424Z"/></g></svg>