<svg xmlns="http://www.w3.org/2000/svg" id="emoji" viewBox="0 0 72 72"><g id="color"><rect width="64" height="64.102" x="4" y="3.898" fill="#e27022"/><polyline fill="#9b9b9a" points="9.923 46 9.923 29 19.923 29 19.923 46"/><rect width="13" height="35" x="33.923" y="33" fill="#9b9b9a"/><polyline fill="#d0cfce" points="50.923 68 50.923 37 66.923 37 66.923 68"/><polyline fill="#d0cfce" points="4.923 68 4.923 46 38.923 46 38.923 68"/><rect width="2.991" height="5.997" x="8.923" y="49.004" fill="#fcea2b"/><rect width="2.991" height="5.997" x="14.923" y="49.004" fill="#fcea2b"/><rect width="2.991" height="5.997" x="26.923" y="49.004" fill="#fcea2b"/><rect width="2.991" height="5.997" x="32.923" y="49.004" fill="#fcea2b"/><rect width="2.991" height="5.997" x="54.923" y="40.004" fill="#fcea2b"/><rect width="2.991" height="5.997" x="60.923" y="50.004" fill="#fcea2b"/><rect width="2.991" height="5.997" x="60.923" y="60.004" fill="#fcea2b"/><rect width="2.991" height="5.997" x="54.923" y="60.004" fill="#fcea2b"/><rect width="2.991" height="5.997" x="32.923" y="59.004" fill="#fcea2b"/><rect width="2.991" height="5.997" x="20.923" y="59.004" fill="#fcea2b"/><rect width="2.991" height="5.997" x="8.923" y="59.004" fill="#fcea2b"/></g><g id="line"><polyline fill="none" stroke="#000" stroke-linecap="round" stroke-linejoin="round" stroke-width="2" points="50.924 66.629 50.924 36.629 66.924 36.629 66.924 66.629"/><polyline fill="none" stroke="#000" stroke-linecap="round" stroke-linejoin="round" stroke-width="2" points="4.924 66.629 4.924 45.629 38.924 45.629 38.924 66.629"/><polyline fill="none" stroke="#000" stroke-linecap="round" stroke-linejoin="round" stroke-width="2" points="34.924 42.629 34.924 32.629 46.924 32.629 46.924 66.629"/><polyline fill="none" stroke="#000" stroke-linecap="round" stroke-linejoin="round" stroke-width="2" points="10.924 42.629 10.924 28.629 18.924 28.629 18.924 42.629"/><polyline fill="none" stroke="#000" stroke-linecap="round" stroke-linejoin="round" stroke-width="2" points="56.924 45.629 54.924 45.629 54.924 40.629"/><polyline fill="none" stroke="#000" stroke-linecap="round" stroke-linejoin="round" stroke-width="2" points="62.924 55.629 60.924 55.629 60.924 50.629"/><polyline fill="none" stroke="#000" stroke-linecap="round" stroke-linejoin="round" stroke-width="2" points="28.924 54.629 26.924 54.629 26.924 49.629"/><polyline fill="none" stroke="#000" stroke-linecap="round" stroke-linejoin="round" stroke-width="2" points="34.924 54.629 32.924 54.629 32.924 49.629"/><polyline fill="none" stroke="#000" stroke-linecap="round" stroke-linejoin="round" stroke-width="2" points="34.924 64.629 32.924 64.629 32.924 59.629"/><polyline fill="none" stroke="#000" stroke-linecap="round" stroke-linejoin="round" stroke-width="2" points="16.924 54.629 14.924 54.629 14.924 49.629"/><polyline fill="none" stroke="#000" stroke-linecap="round" stroke-linejoin="round" stroke-width="2" points="10.924 54.629 8.924 54.629 8.924 49.629"/><polyline fill="none" stroke="#000" stroke-linecap="round" stroke-linejoin="round" stroke-width="2" points="10.924 64.629 8.924 64.629 8.924 59.629"/><polyline fill="none" stroke="#000" stroke-linecap="round" stroke-linejoin="round" stroke-width="2" points="22.924 64.629 20.924 64.629 20.924 59.629"/><polyline fill="none" stroke="#000" stroke-linecap="round" stroke-linejoin="round" stroke-width="2" points="56.924 65.629 54.924 65.629 54.924 60.629"/><polyline fill="none" stroke="#000" stroke-linecap="round" stroke-linejoin="round" stroke-width="2" points="62.924 65.629 60.924 65.629 60.924 60.629"/><line x1="14.924" x2="14.924" y1="31.629" y2="42.629" fill="none" stroke="#000" stroke-linecap="round" stroke-linejoin="round" stroke-width="2"/><line x1="38.924" x2="38.924" y1="35.629" y2="42.629" fill="none" stroke="#000" stroke-linecap="round" stroke-linejoin="round" stroke-width="2"/><line x1="42.924" x2="42.924" y1="35.629" y2="66.629" fill="none" stroke="#000" stroke-linecap="round" stroke-linejoin="round" stroke-width="2"/></g></svg>