<svg xmlns="http://www.w3.org/2000/svg" id="emoji" viewBox="0 0 72 72"><g id="color"><path fill="#d0cfce" stroke="none" d="M19.2787,22.4402c-0.031,0.3535-0.3174,0.6396-0.6721,0.6775C14.307,23.5783,11,27.8119,11,32.9652 c0,5.4608,3.7871,9.8877,8.4588,9.8877h32.248c5.1325,0,9.2932-4.6783,9.2932-10.4492c0-5.5305-3.8212-10.0575-8.6569-10.4251 c-0.37-0.0281-0.67-0.2871-0.7406-0.6494c-1.0803-5.5472-6.0636-9.7159-11.9553-9.7159c-3.829,0-7.2399,1.7335-9.4549,4.4912 c-0.2164,0.2695-0.5797,0.3929-0.8992,0.2589c-0.8523-0.3575-1.7525-0.5304-2.7597-0.5304 C22.7272,15.833,19.6031,18.7376,19.2787,22.4402z"/></g><g id="line"><path fill="none" stroke="#000" stroke-linecap="round" stroke-linejoin="round" stroke-miterlimit="10" stroke-width="2" d="M19.2787,22.4402c-0.031,0.3535-0.3174,0.6396-0.6721,0.6775C14.307,23.5783,11,27.8119,11,32.9652 c0,5.4608,3.7871,9.8877,8.4588,9.8877h32.248c5.1325,0,9.2932-4.6783,9.2932-10.4492c0-5.5305-3.8212-10.0575-8.6569-10.4251 c-0.37-0.0281-0.67-0.2871-0.7406-0.6494c-1.0803-5.5472-6.0636-9.7159-11.9553-9.7159c-3.829,0-7.2399,1.7335-9.4549,4.4912 c-0.2164,0.2695-0.5797,0.3929-0.8992,0.2589c-0.8523-0.3575-1.7525-0.5304-2.7597-0.5304 C22.7272,15.833,19.6031,18.7376,19.2787,22.4402z"/><line x1="28.768" x2="28.768" y1="52.519" y2="60.387" fill="none" stroke="#000" stroke-linecap="round" stroke-linejoin="round" stroke-miterlimit="10" stroke-width="1.8"/><line x1="25.408" x2="32.127" y1="58.42" y2="54.485" fill="none" stroke="#000" stroke-linecap="round" stroke-linejoin="round" stroke-miterlimit="10" stroke-width="1.8"/><line x1="32.127" x2="25.408" y1="58.42" y2="54.485" fill="none" stroke="#000" stroke-linecap="round" stroke-linejoin="round" stroke-miterlimit="10" stroke-width="1.8"/><line x1="56.291" x2="56.291" y1="46.04" y2="53.262" fill="none" stroke="#000" stroke-linecap="round" stroke-linejoin="round" stroke-miterlimit="10" stroke-width="1.8"/><line x1="53.208" x2="59.374" y1="51.457" y2="47.845" fill="none" stroke="#000" stroke-linecap="round" stroke-linejoin="round" stroke-miterlimit="10" stroke-width="1.8"/><line x1="59.374" x2="53.208" y1="51.457" y2="47.845" fill="none" stroke="#000" stroke-linecap="round" stroke-linejoin="round" stroke-miterlimit="10" stroke-width="1.8"/><line x1="16.958" x2="16.958" y1="47.04" y2="54.262" fill="none" stroke="#000" stroke-linecap="round" stroke-linejoin="round" stroke-miterlimit="10" stroke-width="1.8"/><line x1="13.874" x2="20.041" y1="52.457" y2="48.845" fill="none" stroke="#000" stroke-linecap="round" stroke-linejoin="round" stroke-miterlimit="10" stroke-width="1.8"/><line x1="20.041" x2="13.874" y1="52.457" y2="48.845" fill="none" stroke="#000" stroke-linecap="round" stroke-linejoin="round" stroke-miterlimit="10" stroke-width="1.8"/><line x1="42.709" x2="42.709" y1="48.076" y2="60.083" fill="none" stroke="#000" stroke-linecap="round" stroke-linejoin="round" stroke-miterlimit="10" stroke-width="1.8"/><line x1="37.583" x2="47.836" y1="57.082" y2="51.077" fill="none" stroke="#000" stroke-linecap="round" stroke-linejoin="round" stroke-miterlimit="10" stroke-width="1.8"/><line x1="47.836" x2="37.583" y1="57.082" y2="51.077" fill="none" stroke="#000" stroke-linecap="round" stroke-linejoin="round" stroke-miterlimit="10" stroke-width="1.8"/></g></svg>