<svg xmlns="http://www.w3.org/2000/svg" id="emoji" viewBox="0 0 72 72"><g id="color"><ellipse cx="35.81" cy="10.162" fill="#f4aa41" rx="3.481" ry="5.162"/><ellipse cx="31.287" cy="19.207" fill="#f1b31c" rx="3.481" ry="5.162" transform="translate(-4.4175 27.7488) rotate(-45)"/><ellipse cx="31.287" cy="27.347" fill="#f1b31c" rx="3.481" ry="5.162" transform="translate(-10.1737 30.1331) rotate(-45)"/><ellipse cx="31.287" cy="35.488" fill="#f1b31c" rx="3.481" ry="5.162" transform="translate(-15.93 32.5174) rotate(-45)"/><ellipse cx="31.287" cy="43.629" fill="#f1b31c" rx="3.481" ry="5.162" transform="translate(-21.6863 34.9018) rotate(-45)"/><ellipse cx="31.287" cy="51.769" fill="#f1b31c" rx="3.481" ry="5.162" transform="translate(-27.4426 37.2861) rotate(-45)"/><ellipse cx="40.713" cy="19.207" fill="#f1b31c" rx="5.162" ry="3.481" transform="translate(-1.6567 34.414) rotate(-45)"/><ellipse cx="40.713" cy="27.347" fill="#f1b31c" rx="5.162" ry="3.481" transform="translate(-7.4129 36.7983) rotate(-45)"/><ellipse cx="40.713" cy="35.488" fill="#f1b31c" rx="5.162" ry="3.481" transform="translate(-13.1692 39.1826) rotate(-45)"/><ellipse cx="40.713" cy="43.629" fill="#f1b31c" rx="5.162" ry="3.481" transform="translate(-18.9255 41.5669) rotate(-45)"/><ellipse cx="40.713" cy="51.769" fill="#f1b31c" rx="5.162" ry="3.481" transform="translate(-24.6818 43.9513) rotate(-45)"/><path fill="none" stroke="#000" stroke-miterlimit="10" stroke-width="2" d="M35.79,56v9"/><ellipse cx="35.81" cy="10.162" fill="#f4aa41" rx="3.481" ry="5.162"/><ellipse cx="31.287" cy="19.207" fill="#f1b31c" rx="3.481" ry="5.162" transform="translate(-4.4175 27.7488) rotate(-45)"/><ellipse cx="31.287" cy="27.347" fill="#f1b31c" rx="3.481" ry="5.162" transform="translate(-10.1737 30.1331) rotate(-45)"/><ellipse cx="31.287" cy="35.488" fill="#f1b31c" rx="3.481" ry="5.162" transform="translate(-15.93 32.5174) rotate(-45)"/><ellipse cx="31.287" cy="43.629" fill="#f1b31c" rx="3.481" ry="5.162" transform="translate(-21.6863 34.9018) rotate(-45)"/><ellipse cx="31.287" cy="51.769" fill="#f1b31c" rx="3.481" ry="5.162" transform="translate(-27.4426 37.2861) rotate(-45)"/><ellipse cx="40.713" cy="19.207" fill="#f1b31c" rx="5.162" ry="3.481" transform="translate(-1.6567 34.414) rotate(-45)"/><ellipse cx="40.713" cy="27.347" fill="#f1b31c" rx="5.162" ry="3.481" transform="translate(-7.4129 36.7983) rotate(-45)"/><ellipse cx="40.713" cy="35.488" fill="#f1b31c" rx="5.162" ry="3.481" transform="translate(-13.1692 39.1826) rotate(-45)"/><ellipse cx="40.713" cy="43.629" fill="#f1b31c" rx="5.162" ry="3.481" transform="translate(-18.9255 41.5669) rotate(-45)"/><ellipse cx="40.713" cy="51.769" fill="#f1b31c" rx="5.162" ry="3.481" transform="translate(-24.6818 43.9513) rotate(-45)"/><ellipse cx="35.81" cy="10.162" fill="#f1b31c" rx="3.481" ry="5.162"/><ellipse cx="31.287" cy="19.207" fill="#f1b31c" rx="3.481" ry="5.162" transform="translate(-4.4175 27.7488) rotate(-45)"/><ellipse cx="31.287" cy="27.347" fill="#f1b31c" rx="3.481" ry="5.162" transform="translate(-10.1737 30.1331) rotate(-45)"/><ellipse cx="31.287" cy="35.488" fill="#f1b31c" rx="3.481" ry="5.162" transform="translate(-15.93 32.5174) rotate(-45)"/><ellipse cx="31.287" cy="43.629" fill="#f1b31c" rx="3.481" ry="5.162" transform="translate(-21.6863 34.9018) rotate(-45)"/><ellipse cx="31.287" cy="51.769" fill="#f1b31c" rx="3.481" ry="5.162" transform="translate(-27.4426 37.2861) rotate(-45)"/><ellipse cx="40.713" cy="19.207" fill="#f1b31c" rx="5.162" ry="3.481" transform="translate(-1.6567 34.414) rotate(-45)"/><ellipse cx="40.713" cy="27.347" fill="#f1b31c" rx="5.162" ry="3.481" transform="translate(-7.4129 36.7983) rotate(-45)"/><ellipse cx="40.713" cy="35.488" fill="#f1b31c" rx="5.162" ry="3.481" transform="translate(-13.1692 39.1826) rotate(-45)"/><ellipse cx="40.713" cy="43.629" fill="#f1b31c" rx="5.162" ry="3.481" transform="translate(-18.9255 41.5669) rotate(-45)"/><ellipse cx="40.713" cy="51.769" fill="#f4aa41" rx="5.162" ry="3.481" transform="translate(-24.6818 43.9513) rotate(-45)"/></g><g id="line"><ellipse cx="35.81" cy="10.162" fill="none" stroke="#000" stroke-miterlimit="10" stroke-width="2" rx="3.481" ry="5.162"/><ellipse cx="31.287" cy="19.207" fill="none" stroke="#000" stroke-miterlimit="10" stroke-width="2" rx="3.481" ry="5.162" transform="translate(-4.4175 27.7488) rotate(-45)"/><ellipse cx="31.287" cy="27.347" fill="none" stroke="#000" stroke-miterlimit="10" stroke-width="2" rx="3.481" ry="5.162" transform="translate(-10.1737 30.1331) rotate(-45)"/><ellipse cx="31.287" cy="35.488" fill="none" stroke="#000" stroke-miterlimit="10" stroke-width="2" rx="3.481" ry="5.162" transform="translate(-15.93 32.5174) rotate(-45)"/><ellipse cx="31.287" cy="43.629" fill="none" stroke="#000" stroke-miterlimit="10" stroke-width="2" rx="3.481" ry="5.162" transform="translate(-21.6863 34.9018) rotate(-45)"/><ellipse cx="31.287" cy="51.769" fill="none" stroke="#000" stroke-miterlimit="10" stroke-width="2" rx="3.481" ry="5.162" transform="translate(-27.4426 37.2861) rotate(-45)"/><ellipse cx="40.713" cy="19.207" fill="none" stroke="#000" stroke-miterlimit="10" stroke-width="2" rx="5.162" ry="3.481" transform="translate(-1.6567 34.414) rotate(-45)"/><ellipse cx="40.713" cy="27.347" fill="none" stroke="#000" stroke-miterlimit="10" stroke-width="2" rx="5.162" ry="3.481" transform="translate(-7.4129 36.7983) rotate(-45)"/><ellipse cx="40.713" cy="35.488" fill="none" stroke="#000" stroke-miterlimit="10" stroke-width="2" rx="5.162" ry="3.481" transform="translate(-13.1692 39.1826) rotate(-45)"/><ellipse cx="40.713" cy="43.629" fill="none" stroke="#000" stroke-miterlimit="10" stroke-width="2" rx="5.162" ry="3.481" transform="translate(-18.9255 41.5669) rotate(-45)"/><ellipse cx="40.713" cy="51.769" fill="none" stroke="#000" stroke-miterlimit="10" stroke-width="2" rx="5.162" ry="3.481" transform="translate(-24.6818 43.9513) rotate(-45)"/></g></svg>