<svg xmlns="http://www.w3.org/2000/svg" id="emoji" viewBox="0 0 72 72"><g id="color"><path fill="#B1CC33" stroke="none" stroke-linejoin="round" stroke-miterlimit="10" stroke-width="2" d="M55.2257,56.7807 c-10.9878,10.9766-28.7798,10.9766-39.7676,0c-10.9765-10.9878-10.9765-28.7797,0-39.7675l2.6542,2.6542 c-9.5258,9.5145-9.5258,24.9447,0,34.4592c9.5145,9.5258,24.9447,9.5258,34.4592,0L55.2257,56.7807z"/><path fill="#EA5A47" stroke="#EA5A47" stroke-linecap="round" stroke-linejoin="round" stroke-miterlimit="10" stroke-width="2" d="M52.5715,54.1265c-9.5145,9.5258-24.9447,9.5258-34.4592,0c-9.5258-9.5145-9.5258-24.9447,0-34.4592L52.5715,54.1265"/><path fill="#EA5A47" stroke="none" stroke-linecap="round" stroke-linejoin="round" stroke-miterlimit="10" stroke-width="2" d="M49.5241,56.7181c-9.5196,6.8373-22.857,5.9734-31.4119-2.5916c-8.6198-8.6097-9.4396-22.0632-2.4594-31.5942"/></g><g id="line"><path fill="none" stroke="#000" stroke-linejoin="round" stroke-miterlimit="10" stroke-width="2" d="M55.2257,56.7807 c-10.9878,10.9766-28.7798,10.9766-39.7676,0c-10.9765-10.9878-10.9765-28.7797,0-39.7675l2.6542,2.6542 c-9.5258,9.5145-9.5258,24.9447,0,34.4592c9.5145,9.5258,24.9447,9.5258,34.4592,0L55.2257,56.7807z"/><line x1="17.516" x2="53.722" y1="19.071" y2="55.277" fill="none" stroke="#000" stroke-linecap="round" stroke-linejoin="round" stroke-miterlimit="10" stroke-width="2"/><path fill="none" stroke="#000" stroke-linecap="round" stroke-linejoin="round" stroke-miterlimit="10" stroke-width="2" d="M49.5241,56.7181c-9.5196,6.8373-22.857,5.9734-31.4119-2.5916c-8.6198-8.6097-9.4396-22.0632-2.4594-31.5942"/><ellipse cx="31.83" cy="46.907" fill="#000" stroke="none" rx="1.687" ry=".844" transform="matrix(0.7071 -0.7071 0.7071 0.7071 -23.8456 36.2461)"/><ellipse cx="44.554" cy="53.269" fill="#000" stroke="none" rx="1.687" ry=".844" transform="matrix(0.7071 -0.7071 0.7071 0.7071 -24.6174 47.1066)"/><ellipse cx="31.83" cy="54.86" fill="#000" stroke="none" rx="1.687" ry=".844" transform="matrix(0.7071 -0.7071 0.7071 0.7071 -29.4688 38.5753)"/><ellipse cx="25.817" cy="40.894" fill="#000" stroke="none" rx="1.687" ry=".844" transform="matrix(0.7071 -0.7071 0.7071 0.7071 -21.3547 30.2327)"/><ellipse cx="19.455" cy="28.17" fill="#000" stroke="none" rx="1.687" ry=".844" transform="matrix(0.7071 -0.7071 0.7071 0.7071 -14.2209 22.0073)"/><ellipse cx="17.864" cy="40.894" fill="#000" stroke="none" rx="1.687" ry=".844" transform="matrix(0.7071 -0.7071 0.7071 0.7071 -23.684 24.6094)"/><ellipse cx="22.281" cy="50.086" fill="#000" stroke="none" rx="1.687" ry=".844" transform="matrix(0.7071 -0.7071 0.7071 0.7071 -28.8903 30.4251)"/></g></svg>