<svg xmlns="http://www.w3.org/2000/svg" id="emoji" viewBox="0 0 72 72"><g id="color"><polyline fill="#fcea2b" stroke="none" points="27 48.842 27 9.523 26 9.523 26 7 22 7 22 11.523 21 11.523 21 48"/><polyline fill="#fcea2b" stroke="none" points="43 46 43 9.523 42 9.523 42 5 38 5 38 8.577 37 8.523 37 47"/><polyline fill="#fcea2b" stroke="none" points="35 42 35 8.523 34 7.997 34 5 30 5 30 9.523 29 9.523 29 41"/><polyline fill="#fcea2b" stroke="none" points="51 40 51 11.523 50 11.523 50 7 46 7 46 9.523 45 9.523 45 40"/><polyline fill="#fcea2b" stroke="none" points="23 41.421 23 33.629 22 33.629 22 15.105 18 15.105 18 33.63 17 33.63 17 37.105"/><polyline fill="#fcea2b" stroke="none" points="47 44.525 47 34.524 46 34.524 46 13 42 13 42 34.579 41 34.524 41 46.525"/><polyline fill="#fcea2b" stroke="none" points="39 45.525 39 35.524 38 35.524 38 12 34 12 34 35.579 33 35.524 33 47.525"/><polyline fill="#fcea2b" stroke="none" points="31 46.525 31 34.524 30 33.999 30 13 26 13 26 34.524 25 34.524 25 44.524"/><polyline fill="#fcea2b" stroke="none" points="55 37 55 32.629 54 32.629 54 15.105 50 15.105 50 33.63 49 33.63 49 42.631"/><path fill="#ea5a47" stroke="none" d="M19,59.1973c10,7.7363,23,7.7363,34,0L55,37l-19,3l-19-3L19,59.1973z"/></g><g id="line"><polyline fill="none" stroke="#000" stroke-linecap="round" stroke-linejoin="round" stroke-miterlimit="10" stroke-width="2" points="42 10 42 5 38 5 38 9"/><polyline fill="none" stroke="#000" stroke-linecap="round" stroke-linejoin="round" stroke-miterlimit="10" stroke-width="2" points="34 9 34 5 30 5 30 10"/><polyline fill="none" stroke="#000" stroke-linecap="round" stroke-linejoin="round" stroke-miterlimit="10" stroke-width="2" points="50 12 50 7 46 7 46 10"/><polyline fill="none" stroke="#000" stroke-linecap="round" stroke-linejoin="round" stroke-miterlimit="10" stroke-width="2" points="26 10 26 7 22 7 22 12"/><path fill="none" stroke="#000" stroke-linecap="round" stroke-linejoin="round" stroke-miterlimit="10" stroke-width="2" d="M19,59.2637C29,67,42,67,53,59.2637L55,37l-19,3l-19-3L19,59.2637z"/><polyline fill="none" stroke="#000" stroke-linecap="round" stroke-linejoin="round" stroke-miterlimit="10" stroke-width="2" points="54 33.474 54 15.105 50 15.105 50 34.105"/><polyline fill="none" stroke="#000" stroke-linecap="round" stroke-linejoin="round" stroke-miterlimit="10" stroke-width="2" points="30 35.368 30 13 26 13 26 34.736"/><polyline fill="none" stroke="#000" stroke-linecap="round" stroke-linejoin="round" stroke-miterlimit="10" stroke-width="2" points="22 34.105 22 15.105 18 15.105 18 33.474"/><polyline fill="none" stroke="#000" stroke-linecap="round" stroke-linejoin="round" stroke-miterlimit="10" stroke-width="2" points="46 34.736 46 13 42 13 42 35.368"/><polyline fill="none" stroke="#000" stroke-linecap="round" stroke-linejoin="round" stroke-miterlimit="10" stroke-width="2" points="38 36 38 12 34 12 34 36"/></g></svg>