<svg xmlns="http://www.w3.org/2000/svg" id="emoji" viewBox="0 0 72 72"><g id="color"><path fill="#D0CFCE" stroke="none" stroke-miterlimit="10" stroke-width="2" d="M66.1204,26.2961 C66.1204,20.353,61,14.1351,61,16s0.9471,26.6324,0.9471,26.6324L61,58.8287c0,1.1046,0.8954,2,2,2s2-0.8954,2-2l-0.5289-16.2893 C64.4711,42.5394,66.1204,32.2392,66.1204,26.2961z"/><path fill="#D0CFCE" stroke="none" stroke-linecap="round" stroke-linejoin="round" stroke-miterlimit="10" stroke-width="2" d="M11.4211,16.7398c0,0,0.1115,4.158,0.1115,8.1058c0,2.9609-0.8993,4.8203-2.1809,5.565l0,0l0.0285,28.4181c0,1.1046-0.8954,2-2,2 s-2-0.8954-2-2L6.191,30.4165l0,0C4.904,29.6757,4,27.8142,4,24.8456c0-3.9478,0.1115-8.1058,0.1115-8.1058"/><line x1="7.766" x2="7.766" y1="16.74" y2="26.325" fill="#D0CFCE" stroke="none" stroke-linecap="round" stroke-linejoin="round" stroke-miterlimit="10" stroke-width="2"/><circle cx="36" cy="35.958" r="19.958" fill="#D0CFCE" stroke="none" stroke-linecap="round" stroke-linejoin="round" stroke-miterlimit="10" stroke-width="2"/><circle cx="36.004" cy="36" r="12.149" fill="#D0CFCE" stroke="none" stroke-linecap="round" stroke-linejoin="round" stroke-miterlimit="10" stroke-width="2"/></g><g id="line"><path fill="none" stroke="#000" stroke-miterlimit="10" stroke-width="2" d="M66.1204,26.2961 C66.1204,20.353,61,14.1351,61,16s0.9471,26.6324,0.9471,26.6324L61,58.8287c0,1.1046,0.8954,2,2,2s2-0.8954,2-2l-0.5289-16.2893 C64.4711,42.5394,66.1204,32.2392,66.1204,26.2961z"/><path fill="none" stroke="#000" stroke-linecap="round" stroke-linejoin="round" stroke-miterlimit="10" stroke-width="2" d="M11.4211,16.7398c0,0,0.1115,4.158,0.1115,8.1058c0,2.9609-0.8993,4.8203-2.1809,5.565l0,0l0.0285,28.4181c0,1.1046-0.8954,2-2,2 s-2-0.8954-2-2L6.191,30.4165l0,0C4.904,29.6757,4,27.8142,4,24.8456c0-3.9478,0.1115-8.1058,0.1115-8.1058"/><line x1="7.766" x2="7.766" y1="16.74" y2="26.325" fill="none" stroke="#000" stroke-linecap="round" stroke-linejoin="round" stroke-miterlimit="10" stroke-width="2"/><circle cx="36" cy="35.958" r="19.958" fill="none" stroke="#000" stroke-linecap="round" stroke-linejoin="round" stroke-miterlimit="10" stroke-width="2"/><circle cx="36.004" cy="36" r="12.149" fill="none" stroke="#000" stroke-linecap="round" stroke-linejoin="round" stroke-miterlimit="10" stroke-width="2"/></g></svg>