<svg xmlns="http://www.w3.org/2000/svg" id="emoji" version="1.1" viewBox="0 0 72 72"><g id="color"><polygon fill="#D22F27" points="33.976 42.691 34.006 49.15 34.036 55.609 28.117 51.802 22.197 47.995 28.087 45.343"/><circle cx="45" cy="27" r="23" fill="#EA5A47"/><path fill="#D22F27" d="M60.8265,10.549c-1.3409-1.3409-2.8082-2.477-4.3606-3.4175c5.3598,8.8471,4.2238,20.5254-3.4175,28.1667 s-19.3196,8.7774-28.1667,3.4175c0.9405,1.5525,2.0767,3.0197,3.4175,4.3606c8.9822,8.9822,23.5452,8.9822,32.5273,0 C69.8087,34.0942,69.8087,19.5312,60.8265,10.549z"/></g><g id="line"><polyline fill="none" stroke="#000" stroke-linecap="round" stroke-linejoin="round" stroke-miterlimit="10" stroke-width="2.122" points="34 47.21 34.01 49.15 34.04 55.61 28.12 51.8 22.2 48 28.09 45.34 30.04 44.46"/><circle cx="45" cy="27" r="23" fill="none" stroke="#000" stroke-miterlimit="10" stroke-width="2"/><path fill="none" stroke="#000" stroke-linecap="round" stroke-linejoin="round" stroke-miterlimit="10" stroke-width="2" d="M17.7253,65.09c0.5048,0.0395,1.0254-0.0002,1.547-0.1285c2.7035-0.6648,4.41-3.458,3.8116-6.2388"/><path fill="none" stroke="#000" stroke-linecap="round" stroke-linejoin="round" stroke-miterlimit="10" stroke-width="2" d="M23.1406,58.907c-0.1631-0.4794-0.2535-0.9936-0.2582-1.5307c-0.0246-2.7839,2.2596-5.1284,5.102-5.2364"/></g></svg>