<svg xmlns="http://www.w3.org/2000/svg" id="emoji" viewBox="0 0 72 72"><g id="color"><path fill="#D0CFCE" stroke="none" d="M42.3923,24.6798L60,24.9369l0.1694-7.6202L12,16.8286v8.1083l20.3445-0.2571 c0.5527,0,1.6146,0.5054,1.6146,1.0576l-0.2315,20.9094c0,0.5527-2.9051,0.3328-3.4578,0.3328L12,46.6875V55l48-0.258v-7.7624 H39.8702c-0.5528,0-1.6399-0.4474-1.6399-1.0001l0.4195-20.7302C38.6498,24.6971,41.8395,24.6798,42.3923,24.6798z"/><rect width="21.742" height="22.043" x="38.244" y="24.937" fill="#FFF" stroke="none"/><rect width="21.951" height="22.043" x="12.004" y="24.937" fill="#FFF" stroke="none"/></g><g id="line"><rect width="48" height="38" x="12" y="17" fill="none" stroke="#000" stroke-linecap="round" stroke-linejoin="round" stroke-miterlimit="10" stroke-width="2"/><polyline fill="none" stroke="#000" stroke-linecap="round" stroke-linejoin="round" stroke-miterlimit="10" stroke-width="2" points="12 24.937 33.959 24.937 33.959 46.98 12 46.98"/><polyline fill="none" stroke="#000" stroke-linecap="round" stroke-linejoin="round" stroke-miterlimit="10" stroke-width="2" points="60 46.98 38.23 46.98 38.23 24.937 60 24.937"/><circle cx="18.095" cy="20.908" r="1.079" fill="#000" stroke="none"/><circle cx="24.095" cy="20.908" r="1.079" fill="#000" stroke="none"/><circle cx="30.095" cy="20.908" r="1.079" fill="#000" stroke="none"/><circle cx="36.095" cy="20.908" r="1.079" fill="#000" stroke="none"/><circle cx="42.095" cy="20.908" r="1.079" fill="#000" stroke="none"/><circle cx="48.095" cy="20.908" r="1.079" fill="#000" stroke="none"/><circle cx="54.095" cy="20.908" r="1.079" fill="#000" stroke="none"/><circle cx="18.078" cy="51.026" r="1.079" fill="#000" stroke="none"/><circle cx="24.078" cy="51.026" r="1.079" fill="#000" stroke="none"/><circle cx="30.078" cy="51.026" r="1.079" fill="#000" stroke="none"/><circle cx="36.078" cy="51.026" r="1.079" fill="#000" stroke="none"/><circle cx="42.078" cy="51.026" r="1.079" fill="#000" stroke="none"/><circle cx="48.078" cy="51.026" r="1.079" fill="#000" stroke="none"/><circle cx="54.078" cy="51.026" r="1.079" fill="#000" stroke="none"/></g></svg>