<svg xmlns="http://www.w3.org/2000/svg" id="emoji" version="1.1" viewBox="0 0 72 72"><g id="color"><path fill="#D22F27" d="M57.6,35.9c0-4.9,3.9-9.1,9.4-10.6v-5.2H5v5.5c4.9,1.7,8.4,5.7,8.4,10.3S9.9,44.6,5,46.3v5.5h62v-5.2 C61.6,45.1,57.6,40.9,57.6,35.9z"/></g><g id="line"><path fill="none" stroke="#000" stroke-linejoin="round" stroke-miterlimit="10" stroke-width="2.216" d="M57.1,35.6 c0-4.9,3.9-9.1,9.4-10.6v-5.2h-62v5.5c4.9,1.7,8.4,5.7,8.4,10.3s-3.5,8.6-8.4,10.3v5.5h62v-5.2C61.1,44.7,57.1,40.5,57.1,35.6z"/><rect width="34" height="20" x="18.5" y="25" fill="none" stroke="#000" stroke-linejoin="round" stroke-miterlimit="10" stroke-width="2.095"/></g><g id="color-foreground"><rect width="34" height="20" x="18.5" y="25" fill="none" stroke="#FFF" stroke-linejoin="round" stroke-miterlimit="10" stroke-width="2.1"/></g></svg>