<svg xmlns="http://www.w3.org/2000/svg" id="emoji" viewBox="0 0 72 72"><g id="color"><path fill="#d0cfce" stroke="none" d="M51.8848,5.9497H19.9502c-1.1025,0-2,0.897-2,2v56.1421c0,1.1025,0.8975,2,2,2h31.9346 c1.1025,0,2-0.8975,2-2V7.9497C53.8848,6.8467,52.9873,5.9497,51.8848,5.9497z"/><path fill="#3f3f3f" stroke="none" d="M29.1015,23.4683v9.678h13.797v-9.678H29.1015z"/><path fill="#9b9b9a" stroke="none" d="M39.0727,13.9583c0-1.103-2.237-3-3.3395-3c0,0-2.6872,0.5693-2.6872,1.6723 c0,0-0.2951,10.8166-0.2951,10.8167l6.6252,0.021C39.3761,23.4682,39.0727,13.9583,39.0727,13.9583z"/><path fill="#9b9b9a" stroke="none" d="M32.7332,33.4116v24.5467c0,1.1025,1.0477,3,3,3s3.3395-1.8975,3.3395-3V33.4116H32.7332z"/></g><g id="line"><path fill="none" stroke="#000" stroke-linecap="round" stroke-linejoin="round" stroke-miterlimit="10" stroke-width="2" d="M32.7332,23.0969v-9.1386c0-1.6568,1.3433-3,3-3h0.3395c1.6567,0,3,1.3432,3,3v9.1386"/><path fill="none" stroke="#000" stroke-linecap="round" stroke-linejoin="round" stroke-miterlimit="10" stroke-width="2" d="M39.0727,33.4116v24.5467c0,1.6569-1.3433,3-3,3h-0.3395c-1.6567,0-3-1.3431-3-3V33.4116"/><rect width="13.797" height="9.699" x="29.102" y="23.447" fill="none" stroke="#000" stroke-linecap="round" stroke-linejoin="round" stroke-miterlimit="10" stroke-width="2"/><line x1="33.021" x2="38.91" y1="28.333" y2="28.333" fill="none" stroke="#000" stroke-linecap="round" stroke-linejoin="round" stroke-miterlimit="10" stroke-width="2"/><path fill="none" stroke="#000" stroke-linecap="round" stroke-linejoin="round" stroke-miterlimit="10" stroke-width="2" d="M51.8846,67.092H19.9504c-1.6568,0-3-1.3432-3-3V7.9496c0-1.6568,1.3432-3,3-3h31.9342c1.6569,0,3,1.3432,3,3V64.092 C54.8846,65.7488,53.5415,67.092,51.8846,67.092z"/><line x1="47.911" x2="50.559" y1="18.26" y2="18.26" fill="none" stroke="#000" stroke-linecap="round" stroke-linejoin="round" stroke-miterlimit="10" stroke-width="2"/><line x1="47.911" x2="50.559" y1="12.631" y2="12.631" fill="none" stroke="#000" stroke-linecap="round" stroke-linejoin="round" stroke-miterlimit="10" stroke-width="2"/><line x1="47.922" x2="50.559" y1="23.468" y2="23.468" fill="none" stroke="#000" stroke-linecap="round" stroke-linejoin="round" stroke-miterlimit="10" stroke-width="2"/><line x1="47.911" x2="50.559" y1="28.203" y2="28.203" fill="none" stroke="#000" stroke-linecap="round" stroke-linejoin="round" stroke-miterlimit="10" stroke-width="2"/><line x1="47.922" x2="50.559" y1="33.412" y2="33.412" fill="none" stroke="#000" stroke-linecap="round" stroke-linejoin="round" stroke-miterlimit="10" stroke-width="2"/><line x1="47.911" x2="50.559" y1="39.041" y2="39.041" fill="none" stroke="#000" stroke-linecap="round" stroke-linejoin="round" stroke-miterlimit="10" stroke-width="2"/><line x1="47.912" x2="50.559" y1="44.249" y2="44.249" fill="none" stroke="#000" stroke-linecap="round" stroke-linejoin="round" stroke-miterlimit="10" stroke-width="2"/><line x1="47.901" x2="50.559" y1="48.984" y2="48.984" fill="none" stroke="#000" stroke-linecap="round" stroke-linejoin="round" stroke-miterlimit="10" stroke-width="2"/><line x1="47.892" x2="50.559" y1="54.193" y2="54.193" fill="none" stroke="#000" stroke-linecap="round" stroke-linejoin="round" stroke-miterlimit="10" stroke-width="2"/><line x1="47.907" x2="50.559" y1="58.909" y2="58.909" fill="none" stroke="#000" stroke-linecap="round" stroke-linejoin="round" stroke-miterlimit="10" stroke-width="2"/><line x1="21.282" x2="23.93" y1="18.26" y2="18.26" fill="none" stroke="#000" stroke-linecap="round" stroke-linejoin="round" stroke-miterlimit="10" stroke-width="2"/><line x1="21.282" x2="23.93" y1="12.631" y2="12.631" fill="none" stroke="#000" stroke-linecap="round" stroke-linejoin="round" stroke-miterlimit="10" stroke-width="2"/><line x1="21.293" x2="23.93" y1="23.468" y2="23.468" fill="none" stroke="#000" stroke-linecap="round" stroke-linejoin="round" stroke-miterlimit="10" stroke-width="2"/><line x1="21.282" x2="23.93" y1="28.203" y2="28.203" fill="none" stroke="#000" stroke-linecap="round" stroke-linejoin="round" stroke-miterlimit="10" stroke-width="2"/><line x1="21.293" x2="23.93" y1="33.412" y2="33.412" fill="none" stroke="#000" stroke-linecap="round" stroke-linejoin="round" stroke-miterlimit="10" stroke-width="2"/><line x1="21.282" x2="23.93" y1="39.041" y2="39.041" fill="none" stroke="#000" stroke-linecap="round" stroke-linejoin="round" stroke-miterlimit="10" stroke-width="2"/><line x1="21.283" x2="23.93" y1="44.249" y2="44.249" fill="none" stroke="#000" stroke-linecap="round" stroke-linejoin="round" stroke-miterlimit="10" stroke-width="2"/><line x1="21.272" x2="23.93" y1="48.984" y2="48.984" fill="none" stroke="#000" stroke-linecap="round" stroke-linejoin="round" stroke-miterlimit="10" stroke-width="2"/><line x1="21.263" x2="23.93" y1="54.193" y2="54.193" fill="none" stroke="#000" stroke-linecap="round" stroke-linejoin="round" stroke-miterlimit="10" stroke-width="2"/><line x1="21.277" x2="23.93" y1="58.909" y2="58.909" fill="none" stroke="#000" stroke-linecap="round" stroke-linejoin="round" stroke-miterlimit="10" stroke-width="2"/></g></svg>