<svg xmlns="http://www.w3.org/2000/svg" id="emoji" viewBox="0 0 72 72"><g id="color"><polygon fill="#61b2e4" points="33.636 37.325 17.31 66.846 30.098 66.846 33.636 37.325"/><polygon fill="#61b2e4" points="36.386 37.606 52.647 66.846 39.859 66.846 36.386 37.606"/><polyline fill="#92d3f5" points="46.53 55.464 38.967 41.393 37.759 42.092 45.968 66.846 52.647 66.846 47.205 56.719"/><polygon fill="#92d3f5" points="31.703 42.584 24.001 66.24 30.183 66.24 33.487 42.816 31.703 42.584"/><line x1="38.327" x2="50.599" y1="29.961" y2="17.689" fill="none" stroke="#9b9b9a" stroke-linecap="round" stroke-linejoin="round" stroke-width="2"/><line x1="19.267" x2="32.36" y1="49.049" y2="35.956" fill="none" stroke="#9b9b9a" stroke-linecap="round" stroke-linejoin="round" stroke-width="2"/><line x1="56.918" x2="38.901" y1="32.927" y2="32.927" fill="none" stroke="#9b9b9a" stroke-linecap="round" stroke-linejoin="round" stroke-width="2"/><line x1="50.612" x2="37.63" y1="48.676" y2="35.694" fill="none" stroke="#9b9b9a" stroke-linecap="round" stroke-linejoin="round" stroke-width="2"/><line x1="31.149" x2="12.589" y1="32.946" y2="32.946" fill="none" stroke="#9b9b9a" stroke-linecap="round" stroke-linejoin="round" stroke-width="2"/><line x1="32.207" x2="19.253" y1="30.299" y2="17.345" fill="none" stroke="#9b9b9a" stroke-linecap="round" stroke-linejoin="round" stroke-width="2"/><line x1="35.532" x2="35.532" y1="29.051" y2="10.492" fill="none" stroke="#9b9b9a" stroke-linecap="round" stroke-linejoin="round" stroke-width="2"/><circle cx="34.734" cy="33.066" r="24.855" fill="none" stroke="#9b9b9a" stroke-miterlimit="10"/><circle cx="11.682" cy="20.785" r="4.588" fill="#f4aa41"/><circle cx="42.121" cy="9.418" r="4.588" fill="#f4aa41"/><circle cx="60.916" cy="32.206" r="4.64" fill="#f4aa41"/><circle cx="47.91" cy="55.464" r="4.64" fill="#f4aa41"/><circle cx="13.141" cy="47.132" r="4.588" fill="#f4aa41"/></g><g id="line"><line x1="31.703" x2="33.176" y1="55.464" y2="37.325" fill="none" stroke="#000" stroke-linecap="round" stroke-linejoin="round" stroke-width="2"/><polyline fill="none" stroke="#000" stroke-linecap="round" stroke-linejoin="round" stroke-width="2" points="30.692 62.634 30.098 66.846 17.31 66.846 22.578 57.044"/><line x1="33.176" x2="24.497" y1="37.325" y2="53.473" fill="none" stroke="#000" stroke-linecap="round" stroke-linejoin="round" stroke-width="2"/><line x1="38.254" x2="36.092" y1="55.464" y2="37.093" fill="none" stroke="#000" stroke-linecap="round" stroke-linejoin="round" stroke-width="2"/><polyline fill="none" stroke="#000" stroke-linecap="round" stroke-linejoin="round" stroke-width="2" points="39.289 62.804 39.859 66.846 52.647 66.846 48.929 60"/><line x1="36.092" x2="44.276" y1="37.093" y2="51.387" fill="none" stroke="#000" stroke-linecap="round" stroke-linejoin="round" stroke-width="2"/><path fill="none" stroke="#000" stroke-linecap="round" stroke-linejoin="round" stroke-width="2" d="M60.6462,36.8379a26.1323,26.1323,0,0,1-8.4087,15.7"/><path fill="none" stroke="#000" stroke-linecap="round" stroke-linejoin="round" stroke-width="2" d="M47.2811,10.0812A26.2255,26.2255,0,0,1,60.303,27.4083"/><path fill="none" stroke="#000" stroke-linecap="round" stroke-linejoin="round" stroke-width="2" d="M14.4392,16.5242a26.13,26.13,0,0,1,20.295-9.64,26.4837,26.4837,0,0,1,2.6769.1352"/><path fill="none" stroke="#000" stroke-linecap="round" stroke-linejoin="round" stroke-width="2" d="M10.4568,42.8873a26.3047,26.3047,0,0,1-.7559-17.5139"/><path fill="none" stroke="#000" stroke-linecap="round" stroke-linejoin="round" stroke-width="2" d="M43.7629,57.65A26.2154,26.2154,0,0,1,15.64,50.98"/><path fill="none" stroke="#000" stroke-linecap="round" stroke-miterlimit="10" stroke-width="2" d="M37.1632,36.16a3.8764,3.8764,0,1,1,1.7381-3.2336"/><line x1="37.969" x2="50.24" y1="29.602" y2="17.331" fill="none" stroke="#000" stroke-linecap="round" stroke-linejoin="round" stroke-width="2"/><line x1="18.909" x2="32.002" y1="48.69" y2="35.598" fill="none" stroke="#000" stroke-linecap="round" stroke-linejoin="round" stroke-width="2"/><line x1="31.849" x2="18.895" y1="30.657" y2="17.703" fill="none" stroke="#000" stroke-linecap="round" stroke-linejoin="round" stroke-width="2"/><line x1="50.254" x2="37.271" y1="49.035" y2="36.052" fill="none" stroke="#000" stroke-linecap="round" stroke-linejoin="round" stroke-width="2"/><line x1="31.149" x2="12.589" y1="33.453" y2="33.453" fill="none" stroke="#000" stroke-linecap="round" stroke-linejoin="round" stroke-width="2"/><line x1="56.276" x2="38.901" y1="33.433" y2="33.433" fill="none" stroke="#000" stroke-linecap="round" stroke-linejoin="round" stroke-width="2"/><line x1="35.025" x2="35.025" y1="29.051" y2="10.492" fill="none" stroke="#000" stroke-linecap="round" stroke-linejoin="round" stroke-width="2"/><circle cx="11.682" cy="20.785" r="4.588" fill="none" stroke="#000" stroke-miterlimit="10" stroke-width="2"/><circle cx="42.121" cy="9.418" r="4.588" fill="none" stroke="#000" stroke-miterlimit="10" stroke-width="2"/><path fill="none" stroke="#000" stroke-miterlimit="10" stroke-width="2" d="M65.5556,32.2058a4.64,4.64,0,0,1-4.64,4.64q-.1362,0-.27-.0077a4.64,4.64,0,1,1,4.91-4.632Z"/><path fill="none" stroke="#000" stroke-miterlimit="10" stroke-width="2" d="M52.5492,55.4635a4.64,4.64,0,1,1-4.64-4.64A4.6414,4.6414,0,0,1,52.5492,55.4635Z"/><circle cx="13.141" cy="47.132" r="4.588" fill="none" stroke="#000" stroke-miterlimit="10" stroke-width="2"/></g></svg>