<svg xmlns="http://www.w3.org/2000/svg" id="emoji" viewBox="0 0 72 72"><g id="color"><polygon fill="#FCEA2B" stroke="none" points="55.532 51.262 36.512 52.262 17.491 51.262 16.588 32.376 56 32.376"/><polygon fill="#3F3F3F" stroke="none" stroke-linecap="round" stroke-linejoin="round" stroke-miterlimit="10" stroke-width="2" points="55.355 32.376 54.682 47.252 55.836 21.754 55.953 19.178 56.5 7.083 16.5 7.083 18.318 47.252 17.645 32.376"/><path fill="#3F3F3F" stroke="none" stroke-linecap="round" stroke-linejoin="round" stroke-miterlimit="10" stroke-width="2" d="M54.5,51.262c0,0-11.2908,1.7703-17.5,1.7703S18.5,51.262,18.5,51.262c-7.3129-1.1586-14-2.0756-14-0.04 c0,3.5608,14.3269,6.4474,32,6.4474s32-2.8866,32-6.4474C68.5,49.1864,61.8129,50.1034,54.5,51.262z"/></g><g id="line"><polygon fill="none" stroke="#000" stroke-linecap="round" stroke-linejoin="round" stroke-miterlimit="10" stroke-width="2" points="55.355 32.376 54.682 47.252 55.836 21.754 55.953 19.178 56.5 7.083 16.5 7.083 18.318 47.252 17.645 32.376"/><path fill="none" stroke="#000" stroke-linecap="round" stroke-linejoin="round" stroke-miterlimit="10" stroke-width="2" d="M54.5,51.262c0,0-11.2908,1.7703-17.5,1.7703S18.5,51.262,18.5,51.262c-7.3129-1.1586-14-2.0756-14-0.04 c0,3.5608,14.3269,6.4474,32,6.4474s32-2.8866,32-6.4474C68.5,49.1864,61.8129,50.1034,54.5,51.262z"/></g></svg>