<svg xmlns="http://www.w3.org/2000/svg" id="emoji" viewBox="0 0 72 72"><g id="color"><circle cx="15.799" cy="30.967" r="1.511" fill="#FFF" stroke="none"/><path fill="#3F3F3F" stroke="none" d="M16.5878,37.3974V54.97c0,1.1026,1.8975,3,3,3l33.6372,0.2321c1.1025,0,2.2763-2.1295,2.2763-3.2321 V37.3974H16.5878z"/><polygon fill="#3F3F3F" stroke="none" points="41.374 12.911 48.525 16.598 51.075 15.618 43.923 11.93"/><polygon fill="#3F3F3F" stroke="none" points="39.962 20.129 32.275 16.158 29.536 17.208 37.227 21.18"/><polygon fill="#3F3F3F" stroke="none" points="22.085 20.067 18.639 21.715 25.326 25.719 29.71 24.073"/><polygon fill="#3F3F3F" stroke="none" points="29.258 31.315 25.663 31.315 20.554 37.05 24.149 37.05"/><polygon fill="#3F3F3F" stroke="none" points="41.225 30.967 38.315 30.967 32.587 37.397 35.496 37.397"/><polygon fill="#3F3F3F" stroke="none" points="44.587 37.397 47.496 37.397 53.225 30.967 50.315 30.967"/><polygon fill="#FFF" stroke="none" points="43.331 36.913 48.198 31.451 42.481 31.451 37.614 36.913"/><polygon fill="#FFF" stroke="none" points="49.692 36.99 55.059 36.99 55.059 30.966"/><circle cx="15.799" cy="30.967" r="2.512" fill="#3F3F3F" stroke="none"/><path fill="#FFF" stroke="none" d="M16.5271,33.8909v3.3443h3.2915l5.4403-6.1061h-6.5834C18.3249,32.2981,17.5547,33.2765,16.5271,33.8909z"/><polygon fill="#FFF" stroke="none" points="31.33 36.906 36.183 31.459 30.482 31.459 25.629 36.906"/><polygon fill="#FFF" stroke="none" points="45.93 11.195 49.577 13.075 48.478 10.216"/><polygon fill="#FFF" stroke="none" points="40.013 13.396 33.733 15.809 40.934 19.528 47.222 17.112"/><polygon fill="#FFF" stroke="none" points="28.499 17.952 23.065 20.041 29.9 23.632 35.401 21.517"/><path fill="#FFF" stroke="none" d="M17.5363,22.2109l-4.9559,1.9047l1.5446,4.0189c0.3313-0.0798,0.6724-0.1334,1.0278-0.1334 c0.658,0,1.2769,0.155,1.8383,0.4148c0.0521-0.0293,0.092-0.0728,0.1495-0.0949l6.9447-2.6689L17.5363,22.2109z"/></g><g id="line"><path fill="none" stroke="#000" stroke-linecap="round" stroke-linejoin="round" stroke-miterlimit="10" stroke-width="2" d="M55.5013,37.3974"/><path fill="none" stroke="#000" stroke-linecap="round" stroke-linejoin="round" stroke-miterlimit="10" stroke-width="2" d="M16.5878,37.3974"/><path fill="none" stroke="#000" stroke-linecap="round" stroke-linejoin="round" stroke-miterlimit="10" stroke-width="2" d="M55.5013,37.3974"/><path fill="none" stroke="#000" stroke-linecap="round" stroke-linejoin="round" stroke-miterlimit="10" stroke-width="2" d="M16.5878,37.3974"/><polyline fill="none" stroke="#000" stroke-linecap="round" stroke-linejoin="round" stroke-miterlimit="10" stroke-width="2" points="17.741 28.643 51.088 15.828 48.781 9.825 12.457 23.784 14.195 28.306"/><path fill="none" stroke="#000" stroke-linecap="round" stroke-linejoin="round" stroke-miterlimit="10" stroke-width="2" d="M55.5013,37.3974"/><path fill="none" stroke="#000" stroke-linecap="round" stroke-linejoin="round" stroke-miterlimit="10" stroke-width="2" d="M16.5878,37.3974"/><path fill="none" stroke="#000" stroke-linecap="round" stroke-linejoin="round" stroke-miterlimit="10" stroke-width="2" d="M16.5878,37.3973v1.6856V54.97c0,1.6569,1.3431,3,3,3h32.9135c1.6569,0,3-1.3431,3-3V39.0829v-1.6855L16.5878,37.3973z"/><polyline fill="none" stroke="#000" stroke-linecap="round" stroke-linejoin="round" stroke-miterlimit="10" stroke-width="2" points="18.897 30.966 55.501 30.966 55.501 37.397"/><line x1="16.588" x2="16.588" y1="37.05" y2="33.958" fill="none" stroke="#000" stroke-linecap="round" stroke-linejoin="round" stroke-miterlimit="10" stroke-width="2"/><polygon fill="none" stroke="#000" stroke-linecap="round" stroke-linejoin="round" stroke-miterlimit="10" stroke-width="2" points="19.7 37.397 24.383 37.397 30.112 30.966 25.429 30.966"/><polygon fill="none" stroke="#000" stroke-linecap="round" stroke-linejoin="round" stroke-miterlimit="10" stroke-width="2" points="31.7 37.397 36.383 37.397 42.112 30.966 37.429 30.966"/><polygon fill="none" stroke="#000" stroke-linecap="round" stroke-linejoin="round" stroke-miterlimit="10" stroke-width="2" points="43.7 37.397 48.383 37.397 54.112 30.966 49.429 30.966"/><circle cx="15.799" cy="30.966" r="2.511" fill="none" stroke="#000" stroke-linecap="round" stroke-linejoin="round" stroke-miterlimit="10" stroke-width="2"/><polyline fill="none" stroke="#000" stroke-linecap="round" stroke-linejoin="round" stroke-miterlimit="10" stroke-width="2" points="47.879 17.084 40.224 13.137 44.595 11.457 50.597 14.551"/><polygon fill="none" stroke="#000" stroke-linecap="round" stroke-linejoin="round" stroke-miterlimit="10" stroke-width="2" points="40.771 19.811 36.399 21.489 28.746 17.536 33.119 15.859"/><polygon fill="none" stroke="#000" stroke-linecap="round" stroke-linejoin="round" stroke-miterlimit="10" stroke-width="2" points="29.71 24.073 25.326 25.719 17.701 21.713 22.085 20.067"/></g></svg>