<svg xmlns="http://www.w3.org/2000/svg" id="emoji" viewBox="0 0 72 72"><g id="color"><line x1="13.229" x2="55.872" y1="22.522" y2="22.522" fill="none" stroke="#9b9b9a" stroke-linecap="round" stroke-linejoin="round" stroke-width="2.305"/><line x1="13.229" x2="55.872" y1="49.718" y2="49.718" fill="none" stroke="#9b9b9a" stroke-linecap="round" stroke-linejoin="round" stroke-width="2.305"/><circle cx="63.484" cy="30.735" r="2.593" fill="#ea5a47"/><path fill="#d22f27" d="M64.5116,28.1838a2.59,2.59,0,0,1-3.5788,3.5787,2.5916,2.5916,0,1,0,3.5788-3.5787Z"/></g><g id="line"><line x1="13.229" x2="55.872" y1="19.865" y2="19.865" stroke="#000" stroke-linecap="round" stroke-linejoin="round" stroke-width="2.305"/><line x1="12.077" x2="12.077" y1="52.135" y2="19.865" fill="none" stroke="#000" stroke-linecap="round" stroke-linejoin="round" stroke-width="2"/><line x1="55.951" x2="13.151" y1="52.135" y2="52.135" fill="none" stroke="#000" stroke-linecap="round" stroke-linejoin="round" stroke-width="4.007"/><line x1="13.151" x2="55.951" y1="19.865" y2="19.865" fill="none" stroke="#000" stroke-linecap="round" stroke-linejoin="round" stroke-width="4.007"/><line x1="27.059" x2="27.059" y1="19.865" y2="52.135" fill="none" stroke="#000" stroke-linecap="round" stroke-linejoin="round" stroke-width="2"/><line x1="42.042" x2="42.042" y1="19.865" y2="52.135" fill="none" stroke="#000" stroke-linecap="round" stroke-linejoin="round" stroke-width="2"/><line x1="57.025" x2="63.157" y1="47.42" y2="47.42" fill="none" stroke="#000" stroke-linecap="round" stroke-linejoin="round" stroke-width="2"/><line x1="63.157" x2="63.157" y1="47.42" y2="34.002" fill="none" stroke="#000" stroke-linecap="round" stroke-linejoin="round" stroke-width="2"/><circle cx="63.157" cy="30.735" r="2.593" fill="none" stroke="#000" stroke-miterlimit="10" stroke-width="1.297"/><polyline fill="none" stroke="#000" stroke-linecap="round" stroke-linejoin="round" stroke-width="2" points="17.3 35.69 17.3 33.698 21.836 33.698 19.033 41.766"/><polyline fill="none" stroke="#000" stroke-linecap="round" stroke-linejoin="round" stroke-width="2" points="32.282 31.227 32.282 29.235 36.819 29.235 34.016 37.303"/><polyline fill="none" stroke="#000" stroke-linecap="round" stroke-linejoin="round" stroke-width="2" points="47.265 35.69 47.265 33.698 51.802 33.698 48.998 41.766"/><line x1="57.025" x2="57.025" y1="19.865" y2="52.135" fill="none" stroke="#000" stroke-linecap="round" stroke-linejoin="round" stroke-width="2"/></g><g id="color-foreground"><polyline fill="none" stroke="#d22f27" stroke-linecap="round" stroke-linejoin="round" stroke-width="2" points="17.3 35.69 17.3 33.698 21.836 33.698 19.033 41.766"/><polyline fill="none" stroke="#d22f27" stroke-linecap="round" stroke-linejoin="round" stroke-width="2" points="32.282 31.227 32.282 29.235 36.819 29.235 34.016 37.303"/><polyline fill="none" stroke="#d22f27" stroke-linecap="round" stroke-linejoin="round" stroke-width="2" points="47.265 35.69 47.265 33.698 51.802 33.698 48.998 41.766"/></g></svg>