<svg xmlns="http://www.w3.org/2000/svg" id="emoji" viewBox="0 0 72 72"><g id="color"><rect width="6.002" height="6.002" x="22.358" y="17.268" fill="#FFF" stroke="none"/><polygon fill="#FFF" stroke="none" points="28.36 33.893 22.358 35.273 22.358 29.271 28.36 29.271"/><rect width="6.002" height="6.002" x="28.36" y="23.27" fill="#FFF" stroke="none"/><rect width="6.002" height="6.002" x="34.361" y="17.268" fill="#FFF" stroke="none"/><rect width="6.002" height="2.281" x="28.36" y="14.987" fill="#FFF" stroke="none"/><polygon fill="#FFF" stroke="none" points="40.363 35.273 34.361 33.822 34.361 29.271 40.363 29.271"/><rect width="6.002" height="6.002" x="40.363" y="23.27" fill="#FFF" stroke="none"/><rect width="6.002" height="3.001" x="46.365" y="20.269" fill="#FFF" stroke="none"/><rect width="6.002" height="6.002" x="46.365" y="29.271" fill="#FFF" stroke="none"/><rect width="1.744" height="6.002" x="52.367" y="23.27" fill="#FFF" stroke="none"/><rect width="6.002" height="1.931" x="40.363" y="35.273" fill="#FFF" stroke="none"/><rect width="2.113" height="2.404" x="52.367" y="35.273" fill="#FFF" stroke="none"/></g><g id="line"><rect width="6.002" height="6.002" x="22.358" y="23.27" fill="#000" stroke="none"/><rect width="6.002" height="6.002" x="28.36" y="17.268" fill="#000" stroke="none"/><rect width="6.002" height="5.14" x="28.36" y="29.271" fill="#000" stroke="none"/><polygon fill="#000" stroke="none" points="28.36 17.268 22.358 17.268 23.042 16.647 28.36 16.026"/><polygon fill="#000" stroke="none" points="40.363 17.268 34.361 17.268 34.361 15.649 40.363 16.621"/><rect width="6.002" height="6.002" x="34.361" y="23.27" fill="#000" stroke="none"/><polygon fill="#000" stroke="none" points="46.365 23.27 40.363 23.27 40.363 18.646 46.365 19.967"/><rect width="6.002" height="6.002" x="40.363" y="29.271" fill="#000" stroke="none"/><rect width="6.002" height="6.002" x="46.365" y="23.27" fill="#000" stroke="none"/><rect width="1.744" height="2.96" x="52.367" y="20.309" fill="#000" stroke="none"/><rect width="1.909" height="6.002" x="52.367" y="29.271" fill="#000" stroke="none"/><rect width="6.002" height="3.474" x="46.365" y="35.273" fill="#000" stroke="none"/><path fill="none" stroke="#000" stroke-linecap="round" stroke-linejoin="round" stroke-miterlimit="10" stroke-width="2" d="M23.0844,17.488C25.9694,15.6897,31.5062,13.2554,37.5,16c3.689,1.6892,5.6344,4.6976,15.0405,4.1142 C53.3291,20.0653,54,20.7109,54,21.5248c0,3.3025,0,11.1393,0,15.1253c0,0.6226-0.4235,1.0771-0.9648,1.354 C51.0882,39,45.7637,38.939,37.5,35c-3.3653-1.6041-8.5703-2.5683-14.4582,1.4425"/><line x1="19.327" x2="19.327" y1="12.875" y2="59.835" fill="none" stroke="#000" stroke-linecap="round" stroke-miterlimit="10" stroke-width="2"/></g></svg>