<svg xmlns="http://www.w3.org/2000/svg" id="emoji" version="1.1" viewBox="0 0 72 72"><g id="color"><rect width="35" height="25" x="18.5" y="31.5" fill="#FFF"/><polygon fill="#EA5A47" points="28.5 22.059 23.5 26.765 23.5 17 28.5 17"/><rect width="9" height="16" x="25.5" y="40" fill="#A57939"/><polygon fill="#6A462F" points="37.45 40.38 24.26 53.57 21.34 50.66 25.5 46.5 32 40 34.53 37.47"/><polygon fill="#9B9B9A" points="48 47 42.792 47 40 47 40 40 42 40 48 40"/><polygon fill="#92D3F5" points="42.792 47 46 43 43 42 42 40 48 40 48 47"/><polygon fill="#EA5A47" points="36 15 19 31 19 32 53 32 53 31 47 26 40 27 32 28 34 24 32 22 38.6 17.6"/></g><g id="line"><polygon fill="none" stroke="#000" stroke-linecap="round" stroke-linejoin="round" stroke-miterlimit="10" stroke-width="2" points="28.5 22.059 23.5 26.765 23.5 17 28.5 17"/><polygon fill="none" stroke="#000" stroke-linecap="round" stroke-linejoin="round" stroke-miterlimit="10" stroke-width="2" points="32 40 25.5 46.5 25.5 40"/><polygon fill="none" stroke="#000" stroke-linecap="round" stroke-linejoin="round" stroke-miterlimit="10" stroke-width="2" points="34.5 43.33 34.5 56 25.5 56 25.5 52.33"/><polygon fill="none" stroke="#000" stroke-linecap="round" stroke-linejoin="round" stroke-miterlimit="10" stroke-width="2" points="48 47 42.792 47 40 47 40 40 42 40 48 40"/><rect width="18.656" height="4.122" x="20.068" y="43.457" fill="none" stroke="#000" stroke-linecap="round" stroke-linejoin="round" stroke-miterlimit="10" stroke-width="2" transform="matrix(0.7071 -0.7071 0.7071 0.7071 -23.5765 34.1179)"/><polygon fill="none" stroke="#000" stroke-linecap="round" stroke-linejoin="round" stroke-miterlimit="10" stroke-width="2" points="42.792 47 46 43 43 42 42 40 48 40 48 47"/><line x1="42" x2="42" y1="22" y2="26" fill="none" stroke="#000" stroke-linecap="round" stroke-linejoin="round" stroke-miterlimit="10" stroke-width="2"/><line x1="45" x2="45" y1="25" y2="26" fill="none" stroke="#000" stroke-linecap="round" stroke-linejoin="round" stroke-miterlimit="10" stroke-width="2"/><line x1="39" x2="39" y1="19" y2="26" fill="none" stroke="#000" stroke-linecap="round" stroke-linejoin="round" stroke-miterlimit="10" stroke-width="2"/><polyline fill="none" stroke="#000" stroke-linecap="round" stroke-linejoin="round" stroke-miterlimit="10" stroke-width="2" points="40 19 36 15 19 31 19 32 53 32 53 31 47 26 40 27 32 28 34 24 32 22 38.6 17.6"/><line x1="36" x2="36" y1="20" y2="27" fill="none" stroke="#000" stroke-linecap="round" stroke-linejoin="round" stroke-miterlimit="10" stroke-width="2"/><rect width="34" height="24" x="19" y="32" fill="none" stroke="#000" stroke-linecap="round" stroke-linejoin="round" stroke-miterlimit="10" stroke-width="2"/></g></svg>