<svg xmlns="http://www.w3.org/2000/svg" id="emoji" viewBox="0 0 72 72"><g id="color"><rect width="23" height="16" x="14.5" y="41.5" fill="#FFF" stroke="none"/><rect width="23" height="16" x="33.61" y="26.9" fill="#FFF" stroke="none"/><rect width="5" height="4" x="48.5" y="32" fill="#92D3F5" stroke="none" stroke-linecap="round" stroke-linejoin="round" stroke-miterlimit="10" stroke-width="2"/><polygon fill="#EA5A47" stroke="none" stroke-linecap="round" stroke-linejoin="round" stroke-miterlimit="10" stroke-width="2" points="57.5 27 34.5 27 34.5 25.537 46 15 57.5 25.537"/><polygon fill="#EA5A47" stroke="none" stroke-linecap="round" stroke-linejoin="round" stroke-miterlimit="10" stroke-width="2" points="21 34.581 17 38.246 17 32 21 32"/><polygon fill="#EA5A47" stroke="none" stroke-linecap="round" stroke-linejoin="round" stroke-miterlimit="10" stroke-width="2" points="41 19.581 37 23.246 37 17 41 17"/><rect width="8" height="9.992" x="38" y="33" fill="#A57939" stroke="none"/><rect width="6" height="10" x="19" y="47" fill="#A57939" stroke="none" stroke-linecap="round" stroke-linejoin="round" stroke-miterlimit="10" stroke-width="2"/><rect width="5" height="4" x="28.5" y="47" fill="#92D3F5" stroke="none" stroke-linecap="round" stroke-linejoin="round" stroke-miterlimit="10" stroke-width="2"/><polygon fill="#EA5A47" stroke="none" stroke-linecap="round" stroke-linejoin="round" stroke-miterlimit="10" stroke-width="2" points="37.5 42 14.5 42 14.5 40.537 26 30 37.5 40.537"/></g><g id="line"><rect width="5" height="4" x="48.5" y="32" fill="none" stroke="#000" stroke-linecap="round" stroke-linejoin="round" stroke-miterlimit="10" stroke-width="2"/><polygon fill="none" stroke="#000" stroke-linecap="round" stroke-linejoin="round" stroke-miterlimit="10" stroke-width="2" points="57.5 27 34.5 27 34.5 25.537 46 15 57.5 25.537"/><polygon fill="none" stroke="#000" stroke-linecap="round" stroke-linejoin="round" stroke-miterlimit="10" stroke-width="2" points="21 34.581 17 38.246 17 32 21 32"/><polygon fill="none" stroke="#000" stroke-linecap="round" stroke-linejoin="round" stroke-miterlimit="10" stroke-width="2" points="41 19.581 37 23.246 37 17 41 17"/><polyline fill="none" stroke="#000" stroke-linecap="round" stroke-linejoin="round" stroke-miterlimit="10" stroke-width="2" points="34.5 33 34.5 27 34.5 25.537 46 15 57.5 25.537 57.5 27 57.5 42 41.5 42"/><polyline fill="none" stroke="#000" stroke-linecap="round" stroke-linejoin="round" stroke-miterlimit="10" stroke-width="2" points="45 42 45 32 39 32 39 36.088"/><rect width="6" height="10" x="19" y="47" fill="none" stroke="#000" stroke-linecap="round" stroke-linejoin="round" stroke-miterlimit="10" stroke-width="2"/><rect width="5" height="4" x="28.5" y="47" fill="none" stroke="#000" stroke-linecap="round" stroke-linejoin="round" stroke-miterlimit="10" stroke-width="2"/><polygon fill="none" stroke="#000" stroke-linecap="round" stroke-linejoin="round" stroke-miterlimit="10" stroke-width="2" points="37.5 42 14.5 42 14.5 40.537 26 30 37.5 40.537"/><rect width="23" height="15" x="14.5" y="42" fill="none" stroke="#000" stroke-linecap="round" stroke-linejoin="round" stroke-miterlimit="10" stroke-width="2"/></g></svg>