<svg xmlns="http://www.w3.org/2000/svg" id="emoji" version="1.1" viewBox="0 0 72 72"><g id="color"><rect width="38" height="10" x="17" y="50" fill="#FFF"/><rect width="28" height="10" x="22" y="33" fill="#FFF"/><rect width="18" height="10" x="27" y="16" fill="#FFF"/><polygon fill="#3F3F3F" points="54 33 18 33 22 30 24 26 48 26 50 30"/><polygon fill="#3F3F3F" points="59.5 50 12.5 50 16.5 47 18.5 43 53.5 43 55.5 47"/><polygon fill="#3F3F3F" points="49 16 23 16 27 13 29 9 43 9 45 13"/><polygon fill="#A57939" points="41.5 60 30.5 60 30.5 53 34.125 53 41.5 53"/><rect width="2" height="4" x="23" y="53" fill="none" stroke="#92D3F5" stroke-linecap="round" stroke-linejoin="round" stroke-miterlimit="10" stroke-width="2"/><rect width="2" height="4" x="31" y="19" fill="none" stroke="#92D3F5" stroke-linecap="round" stroke-linejoin="round" stroke-miterlimit="10" stroke-width="2"/><rect width="2" height="4" x="39" y="19" fill="none" stroke="#92D3F5" stroke-linecap="round" stroke-linejoin="round" stroke-miterlimit="10" stroke-width="2"/><rect width="2" height="4" x="47" y="53" fill="none" stroke="#92D3F5" stroke-linecap="round" stroke-linejoin="round" stroke-miterlimit="10" stroke-width="2"/><polygon fill="#D0CFCE" points="36 31 23 45 49 45"/><rect width="2" height="2" x="32" y="40" fill="none" stroke="#92D3F5" stroke-linecap="round" stroke-linejoin="round" stroke-miterlimit="10" stroke-width="2"/><rect width="2" height="2" x="38" y="40" fill="none" stroke="#92D3F5" stroke-linecap="round" stroke-linejoin="round" stroke-miterlimit="10" stroke-width="2"/></g><g id="line"><rect width="38" height="10" x="17" y="50" fill="none" stroke="#000" stroke-linecap="round" stroke-linejoin="round" stroke-miterlimit="10" stroke-width="2"/><polygon fill="none" stroke="#000" stroke-linecap="round" stroke-linejoin="round" stroke-miterlimit="10" stroke-width="2" points="34.14 33 24.86 43 22 43 22 33"/><polygon fill="none" stroke="#000" stroke-linecap="round" stroke-linejoin="round" stroke-miterlimit="10" stroke-width="2" points="50 33 50 43 47.14 43 37.86 33"/><rect width="18" height="10" x="27" y="16" fill="none" stroke="#000" stroke-linecap="round" stroke-linejoin="round" stroke-miterlimit="10" stroke-width="2"/><polygon fill="none" stroke="#000" stroke-linecap="round" stroke-linejoin="round" stroke-miterlimit="10" stroke-width="2" points="54 33 37.86 33 36 31 34.14 33 18 33 22 30 24 26 48 26 50 30"/><polygon fill="none" stroke="#000" stroke-linecap="round" stroke-linejoin="round" stroke-miterlimit="10" stroke-width="2" points="59.5 50 12.5 50 16.5 47 18.5 43 24.86 43 23 45 49 45 47.14 43 53.5 43 55.5 47"/><polygon fill="none" stroke="#000" stroke-linecap="round" stroke-linejoin="round" stroke-miterlimit="10" stroke-width="2" points="49 16 23 16 27 13 29 9 43 9 45 13"/><polygon fill="none" stroke="#000" stroke-linecap="round" stroke-linejoin="round" stroke-miterlimit="10" stroke-width="2" points="41.5 60 30.5 60 30.5 53 34.125 53 41.5 53"/><polyline fill="none" stroke="#000" stroke-linecap="round" stroke-linejoin="round" stroke-miterlimit="10" stroke-width="2" points="34.063 60 34.063 53 38.063 53 38.063 60"/><polygon fill="none" stroke="#000" stroke-linecap="round" stroke-linejoin="round" stroke-miterlimit="10" stroke-width="2" points="49 45 23 45 24.86 43 34.14 33 36 31 37.86 33 47.14 43"/><polyline fill="none" stroke="#000" stroke-linecap="round" stroke-linejoin="round" stroke-miterlimit="10" stroke-width="2" points="25 57 23 57 23 53"/><polyline fill="none" stroke="#000" stroke-linecap="round" stroke-linejoin="round" stroke-miterlimit="10" stroke-width="2" points="33 23 31 23 31 19"/><polyline fill="none" stroke="#000" stroke-linecap="round" stroke-linejoin="round" stroke-miterlimit="10" stroke-width="2" points="41 23 39 23 39 19"/><polyline fill="none" stroke="#000" stroke-linecap="round" stroke-linejoin="round" stroke-miterlimit="10" stroke-width="2" points="49 57 47 57 47 53"/><polyline fill="none" stroke="#000" stroke-linecap="round" stroke-linejoin="round" stroke-miterlimit="10" stroke-width="2" points="34 42 32 42 32 40"/><polyline fill="none" stroke="#000" stroke-linecap="round" stroke-linejoin="round" stroke-miterlimit="10" stroke-width="2" points="40 42 38 42 38 40"/></g></svg>