<svg xmlns="http://www.w3.org/2000/svg" id="emoji" version="1.1" viewBox="0 0 72 72"><g id="color"><rect width="40" height="34" x="16" y="26" fill="#9B9B9A"/><rect width="44" height="4" x="14" y="22" fill="#D0CFCE"/><polyline fill="#FFF" points="19.5 26 21.552 26 21.552 60 19.5 60"/><polyline fill="#FFF" points="24.933 26 26.971 26 26.971 60 24.933 60"/><polyline fill="#FFF" points="47.067 60 45.018 60 45.018 26 47.067 26"/><polyline fill="#FFF" points="52.5 60 50.482 60 50.482 26 52.5 26"/><polygon fill="#D0CFCE" points="36 12 19 22 53 22"/><rect width="9" height="10" x="31.5" y="50" fill="#92D3F5"/><circle cx="36" cy="35" r="5" fill="#FCEA2B"/><path fill="none" stroke="#F4AA41" stroke-linecap="round" stroke-linejoin="round" stroke-miterlimit="10" d="M36.9482,34.2622 c-0.0977-0.3803-0.5204-0.6665-1.0269-0.6665l0,0c-0.5789,0-1.0483,0.3737-1.0483,0.8347c0,0.461,0.4693,0.8347,1.0483,0.8347 L35.9,35.2682c0.5789,0,1.0483,0.3737,1.0483,0.8347c0,0.461-0.4693,0.8347-1.0483,0.8347l0,0 c-0.5066,0-0.9293-0.2861-1.027-0.6665"/><line x1="35.911" x2="35.911" y1="33.596" y2="32.8" fill="none" stroke="#F4AA41" stroke-linecap="round" stroke-linejoin="round" stroke-miterlimit="10"/><line x1="35.911" x2="35.911" y1="37.733" y2="36.938" fill="none" stroke="#F4AA41" stroke-linecap="round" stroke-linejoin="round" stroke-miterlimit="10"/></g><g id="line"><rect width="40" height="34" x="16" y="26" fill="none" stroke="#000" stroke-linecap="round" stroke-linejoin="round" stroke-miterlimit="10" stroke-width="2"/><rect width="44" height="4" x="14" y="22" fill="none" stroke="#000" stroke-linecap="round" stroke-linejoin="round" stroke-miterlimit="10" stroke-width="2"/><polyline fill="none" stroke="#000" stroke-linecap="round" stroke-linejoin="round" stroke-miterlimit="10" stroke-width="2" points="19.5 26 22.5 26 22.5 60 19.5 60"/><polyline fill="none" stroke="#000" stroke-linecap="round" stroke-linejoin="round" stroke-miterlimit="10" stroke-width="2" points="24.933 26 27.933 26 27.933 60 24.933 60"/><polyline fill="none" stroke="#000" stroke-linecap="round" stroke-linejoin="round" stroke-miterlimit="10" stroke-width="2" points="47.067 60 44.067 60 44.067 26 47.067 26"/><polyline fill="none" stroke="#000" stroke-linecap="round" stroke-linejoin="round" stroke-miterlimit="10" stroke-width="2" points="52.5 60 49.5 60 49.5 26 52.5 26"/><polygon fill="none" stroke="#000" stroke-linecap="round" stroke-linejoin="round" stroke-miterlimit="10" stroke-width="2" points="36 12 19 21.749 53 21.749"/><rect width="9" height="10" x="31.5" y="50" fill="none" stroke="#000" stroke-linecap="round" stroke-linejoin="round" stroke-miterlimit="10" stroke-width="2"/><line x1="36" x2="36" y1="60" y2="50" fill="none" stroke="#000" stroke-linecap="round" stroke-linejoin="round" stroke-miterlimit="10" stroke-width="2"/><circle cx="36" cy="35" r="5" fill="none" stroke="#000" stroke-miterlimit="10" stroke-width="2"/><path fill="none" stroke="#000" stroke-linecap="round" stroke-linejoin="round" stroke-miterlimit="10" d="M36.9482,34.2622 c-0.0977-0.3803-0.5204-0.6665-1.0269-0.6665l0,0c-0.5789,0-1.0483,0.3737-1.0483,0.8347c0,0.461,0.4693,0.8347,1.0483,0.8347 L35.9,35.2682c0.5789,0,1.0483,0.3737,1.0483,0.8347c0,0.461-0.4693,0.8347-1.0483,0.8347l0,0 c-0.5066,0-0.9293-0.2861-1.027-0.6665"/><line x1="35.911" x2="35.911" y1="33.596" y2="32.8" fill="none" stroke="#000" stroke-linecap="round" stroke-linejoin="round" stroke-miterlimit="10"/><line x1="35.911" x2="35.911" y1="37.733" y2="36.938" fill="none" stroke="#000" stroke-linecap="round" stroke-linejoin="round" stroke-miterlimit="10"/></g></svg>