<svg xmlns="http://www.w3.org/2000/svg" id="emoji" viewBox="0 0 72 72"><g id="color"><rect width="32.737" height="52.264" x="19.125" y="9.871" fill="#ea5a47" rx="11"/><g><path fill="#d22f27" d="M46.4141,10.7429,40.2278,9.871c7.6518,1.92,6.6782,13.5373,6.7861,15.7853,1.7573,36.6011-12.681,36.6353-13.409,36.6779L43.0106,62h.0607A9.1128,9.1128,0,0,0,52,52.9873V19.4727S51.3852,13.6529,46.4141,10.7429Z"/><path fill="#d22f27" d="M33.6038,62.41l-.05.0013S33.5718,62.4119,33.6038,62.41Z"/></g><rect width="12.286" height="35.618" x="29.35" y="18.332" fill="#fff" rx="2"/><polyline fill="#3f3f3f" points="26.84 8.018 26.84 4.972 44.146 4.972 44.146 8.018"/><polyline fill="#3f3f3f" points="44.146 64.184 44.146 67.05 26.84 67.05 26.84 64.184"/></g><g id="line"><polyline fill="none" stroke="#000" stroke-linecap="round" stroke-linejoin="round" stroke-width="2" points="26.84 7.481 26.84 4.972 44.146 4.972 44.146 7.481"/><polyline fill="none" stroke="#000" stroke-linecap="round" stroke-linejoin="round" stroke-width="2" points="44.146 64.657 44.146 67.05 26.84 67.05 26.84 64.657"/><rect width="32.737" height="52.264" x="19.125" y="9.871" fill="none" stroke="#000" stroke-linecap="round" stroke-linejoin="round" stroke-width="2" rx="11"/><g><rect width="8.307" height="8.934" x="31.34" y="31.689" fill="none" stroke="#000" stroke-linecap="round" stroke-linejoin="round" stroke-width="1.5"/><rect width="8.307" height="8.934" x="31.34" y="42.539" fill="none" stroke="#000" stroke-linecap="round" stroke-linejoin="round" stroke-width="1.5"/><rect width="8.307" height="8.934" x="31.34" y="20.84" fill="none" stroke="#000" stroke-linecap="round" stroke-linejoin="round" stroke-width="1.5"/></g></g></svg>