<svg xmlns="http://www.w3.org/2000/svg" id="emoji" viewBox="0 0 72 72"><g id="color"><path fill="#B1CC33" stroke="none" d="M24.8935,49v-2.0773v-5.1492c0,0-10.7611-4.0651-8.6089-11.9244S28,22,30.9018,23.887 c6.4988,4.2259,4.7528,17.6156,4.7528,17.6156L36,43.9702"/><path fill="#5C9E31" stroke="none" d="M32,59c-3.0952-3.2485-6.4728-11.1872-6.4728-11.1872l10.6422-5.3279c0,0,3.851,5.3032,5.8305,6.515L32,59z"/><path fill="#5C9E31" stroke="none" d="M47,59c0,0,9-1,10-5s-7-4-8-4"/><path fill="#B1CC33" stroke="none" d="M32,57l8.631-8.0499c0,0,7.3727,0.1723,9.369,0.0499l-3,10L32,57z"/></g><g id="line"><line x1="22.025" x2="21" y1="22.608" y2="19" fill="none" stroke="#000" stroke-linecap="round" stroke-linejoin="round" stroke-miterlimit="10" stroke-width="2"/><line x1="26.519" x2="28" y1="22.187" y2="18" fill="none" stroke="#000" stroke-linecap="round" stroke-linejoin="round" stroke-miterlimit="10" stroke-width="2"/><path fill="none" stroke="#000" stroke-linecap="round" stroke-linejoin="round" stroke-miterlimit="10" stroke-width="2" d="M37,58"/><line x1="58.354" x2="57.646" y1="51.146" y2="51.854" fill="none" stroke="#000" stroke-linecap="round" stroke-linejoin="round" stroke-miterlimit="10" stroke-width="2"/><path fill="none" stroke="#000" stroke-linecap="round" stroke-linejoin="round" stroke-miterlimit="10" stroke-width="2" d="M25,46v-4.75c0,0-10-3.75-8-11s7.1667-8.75,13.5833-5.5S35,41,35,41"/><path fill="none" stroke="#000" stroke-linecap="round" stroke-linejoin="round" stroke-miterlimit="10" stroke-width="2" d="M25.4864,48.2555c0,0,1.1226,4.5305,4.2772,7.3093L29,57"/><path fill="none" stroke="#000" stroke-linecap="round" stroke-linejoin="round" stroke-miterlimit="10" stroke-width="2" d="M36.238,43.1573c0,0,0.8973,3.0323,2.8621,4.0998"/><line x1="25.526" x2="24.007" y1="48.796" y2="49.745" fill="none" stroke="#000" stroke-linecap="round" stroke-linejoin="round" stroke-miterlimit="10" stroke-width="2"/><line x1="27.168" x2="25.869" y1="52.687" y2="53.81" fill="none" stroke="#000" stroke-linecap="round" stroke-linejoin="round" stroke-miterlimit="10" stroke-width="2"/><path fill="none" stroke="#000" stroke-linecap="round" stroke-linejoin="round" stroke-miterlimit="10" stroke-width="2" d="M42.3022,59.8683"/><path fill="none" stroke="#000" stroke-linecap="round" stroke-linejoin="round" stroke-miterlimit="10" stroke-width="2" d="M41.6291,48.8889c0,0,3.0556,0.8146,5.0518,0.6922"/><path fill="none" stroke="#000" stroke-linecap="round" stroke-linejoin="round" stroke-miterlimit="10" stroke-width="2" d="M37,58"/><path fill="none" stroke="#000" stroke-linecap="round" stroke-linejoin="round" stroke-miterlimit="10" stroke-width="2" d="M32.0304,59.496l0.8949-2.0586c0,0,1.4199,0.5918,4.0107,1.0004c1.8606,0.2934,4.325,0.4924,7.3012,0.31l0.1224,1.9963"/><line x1="41.247" x2="41.308" y1="59.933" y2="60.931" fill="none" stroke="#000" stroke-linecap="round" stroke-linejoin="round" stroke-miterlimit="10" stroke-width="2"/><line x1="38.134" x2="38.256" y1="59.122" y2="61.118" fill="none" stroke="#000" stroke-linecap="round" stroke-linejoin="round" stroke-miterlimit="10" stroke-width="2"/><line x1="35.321" x2="35.143" y1="58.292" y2="60.307" fill="none" stroke="#000" stroke-linecap="round" stroke-linejoin="round" stroke-miterlimit="10" stroke-width="2"/><path fill="none" stroke="#000" stroke-linecap="round" stroke-linejoin="round" stroke-miterlimit="10" stroke-width="2" d="M48,59c0,0,8-1,9-5s-6-4-7-4"/><line x1="49.102" x2="49.238" y1="59.014" y2="60.261" fill="none" stroke="#000" stroke-linecap="round" stroke-linejoin="round" stroke-miterlimit="10" stroke-width="2"/><line x1="52.989" x2="53.351" y1="58.037" y2="59.238" fill="none" stroke="#000" stroke-linecap="round" stroke-linejoin="round" stroke-miterlimit="10" stroke-width="2"/><line x1="55.797" x2="56.544" y1="56.133" y2="57.141" fill="none" stroke="#000" stroke-linecap="round" stroke-linejoin="round" stroke-miterlimit="10" stroke-width="2"/></g></svg>