<svg xmlns="http://www.w3.org/2000/svg" id="emoji" viewBox="0 0 72 72"><g id="color"><ellipse cx="36" cy="29.763" fill="#6A462F" stroke="none" rx="6.263" ry="4.026"/><ellipse cx="36" cy="36.921" fill="#6A462F" stroke="none" rx="4.474" ry="2.876"/><ellipse cx="36" cy="50.342" fill="#6A462F" stroke="none" rx="6.263" ry="10.29"/></g><g id="line"><polyline fill="none" stroke="#000" stroke-linecap="round" stroke-linejoin="round" stroke-miterlimit="10" stroke-width="2" points="31.526 34.684 23.474 31.105 20.79 23.947"/><polyline fill="none" stroke="#000" stroke-linecap="round" stroke-linejoin="round" stroke-miterlimit="10" stroke-width="2" points="40.474 34.684 48.526 31.105 51.211 23.947"/><polyline fill="none" stroke="#000" stroke-linecap="round" stroke-linejoin="round" stroke-miterlimit="10" stroke-width="2" points="40.474 38.263 50.316 38.263 53 35.579"/><polyline fill="none" stroke="#000" stroke-linecap="round" stroke-linejoin="round" stroke-miterlimit="10" stroke-width="2" points="31.526 38.263 21.684 38.263 19 35.579"/><polyline fill="none" stroke="#000" stroke-linecap="round" stroke-linejoin="round" stroke-miterlimit="10" stroke-width="2" points="32.421 40.158 22.579 49.105 23.474 56.263"/><polyline fill="none" stroke="#000" stroke-linecap="round" stroke-linejoin="round" stroke-miterlimit="10" stroke-width="2" points="39.579 40.158 50.316 49.105 49.421 56.263"/><polyline fill="none" stroke="#000" stroke-linecap="round" stroke-linejoin="round" stroke-miterlimit="10" stroke-width="2" points="33.838 25.737 32.421 22.158 33.316 20.368"/><polyline fill="none" stroke="#000" stroke-linecap="round" stroke-linejoin="round" stroke-miterlimit="10" stroke-width="2" points="37.789 25.737 39.206 22.158 38.311 20.368"/><ellipse cx="36" cy="29.763" fill="none" stroke="#000" stroke-linecap="round" stroke-linejoin="round" stroke-miterlimit="10" stroke-width="2" rx="6.263" ry="4.026"/><ellipse cx="36" cy="36.921" fill="none" stroke="#000" stroke-linecap="round" stroke-linejoin="round" stroke-miterlimit="10" stroke-width="2" rx="4.474" ry="2.876"/><ellipse cx="36" cy="50.342" fill="none" stroke="#000" stroke-linecap="round" stroke-linejoin="round" stroke-miterlimit="10" stroke-width="2" rx="6.263" ry="10.29"/></g></svg>