<svg xmlns="http://www.w3.org/2000/svg" id="emoji" viewBox="0 0 72 72"><g id="color"><polygon fill="#D0CFCE" stroke="none" points="24.504 18 15.338 10.303 11.584 11.208 6.906 17.362 8.14 26.046 12.406 32.331 16.185 34.752 14.899 42.503 16.37 50.171 19.923 54.431 31.537 59.759 35.754 61.833 38.572 61.673 42.062 59.933 52.47 55.419 57.254 51.643 59.1 43.412 57.965 35.232 61.178 32.692 66.068 25.512 67.311 18.417 65.504 13.083 60.547 9.833 56.422 12.495 49.56 18.835 43.059 15.993 33.636 15.397 26.782 17.584"/><path fill="#FFA7C0" stroke="none" d="M62.9163,11.3865l-3.1454,2.4885l-5.0591,8.25v9.625c0,0,1.5061,3.2138,3.2535,3.4819l5.6892-5.1203 l2.8083-5.4866l0.8483-7.2631l-1.2199-2.6339L62.9163,11.3865z"/><path fill="#FFA7C0" stroke="none" d="M11.0837,11.7749l3.1454,2.4885l5.0591,8.25v9.625c0,0-1.5061,3.2138-3.2535,3.4819L10.3456,30.5 l-2.8083-5.4866l-0.8483-7.2631l1.2199-2.6339L11.0837,11.7749z"/></g><g id="line"><circle cx="26.782" cy="38.62" r="3" fill="#000" stroke="none"/><line x1="37" x2="37" y1="54.469" y2="57.491" fill="none" stroke="#000" stroke-linecap="round" stroke-linejoin="round" stroke-miterlimit="10" stroke-width="2"/><path fill="none" stroke="#000" stroke-linecap="round" stroke-linejoin="round" stroke-miterlimit="10" stroke-width="2" d="M42.0616,59.9329l10.4088-4.5136c10.5713-5.4638,5.345-20.6675,5.345-20.6675c4.3948-1.7817,6.8394-6.0914,6.8394-6.0914 c6.3409-12.3194-0.2162-16.7439-3.6864-18.1503c-1.0579-0.4287-2.2666-0.1795-3.0757,0.6257l-8.3325,7.6996 c-8.3737-4.9392-16.7472-4.9392-25.1207,0l-8.3325-7.6996c-0.809-0.8052-2.0178-1.0544-3.0757-0.6257 C9.5613,11.9165,3.0043,16.341,9.3451,28.6604c0,0,2.4446,4.3097,6.8394,6.0914c0,0-5.2263,15.2037,5.345,20.6675l10.4088,4.5136 C34.6794,62.4669,39.3207,62.4668,42.0616,59.9329z"/><path fill="none" stroke="#000" stroke-linecap="round" stroke-linejoin="round" stroke-miterlimit="10" stroke-width="2" d="M13.4527,14.728c0,0,8.077,3.8724,5.2263,16.5211"/><circle cx="47.218" cy="38.62" r="3" fill="#000" stroke="none"/><path fill="none" stroke="#000" stroke-linecap="round" stroke-linejoin="round" stroke-miterlimit="10" stroke-width="2" d="M60.5473,14.728c0,0-8.077,3.8724-5.2263,16.5211"/><path fill="#000" stroke="none" d="M34.449,50.265c1.4173-0.2612,3.1422-0.4049,4.971-0.1656c1.8102,0.2369,2.6036,1.9215,1.4716,3.0418l-1.9003,1.8806 c-0.9386,0.9289-2.7309,0.9772-3.7505,0.1011l-2.0222-1.7375C31.9765,52.3183,32.645,50.5974,34.449,50.265z"/></g></svg>