<svg xmlns="http://www.w3.org/2000/svg" id="emoji" version="1.1" viewBox="0 0 72 72"><g id="skin"><path fill="#c19a65" stroke="#c19a65" stroke-linecap="round" stroke-linejoin="round" stroke-miterlimit="10" stroke-width="2" d="M56.3522,43.9976l-1.0617-7.4771c-0.5114-3.0215-0.8271-7.288-1.9002-14.2739c-2.4731-1.8145-5.4509,1.6502-6.2031,4.6336 L44.4345,8.9599c-0.5551-3.6134-7.1336-2.877-6.4499,1.5743l2.0868,14.0777L37.5421,7.6536 C36.9445,3.7633,30.4079,3.38,31.478,10.346c-0.5335-3.473-7.0838-3.4227-6.2808,1.8048l0.7744,5.4314l0.1014,0.8084l-0.221-1.6979 c-0.4806-3.1286-6.0705-2.3774-5.4508,1.6573l1.0803,6.4311"/><path fill="#c19a65" d="M22.7484,27.2535c-3.1923-3.1923,1.6882-7.6885,4.2795-5.0972l16.3092,16.3092l-3.4575-3.4575 c-1.1612-2.8574-0.8089-7.4235,2.2659-7.4235c5.01,5.01,8.4731,8.9333,10.6782,11.0721c6.2265,6.2265,6.2265,16.3217,0,22.5483 s-16.1868,6.2579-22.4133,0.0314L13.1717,43.9976c-2.8935-2.8935,1.1791-6.8155,3.4228-4.5718l9.8594,10.043l-8.5742-8.7339 l-4.5079-4.5918c-3.7489-3.7489,1.5155-7.6739,4.0062-5.1832c-4.9957-4.9957,0.5147-8.5621,3.3047-5.7722l13.3909,13.3909"/></g><g id="line"><path fill="none" stroke="#000" stroke-linecap="round" stroke-linejoin="round" stroke-miterlimit="10" stroke-width="2" d="M13.1717,43.9976"/><path fill="none" stroke="#000" stroke-linecap="round" stroke-linejoin="round" stroke-miterlimit="10" stroke-width="2" d="M22.7484,27.2535c-3.1923-3.1923,1.6882-7.6885,4.2795-5.0972l16.3092,16.3092l-3.4575-3.4575 c-1.1612-2.8574-0.8089-7.4235,2.2659-7.4235c5.01,5.01,8.4731,8.9333,10.6782,11.0721c6.2265,6.2265,6.2265,16.3217,0,22.5483 s-16.1868,6.2579-22.4133,0.0314L13.1717,43.9976c-2.8935-2.8935,1.1791-6.8155,3.4228-4.5718l9.8594,10.043l-8.5742-8.7339 l-4.5079-4.5918c-3.7489-3.7489,1.5155-7.6739,4.0062-5.1832c-4.9957-4.9957,0.5147-8.5621,3.3047-5.7722l13.3909,13.3909"/><line x1="20.36" x2="20.641" y1="18.341" y2="20.171" fill="none" stroke="#000" stroke-linecap="round" stroke-linejoin="round" stroke-miterlimit="10" stroke-width="2"/><line x1="15.408" x2="14.06" y1="12.91" y2="6.624" fill="none" stroke="#000" stroke-linecap="round" stroke-linejoin="round" stroke-miterlimit="10" stroke-width="2"/><line x1="12.507" x2="6.592" y1="18.505" y2="21.026" fill="none" stroke="#000" stroke-linecap="round" stroke-linejoin="round" stroke-miterlimit="10" stroke-width="2"/><line x1="13.653" x2="9.214" y1="15.52" y2="13.219" fill="none" stroke="#000" stroke-linecap="round" stroke-linejoin="round" stroke-miterlimit="10" stroke-width="2"/><line x1="54.532" x2="54.27" y1="14.497" y2="8.073" fill="none" stroke="#000" stroke-linecap="round" stroke-linejoin="round" stroke-miterlimit="10" stroke-width="2"/><line x1="58.736" x2="65.092" y1="19.193" y2="20.16" fill="none" stroke="#000" stroke-linecap="round" stroke-linejoin="round" stroke-miterlimit="10" stroke-width="2"/><line x1="56.882" x2="60.607" y1="16.588" y2="13.252" fill="none" stroke="#000" stroke-linecap="round" stroke-linejoin="round" stroke-miterlimit="10" stroke-width="2"/><line x1="29.917" x2="16.835" y1="43.743" y2="30.417" fill="none" stroke="#000" stroke-linecap="round" stroke-linejoin="round" stroke-miterlimit="10" stroke-width="2"/><line x1="34.074" x2="20.683" y1="38.579" y2="25.188" fill="none" stroke="#000" stroke-linecap="round" stroke-linejoin="round" stroke-miterlimit="10" stroke-width="2"/><path fill="none" stroke="#000" stroke-linecap="round" stroke-linejoin="round" stroke-miterlimit="10" stroke-width="2" d="M13.1717,43.9976c-2.8935-2.8935,1.1791-6.8155,3.4228-4.5718l9.8594,10.043"/><path fill="none" stroke="#000" stroke-linecap="round" stroke-linejoin="round" stroke-miterlimit="10" stroke-width="2" d="M13.3717,36.1431c-3.7489-3.7489,1.5155-7.6739,4.0062-5.1832"/><path fill="none" stroke="#000" stroke-linecap="round" stroke-linejoin="round" stroke-miterlimit="10" stroke-width="2" d="M20.6826,25.1877c-2.79-2.79-8.3004,0.7764-3.3047,5.7722"/><path fill="none" stroke="#000" stroke-linecap="round" stroke-linejoin="round" stroke-miterlimit="10" stroke-width="2" d="M52.8236,38.6567c-2.2051-2.1389-5.6682-6.0622-10.6782-11.0721c-3.0748,0-3.4271,4.5661-2.2659,7.4235l3.4575,3.4575 L27.0279,22.1564c-2.5914-2.5914-7.4718,1.9049-4.2795,5.0972"/><path fill="none" stroke="#000" stroke-linecap="round" stroke-linejoin="round" stroke-miterlimit="10" stroke-width="2" d="M13.1717,43.9976"/><line x1="13.372" x2="17.88" y1="36.143" y2="40.735" fill="none" stroke="#000" stroke-linecap="round" stroke-linejoin="round" stroke-miterlimit="10" stroke-width="2"/><path fill="none" stroke="#000" stroke-linecap="round" stroke-linejoin="round" stroke-miterlimit="10" stroke-width="2" d="M12.2112,40.793"/><path fill="none" stroke="#000" stroke-linecap="round" stroke-linejoin="round" stroke-miterlimit="10" stroke-width="2" d="M52.8236,38.6567c6.2265,6.2265,6.2265,16.3217,0,22.5483s-16.1868,6.2579-22.4133,0.0314"/><line x1="13.172" x2="30.41" y1="43.998" y2="61.236" fill="none" stroke="#000" stroke-linecap="round" stroke-linejoin="round" stroke-miterlimit="10" stroke-width="2"/><line x1="33.387" x2="31.348" y1="23.706" y2="9.559" fill="none" stroke="#000" stroke-linecap="round" stroke-linejoin="round" stroke-miterlimit="10" stroke-width="2"/><line x1="40.079" x2="37.543" y1="24.619" y2="7.619" fill="none" stroke="#000" stroke-linecap="round" stroke-linejoin="round" stroke-miterlimit="10" stroke-width="2"/><path fill="none" stroke="#000" stroke-linecap="round" stroke-linejoin="round" stroke-miterlimit="10" stroke-width="2" d="M20.3603,18.3415c-0.6213-4.0446,4.9823-4.7977,5.4641-1.6614l0.2215,1.702"/><path fill="none" stroke="#000" stroke-linecap="round" stroke-linejoin="round" stroke-miterlimit="10" stroke-width="2" d="M25.1679,12.127c-0.805-5.2403,5.7614-5.2907,6.2962-1.8092"/><path fill="none" stroke="#000" stroke-linecap="round" stroke-linejoin="round" stroke-miterlimit="10" stroke-width="2" d="M37.5431,7.6188c-0.5991-3.8999-7.1517-4.2841-6.079,2.6991"/><path fill="none" stroke="#000" stroke-linecap="round" stroke-linejoin="round" stroke-miterlimit="10" stroke-width="2" d="M55.3349,36.5565c-0.5127-3.0289-0.8291-7.3059-1.9048-14.3089c-2.4791-1.8189-5.4643,1.6542-6.2183,4.6449L44.4524,8.9283 c-0.5564-3.6223-7.1511-2.8841-6.4657,1.5781"/><path fill="none" stroke="#000" stroke-linecap="round" stroke-linejoin="round" stroke-miterlimit="10" stroke-width="2" d="M20.3603,18.3415"/><line x1="25.168" x2="25.944" y1="12.127" y2="17.572" fill="none" stroke="#000" stroke-linecap="round" stroke-linejoin="round" stroke-miterlimit="10" stroke-width="2"/><path fill="none" stroke="#000" stroke-linecap="round" stroke-linejoin="round" stroke-miterlimit="10" stroke-width="2" d="M21.4816,15.1896"/><line x1="20.36" x2="20.641" y1="18.341" y2="20.171" fill="none" stroke="#000" stroke-linecap="round" stroke-linejoin="round" stroke-miterlimit="10" stroke-width="2"/><line x1="15.408" x2="14.06" y1="12.91" y2="6.624" fill="none" stroke="#000" stroke-linecap="round" stroke-linejoin="round" stroke-miterlimit="10" stroke-width="2"/><line x1="12.507" x2="6.592" y1="18.505" y2="21.026" fill="none" stroke="#000" stroke-linecap="round" stroke-linejoin="round" stroke-miterlimit="10" stroke-width="2"/><line x1="13.653" x2="9.214" y1="15.52" y2="13.219" fill="none" stroke="#000" stroke-linecap="round" stroke-linejoin="round" stroke-miterlimit="10" stroke-width="2"/><line x1="54.532" x2="54.27" y1="14.497" y2="8.073" fill="none" stroke="#000" stroke-linecap="round" stroke-linejoin="round" stroke-miterlimit="10" stroke-width="2"/><line x1="58.736" x2="65.092" y1="19.193" y2="20.16" fill="none" stroke="#000" stroke-linecap="round" stroke-linejoin="round" stroke-miterlimit="10" stroke-width="2"/><line x1="56.882" x2="60.607" y1="16.588" y2="13.252" fill="none" stroke="#000" stroke-linecap="round" stroke-linejoin="round" stroke-miterlimit="10" stroke-width="2"/></g></svg>