<svg xmlns="http://www.w3.org/2000/svg" id="emoji" viewBox="0 0 72 72"><g id="color"><path fill="#61B2E4" stroke="none" stroke-linecap="round" stroke-linejoin="round" stroke-miterlimit="10" stroke-width="2" d="M36,24.6438L29.4165,16V4h-5.5052v12c0,6.0279,4.0037,19.9583,4.0037,19.9583L16,67.9792h20h20L44.0849,35.9583 c0,0,4.0037-13.9304,4.0037-19.9583V4h-5.5052v12L36,24.6438z"/></g><g id="line"><path fill="none" stroke="#000" stroke-linecap="round" stroke-linejoin="round" stroke-miterlimit="10" stroke-width="2" d="M36,24.6438L29.4165,16V4h-5.5052v12c0,6.0279,4.0037,19.9583,4.0037,19.9583L16,67.9792h20h20L44.0849,35.9583 c0,0,4.0037-13.9304,4.0037-19.9583V4h-5.5052v12L36,24.6438z"/><line x1="31.682" x2="40.326" y1="35.958" y2="35.958" fill="none" stroke="#000" stroke-linecap="round" stroke-linejoin="round" stroke-miterlimit="10" stroke-width="2"/></g></svg>