<svg xmlns="http://www.w3.org/2000/svg" id="emoji" viewBox="0 0 72 72"><g id="color"><path fill="#A57939" stroke="none" d="M7.6821,50.4643C5.4335,48.6114,4,45.8052,4,42.6642c0-2.7896,1.1307-12.3151,2.9588-14.1432 c0,0,16.4385,9.1248,29.0454,0L48.478,36c0,0,6.7551,0.8268,11.6292,1.2555c4.8929,0.4303,6.6336,4.931,6.6336,7.6336 c0,8.6515-13.338,7.2227-20.0644,6.8554c-3.7068-0.2024-9.1385-0.499-13.2682-0.7245l-20.7127-0.3202L7.6821,50.4643z"/><path fill="#A57939" stroke="#A57939" stroke-miterlimit="10" stroke-width="2" d="M7.6821,50.4643 C5.4335,48.6114,4,45.8052,4,42.6642c0-2.7896,1.1307-12.3151,2.9588-14.1432c0,0,16.4385,9.1248,29.0454,0L48.478,36 c0,0,6.7551,0.8268,11.6292,1.2555c4.8929,0.4303,6.6336,4.931,6.6336,7.6336c0,8.6515-13.338,7.2227-20.0644,6.8554 c-3.7068-0.2024-9.1385-0.499-13.2682-0.7245L7.6821,50.4643z"/><rect width="16.544" height="3.3" x="11" y="50.7" fill="#3F3F3F" stroke="none" stroke-linecap="round" stroke-linejoin="round" stroke-miterlimit="10" stroke-width="2"/></g><g id="line"><path fill="none" stroke="#000" stroke-linecap="round" stroke-linejoin="round" stroke-miterlimit="10" stroke-width="2" d="M7.6821,50.4643C5.4335,48.6114,4,45.8052,4,42.6642c0-2.7896,1.1307-12.3151,2.9588-14.1432c0,0,16.4385,9.1248,29.0454,0 L48.478,36c0,0,6.7551,0.8268,11.6292,1.2555c4.8929,0.4303,6.6336,4.931,6.6336,7.6336c0,8.6515-13.338,7.2227-20.0644,6.8554 c-3.7068-0.2024-9.1385-0.499-13.2682-0.7245"/><rect width="16.544" height="3.3" x="11" y="50.7" fill="none" stroke="#000" stroke-linecap="round" stroke-linejoin="round" stroke-miterlimit="10" stroke-width="2"/><line x1="37.097" x2="34.328" y1="33.385" y2="35.296" fill="none" stroke="#000" stroke-linecap="round" stroke-linejoin="round" stroke-miterlimit="10" stroke-width="2"/><line x1="40.663" x2="37.893" y1="35.248" y2="37.159" fill="none" stroke="#000" stroke-linecap="round" stroke-linejoin="round" stroke-miterlimit="10" stroke-width="2"/><line x1="44.227" x2="41.458" y1="37.111" y2="39.023" fill="none" stroke="#000" stroke-linecap="round" stroke-linejoin="round" stroke-miterlimit="10" stroke-width="2"/></g></svg>