<svg xmlns="http://www.w3.org/2000/svg" id="emoji" version="1.1" viewBox="0 0 72 72"><g id="color"><rect width="64" height="7.267" x="4" y="51.624" fill="#FFF"/><path fill="#FFF" d="M24.0332,33.812"/><path fill="#FFF" d="M36.0042,16"/><circle cx="35.996" cy="16.008" r="5" fill="#FFF"/><rect width="64" height="7.267" x="4" y="51.624" fill="#F1B31C"/><path fill="#FFF" d="M24.0332,33.812"/><path fill="#FFF" d="M36.0042,16"/><path fill="#FCEA2B" d="M7,11c2.7614,0,5,2.2386,5,5s-2.2386,5-5,5"/><path fill="#FCEA2B" d="M65,21c-2.7614,0-5-2.2386-5-5s2.2386-5,5-5"/><path fill="#FCEA2B" d="M64.9674,17.4945c0,9.0811-7.3617,16.4428-16.4428,16.4428H48.238 c-9.0811,0-11.4428-7.3617-11.4428-16.4428h-2.0738c0,9.0811-2.3617,16.4428-11.4428,16.4428h0.1643 c-5.3121,0-10.0359-2.519-13.0419-6.4277C8.2681,24.7363,7,21.2635,7,17.4945V11v40.624h58V11"/><circle cx="35.996" cy="16.008" r="5" fill="#FCEA2B"/></g><g id="line"><rect width="64" height="7.267" x="4" y="51.624" fill="none" stroke="#000" stroke-linecap="round" stroke-linejoin="round" stroke-miterlimit="10" stroke-width="2"/><path fill="none" stroke="#000" stroke-linecap="round" stroke-linejoin="round" stroke-miterlimit="10" stroke-width="2" d="M24.0332,33.812"/><path fill="none" stroke="#000" stroke-linecap="round" stroke-linejoin="round" stroke-miterlimit="10" stroke-width="2" d="M36.0042,16"/><polyline fill="none" stroke="#000" stroke-linecap="round" stroke-linejoin="round" stroke-miterlimit="10" stroke-width="2" points="7 11 7 51.624 65 51.624 65 11"/><path fill="none" stroke="#000" stroke-linecap="round" stroke-linejoin="round" stroke-miterlimit="10" stroke-width="2" d="M7,11c2.7614,0,5,2.2386,5,5s-2.2386,5-5,5"/><path fill="none" stroke="#000" stroke-linecap="round" stroke-linejoin="round" stroke-miterlimit="10" stroke-width="2" d="M23.4428,33.9373c-5.3121,0-10.0359-2.519-13.0419-6.4277C8.2681,24.7363,7,21.2635,7,17.4945"/><path fill="none" stroke="#000" stroke-linecap="round" stroke-linejoin="round" stroke-miterlimit="10" stroke-width="2" d="M64.9674,17.4945c0,9.0811-7.3617,16.4428-16.4428,16.4428"/><path fill="none" stroke="#000" stroke-linecap="round" stroke-linejoin="round" stroke-miterlimit="10" stroke-width="2" d="M48.238,33.9373"/><path fill="none" stroke="#000" stroke-linecap="round" stroke-linejoin="round" stroke-miterlimit="10" stroke-width="2" d="M23.2786,33.9373"/><circle cx="35.996" cy="16.008" r="5" fill="none" stroke="#000" stroke-linecap="round" stroke-linejoin="round" stroke-miterlimit="10" stroke-width="2"/><path fill="none" stroke="#000" stroke-linecap="round" stroke-linejoin="round" stroke-miterlimit="10" stroke-width="2" d="M65,21c-2.7614,0-5-2.2386-5-5s2.2386-5,5-5"/><rect width="64" height="7.267" x="4" y="51.624" fill="none" stroke="#000" stroke-linecap="round" stroke-linejoin="round" stroke-miterlimit="10" stroke-width="2"/><path fill="none" stroke="#000" stroke-linecap="round" stroke-linejoin="round" stroke-miterlimit="10" stroke-width="2" d="M24.0332,33.812"/><path fill="none" stroke="#000" stroke-linecap="round" stroke-linejoin="round" stroke-miterlimit="10" stroke-width="2" d="M36.0042,16"/><path fill="none" stroke="#000" stroke-linecap="round" stroke-linejoin="round" stroke-miterlimit="10" stroke-width="2" d="M7,11c2.7614,0,5,2.2386,5,5s-2.2386,5-5,5"/><path fill="none" stroke="#000" stroke-linecap="round" stroke-linejoin="round" stroke-miterlimit="10" stroke-width="2" d="M65,21c-2.7614,0-5-2.2386-5-5s2.2386-5,5-5"/><path fill="none" stroke="#000" stroke-linecap="round" stroke-linejoin="round" stroke-miterlimit="10" stroke-width="2" d="M34.597,20.8744c-0.5876,7.4597-3.3959,13.0629-11.3184,13.0629h0.1643c-5.3121,0-10.0359-2.519-13.0419-6.4277 C8.2681,24.7363,7,21.2635,7,17.4945V11v40.624h58V11"/><path fill="none" stroke="#000" stroke-linecap="round" stroke-linejoin="round" stroke-miterlimit="10" stroke-width="2" d="M64.9674,17.4945c0,9.0811-7.3617,16.4428-16.4428,16.4428H48.238c-7.9061,0-10.7191-5.5799-11.3147-13.0163"/><circle cx="35.996" cy="16.008" r="5" fill="none" stroke="#000" stroke-linecap="round" stroke-linejoin="round" stroke-miterlimit="10" stroke-width="2"/></g></svg>