<svg xmlns="http://www.w3.org/2000/svg" id="emoji" viewBox="0 0 72 72"><g id="color"><path fill="#F1B31C" stroke="#F1B31C" stroke-miterlimit="10" stroke-width="1.8" d="M30.4261,32.0382 C32.5596,14.9829,47.519,9.4299,47.519,9.4299l14.8565,7.1733l0.1213,20.7757h-8.1556V22.0555l-4.1926,13.9028l2.9151,31.0208 l-15,1l-15-1l2.9151-31.0208l-5.07-13.9028v14.9061h-8.7225V17l14.8565-7.1733c0,0,2.4071-0.053,5.4619,2.1273 c0,0,5.1203,3.6409,5.1203,4.046"/></g><g id="line"><polyline fill="none" stroke="#000" stroke-linecap="round" stroke-linejoin="round" stroke-miterlimit="10" stroke-width="2" points="25.979 35.958 22.064 67.979 38.064 67.979 54.064 67.979 50.149 35.958"/><line x1="33.746" x2="42.39" y1="35.958" y2="35.958" fill="none" stroke="#000" stroke-linecap="round" stroke-linejoin="round" stroke-miterlimit="10" stroke-width="2"/><path fill="none" stroke="#000" stroke-linecap="round" stroke-linejoin="round" stroke-miterlimit="10" stroke-width="2" d="M54.3412,22.0555v15.9061h8.7225V16L48.2072,8.8267c0,0-15.6476,6.1562-17.7811,23.2115"/><path fill="none" stroke="#000" stroke-linecap="round" stroke-linejoin="round" stroke-miterlimit="10" stroke-width="2" d="M20.9088,22.0555v15.9061h-8.7225V16l14.8565-7.1733c0,0,2.4071,0.947,5.4619,3.1273"/><line x1="33.746" x2="42.39" y1="35.958" y2="35.958" fill="none" stroke="#000" stroke-linecap="round" stroke-linejoin="round" stroke-miterlimit="10" stroke-width="2"/></g></svg>