<svg xmlns="http://www.w3.org/2000/svg" id="emoji" viewBox="0 0 72 72"><g id="color"><path fill="#A57939" stroke="#A57939" stroke-miterlimit="10" stroke-width="2" d="M36,16c11.0457,0,20,8.9543,20,20v10.0481 v4.7459H16v-4.7459V36C16,24.9543,24.9543,16,36,16"/><polygon fill="#B1CC33" stroke="none" stroke-linecap="round" stroke-linejoin="round" stroke-miterlimit="10" stroke-width="2" points="62.138 46.114 46.614 38.402 31.09 46.114 31.09 30.69 46.614 38.402 62.138 30.69"/></g><g id="line"><path fill="none" stroke="#000" stroke-linecap="round" stroke-linejoin="round" stroke-miterlimit="10" stroke-width="2" d="M56,43.0481"/><line x1="4" x2="68" y1="50.794" y2="50.794" fill="none" stroke="#000" stroke-linecap="round" stroke-linejoin="round" stroke-miterlimit="10" stroke-width="2"/><polygon fill="none" stroke="#000" stroke-linecap="round" stroke-linejoin="round" stroke-miterlimit="10" stroke-width="2" points="62.138 46.114 46.614 38.402 31.09 46.114 31.09 30.69 46.614 38.402 62.138 30.69"/><path fill="none" stroke="#000" stroke-linecap="round" stroke-linejoin="round" stroke-miterlimit="10" stroke-width="2" d="M16,46.0481V36c0-11.0457,8.9543-20,20-20c8.4569,0,15.6878,5.2488,18.6127,12.6665"/></g></svg>