<svg xmlns="http://www.w3.org/2000/svg" id="emoji" viewBox="0 0 72 72"><g id="color"><polyline fill="#6A462F" stroke="none" points="9.369 49.906 10.043 60.958 19.888 61.229 21.082 50.176"/><polyline fill="#6A462F" stroke="none" stroke-linecap="round" stroke-linejoin="round" stroke-miterlimit="10" stroke-width="2" points="10.369 52.98 11.043 60.958 18.882 60.958 19.556 54.724"/><path fill="#A57939" stroke="none" stroke-linecap="round" stroke-linejoin="round" stroke-miterlimit="10" stroke-width="2" d="M50.3692,52.6627c5.0161,0.1894,5,8.2957,5,8.2957H30.3735l-8.5938-11.0526H10.3692c1.0244-3.1706,5.4677-8.176,6.5615-11.8457 c3.613-12.1211-7.7259-27.1017-7.7259-27.1017C21.6159,1.0211,41.6484,4,41.6484,4s-5.2797,8.2972-6.2792,22.5752 c-1.0161,14.5157-0.0139,18.8882,3.2856,22.9289C41.9544,53.5448,45.3531,52.4733,50.3692,52.6627z"/><line x1="22.278" x2="26.036" y1="9.14" y2="25.313" fill="#A57939" stroke="none" stroke-linecap="round" stroke-linejoin="round" stroke-miterlimit="10" stroke-width="2"/></g><g id="line"><polyline fill="none" stroke="#000" stroke-linecap="round" stroke-linejoin="round" stroke-miterlimit="10" stroke-width="2" points="10.369 52.98 11.043 60.958 18.882 60.958 19.556 54.724"/><path fill="none" stroke="#000" stroke-linecap="round" stroke-linejoin="round" stroke-miterlimit="10" stroke-width="2" d="M50.3692,52.6627c5.0161,0.1894,5,8.2957,5,8.2957H30.3735l-8.5938-11.0526H10.3692c1.0244-3.1706,5.4677-8.176,6.5615-11.8457 c3.613-12.1211-7.7259-27.1017-7.7259-27.1017C21.6159,1.0211,41.6484,4,41.6484,4s-5.2797,8.2972-6.2792,22.5752 c-1.0161,14.5157-0.0139,18.8882,3.2856,22.9289C41.9544,53.5448,45.3531,52.4733,50.3692,52.6627z"/><line x1="22.278" x2="26.036" y1="9.14" y2="25.313" fill="none" stroke="#000" stroke-linecap="round" stroke-linejoin="round" stroke-miterlimit="10" stroke-width="2"/></g></svg>