<svg xmlns="http://www.w3.org/2000/svg" id="emoji" version="1.1" viewBox="0 0 72 72"><g id="color"><path fill="#61B2E4" d="M45.8743,51.5138"/><polygon fill="#61B2E4" points="56.377 11.98 16.377 11.98 4 23.348 36 64.084 68 23.348"/><polyline fill="#92D3F5" points="37.37 62.336 55.749 23.348 36 11.98 56.377 11.98 68 23.348 37.37 62.336"/></g><g id="line"><path fill="none" stroke="#000" stroke-linecap="round" stroke-linejoin="round" stroke-miterlimit="10" stroke-width="2" d="M45.8743,51.5138"/><polygon fill="none" stroke="#000" stroke-linecap="round" stroke-linejoin="round" stroke-miterlimit="10" stroke-width="2" points="56.377 11.98 16.377 11.98 4 23.348 36 64.084 68 23.348"/><polyline fill="none" stroke="#000" stroke-linecap="round" stroke-linejoin="round" stroke-miterlimit="10" stroke-width="2" points="55.749 23.86 36 64.084 36 24.348 36 11.98 16.256 23.348"/><line x1="16.256" x2="36.004" y1="23.86" y2="64.084" fill="none" stroke="#000" stroke-linecap="round" stroke-linejoin="round" stroke-miterlimit="10" stroke-width="2"/><path stroke="#000" stroke-linecap="round" stroke-linejoin="round" stroke-miterlimit="10" stroke-width="2" d="M36,23.3482"/><line x1="4" x2="68" y1="23.348" y2="23.348" fill="none" stroke="#000" stroke-linecap="round" stroke-linejoin="round" stroke-miterlimit="10" stroke-width="2"/><line x1="36" x2="55.749" y1="11.98" y2="23.348" fill="none" stroke="#000" stroke-linecap="round" stroke-linejoin="round" stroke-miterlimit="10" stroke-width="2"/><polygon fill="none" stroke="#000" stroke-linecap="round" stroke-linejoin="round" stroke-miterlimit="10" stroke-width="2" points="56.377 11.98 16.377 11.98 4 23.348 36 64.084 68 23.348"/></g></svg>