<svg xmlns="http://www.w3.org/2000/svg" id="emoji" viewBox="0 0 72 72"><g id="color"><path fill="#FFA7C0" d="M60.5,25c0-7.4438-6.0557-13.5-13.5-13.5c-4.4033,0-8.4844,2.1377-11,5.6724 C33.4844,13.6377,29.4038,11.5,25,11.5c-7.4438,0-13.5,6.0562-13.5,13.5c0,2.7285,0.8403,5.4082,2.3833,7.6504l-0.0347,0.0273 l20.866,25.8619h2.5708l20.2273-25.0695l0.668-0.8369l-0.0352-0.0244C59.6699,30.3755,60.5,27.7119,60.5,25z"/><polyline fill="#61B2E4" points="19.821 52.179 20.096 58.904 14.107 64.893 13.832 58.168 19.821 52.179"/><polyline fill="#92D3F5" points="7.882 57.668 14.332 57.668 20.321 51.679 13.871 51.679 7.882 57.668"/><polygon fill="#92D3F5" points="68.18 3.628 66.924 8.48 65.669 13.331 62.073 9.735 58.477 6.139 63.328 4.884"/></g><g id="line"><g id="line_1_"><path fill="none" stroke="#000" stroke-linecap="round" stroke-linejoin="round" stroke-miterlimit="10" stroke-width="2" d="M28.2632,48.9508L36,58.5397l20.7339-25.6975l-0.0043-0.0034C58.4597,30.6942,59.5,27.9699,59.5,25 c0-6.9036-5.5964-12.5-12.5-12.5c-4.7533,0-8.8861,2.6536-11,6.5598C33.8861,15.1536,29.7533,12.5,25,12.5 c-6.9036,0-12.5,5.5964-12.5,12.5c0,2.9699,1.0403,5.6942,2.7703,7.8387l-0.0043,0.0034l7.8527,9.7326"/></g><line x1="34.5" x2="21" y1="37.5" y2="51" fill="none" stroke="#000" stroke-linecap="round" stroke-linejoin="round" stroke-miterlimit="10" stroke-width="2"/><line x1="62.092" x2="58" y1="9.908" y2="14" fill="none" stroke="#000" stroke-linecap="round" stroke-linejoin="round" stroke-miterlimit="10" stroke-width="2"/><polygon fill="none" stroke="#000" stroke-linecap="round" stroke-linejoin="round" stroke-miterlimit="10" stroke-width="2" points="20.596 51.454 13.646 51.454 7.193 57.907 14.143 57.907 14.143 64.857 20.596 58.404"/><polygon fill="none" stroke="#000" stroke-linecap="round" stroke-linejoin="round" stroke-miterlimit="10" stroke-width="2" points="68.18 3.628 66.924 8.48 65.669 13.331 62.073 9.735 58.477 6.139 63.328 4.884"/></g></svg>