<svg xmlns="http://www.w3.org/2000/svg" id="emoji" viewBox="0 0 72 72"><g id="line"><line x1="59.183" x2="13.183" y1="46.059" y2="46.059" fill="none" stroke="#000" stroke-linecap="round" stroke-linejoin="round" stroke-miterlimit="10" stroke-width="4"/><line x1="59.183" x2="13.183" y1="54.059" y2="54.059" fill="none" stroke="#000" stroke-linecap="round" stroke-linejoin="round" stroke-miterlimit="10" stroke-width="4"/><path fill="none" stroke="#000" stroke-linecap="round" stroke-linejoin="round" stroke-miterlimit="10" stroke-width="4" d="M32.9833,37.0046L32.9833,37.0046c-3.4677,0-6.2789-2.8112-6.2789-6.2789V20.3382c0-3.4677,2.8112-6.2792,6.2789-6.2792l0,0 c3.4681,0,6.2792,2.8115,6.2792,6.2792v10.3875C39.2625,34.1934,36.4513,37.0046,32.9833,37.0046z"/><path fill="none" stroke="#000" stroke-linecap="round" stroke-linejoin="round" stroke-miterlimit="10" stroke-width="4" d="M52.9092,37.0046L52.9092,37.0046c-3.4677,0-6.2789-2.8112-6.2789-6.2789V20.3382c0-3.4677,2.8112-6.2792,6.2789-6.2792l0,0 c3.4681,0,6.2792,2.8115,6.2792,6.2792v10.3875C59.1884,34.1934,56.3773,37.0046,52.9092,37.0046z"/><polyline fill="none" stroke="#000" stroke-linecap="round" stroke-linejoin="round" stroke-miterlimit="10" stroke-width="4" points="12.984 18.885 19.337 14.126 19.337 37.072"/></g><g id="color-foreground"><line x1="59.183" x2="13.183" y1="46.059" y2="46.059" fill="none" stroke="#D22F27" stroke-linecap="round" stroke-linejoin="round" stroke-miterlimit="10" stroke-width="4.1"/><line x1="59.183" x2="13.183" y1="54.059" y2="54.059" fill="none" stroke="#D22F27" stroke-linecap="round" stroke-linejoin="round" stroke-miterlimit="10" stroke-width="4.1"/><path fill="none" stroke="#D22F27" stroke-linecap="round" stroke-linejoin="round" stroke-miterlimit="10" stroke-width="4.1" d="M32.9833,37.0046L32.9833,37.0046c-3.4677,0-6.2789-2.8112-6.2789-6.2789V20.3382c0-3.4677,2.8112-6.2792,6.2789-6.2792l0,0 c3.4681,0,6.2792,2.8115,6.2792,6.2792v10.3875C39.2625,34.1934,36.4513,37.0046,32.9833,37.0046z"/><path fill="none" stroke="#D22F27" stroke-linecap="round" stroke-linejoin="round" stroke-miterlimit="10" stroke-width="4.1" d="M52.9092,37.0046L52.9092,37.0046c-3.4677,0-6.2789-2.8112-6.2789-6.2789V20.3382c0-3.4677,2.8112-6.2792,6.2789-6.2792l0,0 c3.4681,0,6.2792,2.8115,6.2792,6.2792v10.3875C59.1884,34.1934,56.3773,37.0046,52.9092,37.0046z"/><polyline fill="none" stroke="#D22F27" stroke-linecap="round" stroke-linejoin="round" stroke-miterlimit="10" stroke-width="4.1" points="12.984 18.885 19.337 14.126 19.337 37.072"/></g></svg>