<svg xmlns="http://www.w3.org/2000/svg" id="emoji" viewBox="0 0 72 72"><g id="color"><rect width="11" height="15.556" x="43" y="15.721" fill="#9B9B9A" transform="matrix(0.7071 -0.7071 0.7071 0.7071 -2.4114 41.1773)"/><polygon fill="#3F3F3F" points="46.034 22.212 50.512 17.734 57.889 25.111 52.522 30.478"/><circle cx="31.769" cy="40.404" r="23" fill="#9B9B9A"/><path fill="#3F3F3F" d="M19.6333,55.7374c12.7025,0,23-10.2975,23-23c0-5.5327-1.9548-10.6081-5.2097-14.5762 c9.8615,2.5932,17.1357,11.5674,17.1357,22.2428c0,12.7025-10.2975,23-23,23c-7.1697,0-13.5723-3.2816-17.7903-8.4237 C15.6416,55.4725,17.6063,55.7374,19.6333,55.7374z"/></g><g id="line"><polyline fill="none" stroke="#000" stroke-linecap="round" stroke-linejoin="round" stroke-miterlimit="10" stroke-width="2" points="41.46 19.539 46.889 14.111 57.889 25.11 52.522 30.477"/><circle cx="31.769" cy="40.404" r="23" fill="none" stroke="#000" stroke-linecap="round" stroke-linejoin="round" stroke-miterlimit="10" stroke-width="2"/><line x1="55.757" x2="64.243" y1="16.243" y2="7.757" fill="none" stroke="#000" stroke-linecap="round" stroke-linejoin="round" stroke-miterlimit="10" stroke-width="2"/></g></svg>