<svg xmlns="http://www.w3.org/2000/svg" id="emoji" viewBox="0 0 72 72"><g id="color"><rect width="50" height="50" x="11" y="10.958" fill="#3F3F3F" stroke="none" stroke-linecap="round" stroke-linejoin="round" stroke-miterlimit="10" stroke-width="2"/><path fill="#D0CFCE" stroke="none" stroke-linecap="round" stroke-linejoin="round" stroke-miterlimit="10" stroke-width="2" d="M52.5498,47.1172c-3.5867,5.309-9.6606,8.7994-16.5498,8.7994c-11.0227,0-19.9583-8.9356-19.9583-19.9583S24.9773,16,36,16 c6.8569,0,12.9061,3.4578,16.4992,8.7249"/><circle cx="35.927" cy="35.887" r="19.958" fill="#D0CFCE" stroke="none"/><path fill="#D0CFCE" stroke="none" d="M17.5128,26.3859c3.078-5.9375,8.9544-10.2898,16.0975-11.1214 c11.4289-1.3305,21.7725,6.8558,23.103,18.2847c1.3305,11.4289-6.8558,21.7725-18.2847,23.103 c-7.1096,0.8277-13.7992-2.0274-18.1604-7.0549"/><path fill="#D0CFCE" stroke="none" stroke-linecap="round" stroke-linejoin="round" stroke-miterlimit="10" stroke-width="2" d="M52.5498,47.0458c-3.5867,5.309-9.6606,8.7994-16.5498,8.7994c-11.0227,0-19.9583-8.9356-19.9583-19.9583 S24.9773,15.9286,36,15.9286c6.8569,0,12.9061,3.4578,16.4992,8.7249"/><circle cx="36" cy="35.958" r="5" fill="#3F3F3F" stroke="none" stroke-linecap="round" stroke-linejoin="round" stroke-miterlimit="10" stroke-width="2"/><polyline fill="#D0CFCE" stroke="none" stroke-linecap="round" stroke-linejoin="round" stroke-miterlimit="10" stroke-width="2" points="44 36.501 44 41.975 61 44.433 61 36.5 61 36.433 61 28.5 44 30.958 44 36.433"/></g><g id="line"><rect width="50" height="50" x="11" y="10.958" fill="none" stroke="#000" stroke-linecap="round" stroke-linejoin="round" stroke-miterlimit="10" stroke-width="2"/><path fill="none" stroke="#000" stroke-linecap="round" stroke-linejoin="round" stroke-miterlimit="10" stroke-width="2" d="M52.5498,47.1172c-3.5867,5.309-9.6606,8.7994-16.5498,8.7994c-11.0227,0-19.9583-8.9356-19.9583-19.9583S24.9773,16,36,16 c6.8569,0,12.9061,3.4578,16.4992,8.7249"/><path fill="none" stroke="#000" stroke-linecap="round" stroke-linejoin="round" stroke-miterlimit="10" stroke-width="2" d="M52.5498,47.0458c-3.5867,5.309-9.6606,8.7994-16.5498,8.7994c-11.0227,0-19.9583-8.9356-19.9583-19.9583 S24.9773,15.9286,36,15.9286c6.8569,0,12.9061,3.4578,16.4992,8.7249"/><circle cx="36" cy="35.958" r="5" fill="none" stroke="#000" stroke-linecap="round" stroke-linejoin="round" stroke-miterlimit="10" stroke-width="2"/><polyline fill="none" stroke="#000" stroke-linecap="round" stroke-linejoin="round" stroke-miterlimit="10" stroke-width="2" points="44 36.501 44 41.975 61 44.433 61 36.5 61 36.433 61 28.5 44 30.958 44 36.433"/></g></svg>