<svg xmlns="http://www.w3.org/2000/svg" id="emoji" viewBox="0 0 72 72"><g id="color"><path fill="#fff" d="m12.05 59.91h47.9v-47.9h-47.9z"/><path fill="#ea5a47" stroke="none" d="M30.5525,40.1841l-7.9964,12.6134l3.3386,2.2033l5.4904-8.9049c0.2539-0.4121,8.8517,2.5407,8.8517,2.5407 l10.8677-25.8022l-3.6863-1.5526l-9.3903,21.5299C37.8131,43.3215,30.5525,40.1841,30.5525,40.1841z"/></g><g id="line"><polygon fill="none" stroke="#000" stroke-linecap="round" stroke-linejoin="round" stroke-miterlimit="10" stroke-width="2" points="47.418 21.282 38.115 43.369 30.552 40.184 22.556 52.797 25.895 55.001 31.9 45.261 36.55 47.084 40.237 48.637 51.105 22.834"/><rect width="47.897" height="47.897" x="12.052" y="12.015" fill="none" stroke="#000" stroke-linecap="round" stroke-linejoin="round" stroke-miterlimit="10" stroke-width="2"/><line x1="50.069" x2="59.805" y1="36.085" y2="36.085" fill="none" stroke="#000" stroke-linecap="round" stroke-linejoin="round" stroke-miterlimit="10" stroke-width="2"/><line x1="12.739" x2="37.179" y1="36.085" y2="36.085" fill="none" stroke="#000" stroke-linecap="round" stroke-linejoin="round" stroke-miterlimit="10" stroke-width="2"/><line x1="45.024" x2="59.683" y1="47.993" y2="47.993" fill="none" stroke="#000" stroke-linecap="round" stroke-linejoin="round" stroke-miterlimit="10" stroke-width="2"/><line x1="12.739" x2="20.819" y1="47.993" y2="47.993" fill="none" stroke="#000" stroke-linecap="round" stroke-linejoin="round" stroke-miterlimit="10" stroke-width="2"/><line x1="48.133" x2="48.251" y1="40.444" y2="59.37" fill="none" stroke="#000" stroke-linecap="round" stroke-linejoin="round" stroke-miterlimit="10" stroke-width="2"/><line x1="48.033" x2="48.037" y1="12.059" y2="17.182" fill="none" stroke="#000" stroke-linecap="round" stroke-linejoin="round" stroke-miterlimit="10" stroke-width="2"/><line x1="36.184" x2="36.184" y1="51.65" y2="59.573" fill="none" stroke="#000" stroke-linecap="round" stroke-linejoin="round" stroke-miterlimit="10" stroke-width="2"/><line x1="36.184" x2="36.184" y1="12.33" y2="37.831" fill="none" stroke="#000" stroke-linecap="round" stroke-linejoin="round" stroke-miterlimit="10" stroke-width="2"/><line x1="24.225" x2="24.225" y1="58.613" y2="59.573" fill="none" stroke="#000" stroke-linecap="round" stroke-linejoin="round" stroke-miterlimit="10" stroke-width="2"/><line x1="24.225" x2="24.225" y1="11.963" y2="43.099" fill="none" stroke="#000" stroke-linecap="round" stroke-linejoin="round" stroke-miterlimit="10" stroke-width="2"/><line x1="55.184" x2="59.226" y1="24.177" y2="24.177" fill="none" stroke="#000" stroke-linecap="round" stroke-linejoin="round" stroke-miterlimit="10" stroke-width="2"/><line x1="12.264" x2="41.751" y1="24.177" y2="24.177" fill="none" stroke="#000" stroke-linecap="round" stroke-linejoin="round" stroke-miterlimit="10" stroke-width="2"/></g></svg>