<svg xmlns="http://www.w3.org/2000/svg" id="emoji" viewBox="0 0 72 72"><g id="color"><path fill="#EA5A47" stroke="none" d="M46.288,34.3932c-0.8205-1.4005-3.5756-2.5592-3.5756-2.5592l-1.0343-4.1975l-1.4782-13.0482 l-9.8551-0.6051l-0.9527,4.2373c0,0,0.0101-0.0118,0.0231-0.0265c0.152-0.3584-1.2544,12.4185-1.2544,12.4185 c-0.0635,0.3545-1.4459,1.7772-1.7857,1.8963c-2.8213,0.9893-3.0856,3.5212-3.57,4.5505l25.4157,0.0322 C48.1904,36.9485,46.9934,35.5975,46.288,34.3932z"/><polygon fill="#EA5A47" stroke="none" points="31.008 8.599 29.584 14.588 40.282 14.128 39.827 8.789"/><polygon fill="#D22F27" stroke="none" points="39.827 8.789 36.848 8.789 37.14 14.588 40.827 14.588"/><path fill="#d0cfce" stroke="none" d="M33.051,40.2346c0,0-0.0242,2.6808-0.0242,3.2335l0.3163,12.4946l2.5622,7.4335l2.1319-4.849 l0.2783-18.2953L33.051,40.2346z"/><polygon fill="#9b9b9a" stroke="none" points="35.874 62.479 38.246 55.963 38.309 41.697 38.32 40.237 35.661 40.246"/><path fill="#D22F27" stroke="none" d="M38.0116,31.834c0,0,1.4394,1.1587,2.2599,2.5592c0.7054,1.2043,1.238,2.5553,1.2684,2.6983l6.2498-0.3612 c-0.4834-1.0264-1.2141-2.9608-4.0383-3.951c-0.3398-0.1191-0.6609-0.5908-0.7244-0.9453c0,0-2.212-14.0382-2.0498-13.5879 l-0.6956-4.1179l-3.1415,0.4601L37.99,29.9786L38.0116,31.834z"/></g><g id="line"><polyline fill="none" stroke="#000" stroke-linecap="round" stroke-linejoin="round" stroke-miterlimit="10" stroke-width="2" points="33.069 41.231 33.075 56.015 35.936 63.873 38.254 55.991 38.248 41.235"/><path fill="none" stroke="#000" stroke-linecap="round" stroke-linejoin="round" stroke-miterlimit="10" stroke-width="2" d="M30.3187,18.576l-2.3773,13.26c-5.2242,1.8318-5.4803,5.4953-5.4803,5.4953h25.4502c0,0-0.2561-3.6635-5.4803-5.4953 l-2.3773-13.26"/><polygon fill="none" stroke="#000" stroke-linecap="round" stroke-linejoin="round" stroke-miterlimit="10" stroke-width="2" points="40.827 14.588 29.584 14.588 30.584 8.789 39.827 8.789"/></g></svg>