<svg xmlns="http://www.w3.org/2000/svg" id="emoji" viewBox="0 0 72 72"><g id="color"><path fill="#fff" d="m12.05 59.91h47.9v-47.9h-47.9z"/><path fill="#92d3f5" stroke="none" d="M31.2379,28.4166l-6.8898-8.6812l-2.8384,2.5491l8.7131,11.7972l6.5938-3.5617 c0.1425-0.0713,11.2762,21.2218,11.2762,21.2218l3.397-1.4527L39.0546,25.2048C39.0546,25.2048,31.5269,28.8004,31.2379,28.4166z"/></g><g id="line"><polygon fill="none" stroke="#000" stroke-linecap="round" stroke-linejoin="round" stroke-miterlimit="10" stroke-width="2" points="47.906 52.066 37.261 30.593 29.909 34.237 21.151 22.14 24.348 19.735 31.358 29.054 35.484 27.009 35.471 26.982 39.055 25.205 51.49 50.289"/><rect width="47.897" height="47.897" x="12.052" y="12.015" fill="none" stroke="#000" stroke-linecap="round" stroke-linejoin="round" stroke-miterlimit="10" stroke-width="2"/><line x1="51.839" x2="59.805" y1="36.085" y2="36.085" fill="none" stroke="#000" stroke-linecap="round" stroke-linejoin="round" stroke-miterlimit="10" stroke-width="2"/><line x1="12.739" x2="26.04" y1="36.085" y2="36.085" fill="none" stroke="#000" stroke-linecap="round" stroke-linejoin="round" stroke-miterlimit="10" stroke-width="2"/><line x1="55.207" x2="59.683" y1="47.993" y2="47.993" fill="none" stroke="#000" stroke-linecap="round" stroke-linejoin="round" stroke-miterlimit="10" stroke-width="2"/><line x1="12.739" x2="41.361" y1="47.993" y2="47.993" fill="none" stroke="#000" stroke-linecap="round" stroke-linejoin="round" stroke-miterlimit="10" stroke-width="2"/><line x1="48.234" x2="48.251" y1="56.081" y2="59.37" fill="none" stroke="#000" stroke-linecap="round" stroke-linejoin="round" stroke-miterlimit="10" stroke-width="2"/><line x1="48.033" x2="48.153" y1="12.059" y2="34.505" fill="none" stroke="#000" stroke-linecap="round" stroke-linejoin="round" stroke-miterlimit="10" stroke-width="2"/><line x1="36.184" x2="36.184" y1="38.182" y2="59.573" fill="none" stroke="#000" stroke-linecap="round" stroke-linejoin="round" stroke-miterlimit="10" stroke-width="2"/><line x1="36.184" x2="36.184" y1="12.33" y2="22.285" fill="none" stroke="#000" stroke-linecap="round" stroke-linejoin="round" stroke-miterlimit="10" stroke-width="2"/><line x1="24.225" x2="24.225" y1="33.302" y2="59.573" fill="none" stroke="#000" stroke-linecap="round" stroke-linejoin="round" stroke-miterlimit="10" stroke-width="2"/><line x1="24.225" x2="24.225" y1="12.12" y2="15.652" fill="none" stroke="#000" stroke-linecap="round" stroke-linejoin="round" stroke-miterlimit="10" stroke-width="2"/><line x1="43.255" x2="59.226" y1="24.177" y2="24.177" fill="none" stroke="#000" stroke-linecap="round" stroke-linejoin="round" stroke-miterlimit="10" stroke-width="2"/><line x1="12.264" x2="17.552" y1="24.177" y2="24.177" fill="none" stroke="#000" stroke-linecap="round" stroke-linejoin="round" stroke-miterlimit="10" stroke-width="2"/></g></svg>