<svg xmlns="http://www.w3.org/2000/svg" id="emoji" viewBox="0 0 72 72"><g id="color"><path fill="#D0CFCE" stroke="none" d="M13.5626,18.7338l34.6292,42.2421l10.5838-8.1699L24.0535,10.1925L13.5626,18.7338z"/><polygon fill="#9B9B9A" stroke="none" points="23.888 10.428 21.287 12.458 55.848 55.137 58.268 52.59"/><line x1="19.727" x2="21.279" y1="20.938" y2="19.676" fill="#d0cfce" stroke="none" stroke-linecap="round" stroke-linejoin="round" stroke-miterlimit="10" stroke-width="2"/></g><g id="line"><rect width="13.686" height="54.932" x="29.217" y="8.234" fill="none" stroke="#000" stroke-linecap="round" stroke-linejoin="round" stroke-miterlimit="10" stroke-width="2" transform="matrix(-0.7776 0.6288 -0.6288 -0.7776 86.547 40.7853)"/><line x1="47.49" x2="49.041" y1="55.073" y2="53.811" fill="none" stroke="#000" stroke-linecap="round" stroke-linejoin="round" stroke-miterlimit="10" stroke-width="2"/><line x1="44.966" x2="46.517" y1="51.97" y2="50.708" fill="none" stroke="#000" stroke-linecap="round" stroke-linejoin="round" stroke-miterlimit="10" stroke-width="2"/><line x1="42.442" x2="43.993" y1="48.867" y2="47.605" fill="none" stroke="#000" stroke-linecap="round" stroke-linejoin="round" stroke-miterlimit="10" stroke-width="2"/><line x1="37.394" x2="38.946" y1="42.66" y2="41.398" fill="none" stroke="#000" stroke-linecap="round" stroke-linejoin="round" stroke-miterlimit="10" stroke-width="2"/><line x1="34.87" x2="36.422" y1="39.557" y2="38.295" fill="none" stroke="#000" stroke-linecap="round" stroke-linejoin="round" stroke-miterlimit="10" stroke-width="2"/><line x1="32.346" x2="33.898" y1="36.454" y2="35.192" fill="none" stroke="#000" stroke-linecap="round" stroke-linejoin="round" stroke-miterlimit="10" stroke-width="2"/><line x1="29.823" x2="31.374" y1="33.351" y2="32.089" fill="none" stroke="#000" stroke-linecap="round" stroke-linejoin="round" stroke-miterlimit="10" stroke-width="2"/><line x1="24.775" x2="26.326" y1="27.144" y2="25.882" fill="none" stroke="#000" stroke-linecap="round" stroke-linejoin="round" stroke-miterlimit="10" stroke-width="2"/><line x1="22.251" x2="23.802" y1="24.041" y2="22.779" fill="none" stroke="#000" stroke-linecap="round" stroke-linejoin="round" stroke-miterlimit="10" stroke-width="2"/><line x1="19.727" x2="21.279" y1="20.938" y2="19.676" fill="none" stroke="#000" stroke-linecap="round" stroke-linejoin="round" stroke-miterlimit="10" stroke-width="2"/><line x1="39.812" x2="42.46" y1="45.85" y2="43.696" fill="none" stroke="#000" stroke-linecap="round" stroke-linejoin="round" stroke-miterlimit="10" stroke-width="2"/><line x1="27.193" x2="29.84" y1="30.334" y2="28.18" fill="none" stroke="#000" stroke-linecap="round" stroke-linejoin="round" stroke-miterlimit="10" stroke-width="2"/></g></svg>