<svg xmlns="http://www.w3.org/2000/svg" id="emoji" viewBox="0 0 72 72"><g id="color"><path fill="#FCEA2B" stroke="none" d="M60.1001,57.0799c0.5632,0,1.0198-0.4576,1.0198-1.0222V12.0344c0-0.5645-0.4566-1.0222-1.0198-1.0222 h-43.922c-0.5632,0-1.0198,0.4576-1.0198,1.0222V39.163l36.0608,17.917H60.1001z"/><path fill="#FCEA2B" stroke="none" d="M60.1214,56.0122c0.5514,0,0.9985-0.447,0.9985-0.9985v-43.003c0-0.5514-0.447-0.9985-0.9985-0.9985 h-43.003c-0.5514,0-0.9985,0.447-0.9985,0.9985v44.0015H60.1214z"/><path fill="#FCEA2B" stroke="none" stroke-linecap="round" stroke-linejoin="round" stroke-miterlimit="10" stroke-width="2" d="M16.1199,12.0107c0-0.5514,0.447-0.9985,0.9985-0.9985h43.003c0.5514,0,0.9985,0.447,0.9985,0.9985v43.003 c0,0.5514-0.447,0.9985-0.9985,0.9985"/><path fill="#F1B31C" stroke="none" stroke-linecap="round" stroke-linejoin="round" stroke-miterlimit="10" stroke-width="2" d="M55.1336,61h-43.003c-0.5514,0-0.9985-0.447-0.9985-0.9985v-5.8828V25.6668v-3.2316v-5.4367c0-0.5514,0.447-0.9985,0.9985-0.9985 h43.003c0.5514,0,0.9985,0.447,0.9985,0.9985v43.003C56.1321,60.553,55.685,61,55.1336,61z"/></g><g id="line"><path fill="none" stroke="#000" stroke-linecap="round" stroke-linejoin="round" stroke-miterlimit="10" stroke-width="2" d="M16.1199,12.0107c0-0.5514,0.447-0.9985,0.9985-0.9985h43.003c0.5514,0,0.9985,0.447,0.9985,0.9985v43.003 c0,0.5514-0.447,0.9985-0.9985,0.9985"/><path fill="none" stroke="#000" stroke-linecap="round" stroke-linejoin="round" stroke-miterlimit="10" stroke-width="2" d="M55.1336,61h-43.003c-0.5514,0-0.9985-0.447-0.9985-0.9985v-5.8828V25.6668v-3.2316v-5.4367c0-0.5514,0.447-0.9985,0.9985-0.9985 h43.003c0.5514,0,0.9985,0.447,0.9985,0.9985v43.003C56.1321,60.553,55.685,61,55.1336,61z"/><line x1="7" x2="15.712" y1="23.411" y2="23.411" fill="none" stroke="#000" stroke-linecap="round" stroke-linejoin="round" stroke-miterlimit="10" stroke-width="2"/><line x1="7" x2="15.712" y1="29.447" y2="29.447" fill="none" stroke="#000" stroke-linecap="round" stroke-linejoin="round" stroke-miterlimit="10" stroke-width="2"/><line x1="7" x2="15.712" y1="35.482" y2="35.482" fill="none" stroke="#000" stroke-linecap="round" stroke-linejoin="round" stroke-miterlimit="10" stroke-width="2"/><line x1="15.712" x2="7" y1="41.518" y2="41.518" fill="none" stroke="#000" stroke-linecap="round" stroke-linejoin="round" stroke-miterlimit="10" stroke-width="2"/><line x1="7" x2="15.712" y1="47.553" y2="47.553" fill="none" stroke="#000" stroke-linecap="round" stroke-linejoin="round" stroke-miterlimit="10" stroke-width="2"/><line x1="7" x2="15.712" y1="53.589" y2="53.589" fill="none" stroke="#000" stroke-linecap="round" stroke-linejoin="round" stroke-miterlimit="10" stroke-width="2"/></g></svg>