<svg xmlns="http://www.w3.org/2000/svg" id="emoji" viewBox="0 0 72 72"><g id="color"><path fill="#D0CFCE" stroke="none" d="M17.1601,15.9546l0.252,39.4373l38.6183-39.4373H17.1601z M22.4104,32.3907V22.1629 c0-0.208,0.0871-0.4079,0.2418-0.555c0.0773-0.0733,0.1686-0.1306,0.2678-0.1697c0.0992-0.039,0.2064-0.0597,0.3156-0.0597 c0,0,0.0001,0,0.0008,0l0,0l10.4243,0.0065c0.0828,0.0001,0.1636,0.0119,0.2402,0.0342c0.2298,0.0668,0.4223,0.2271,0.5189,0.4445 c0.0323,0.0726,0.0523,0.1479,0.0607,0.2238c0.025,0.2273-0.0554,0.4583-0.2283,0.628L23.8279,32.9369l0,0l0,0 c-0.1579,0.1555-0.3731,0.2382-0.5923,0.2382c-0.1048,0-0.2095-0.0184-0.3103-0.0574c-0.2332-0.0902-0.4063-0.2743-0.4782-0.4955 C22.4231,32.5484,22.4104,32.4706,22.4104,32.3907L22.4104,32.3907z"/><polygon fill="#9B9B9A" stroke="none" points="55.561 16.215 48.785 16.382 17.248 48.812 17.174 55.758"/><line x1="23.855" x2="22.566" y1="43.289" y2="42.046" fill="#d0cfce" stroke="none" stroke-linecap="round" stroke-linejoin="round" stroke-miterlimit="10" stroke-width="2"/><line x1="29.408" x2="28.119" y1="37.53" y2="36.287" fill="#d0cfce" stroke="none" stroke-linecap="round" stroke-linejoin="round" stroke-miterlimit="10" stroke-width="2"/><line x1="32.184" x2="30.895" y1="34.651" y2="33.408" fill="#d0cfce" stroke="none" stroke-linecap="round" stroke-linejoin="round" stroke-miterlimit="10" stroke-width="2"/><line x1="34.96" x2="33.671" y1="31.771" y2="30.528" fill="#d0cfce" stroke="none" stroke-linecap="round" stroke-linejoin="round" stroke-miterlimit="10" stroke-width="2"/><line x1="37.737" x2="36.448" y1="28.892" y2="27.649" fill="#d0cfce" stroke="none" stroke-linecap="round" stroke-linejoin="round" stroke-miterlimit="10" stroke-width="2"/><line x1="43.29" x2="42.001" y1="23.133" y2="21.89" fill="#d0cfce" stroke="none" stroke-linecap="round" stroke-linejoin="round" stroke-miterlimit="10" stroke-width="2"/><line x1="26.719" x2="24.519" y1="40.494" y2="38.373" fill="#d0cfce" stroke="none" stroke-linecap="round" stroke-linejoin="round" stroke-miterlimit="10" stroke-width="2"/><line x1="40.601" x2="38.401" y1="26.097" y2="23.976" fill="#d0cfce" stroke="none" stroke-linecap="round" stroke-linejoin="round" stroke-miterlimit="10" stroke-width="2"/></g><g id="line"><polygon fill="none" stroke="#000" stroke-linecap="round" stroke-linejoin="round" stroke-miterlimit="10" stroke-width="2" points="17.065 56.081 17.065 16.056 55.844 16.081"/><polygon fill="none" stroke="#000" stroke-linecap="round" stroke-linejoin="round" stroke-miterlimit="10" stroke-width="2" points="22.542 34.373 22.542 21.334 35.175 21.342"/><line x1="23.855" x2="22.566" y1="43.289" y2="42.046" fill="none" stroke="#000" stroke-linecap="round" stroke-linejoin="round" stroke-miterlimit="10" stroke-width="2"/><line x1="29.408" x2="28.119" y1="37.53" y2="36.287" fill="none" stroke="#000" stroke-linecap="round" stroke-linejoin="round" stroke-miterlimit="10" stroke-width="2"/><line x1="32.184" x2="30.895" y1="34.651" y2="33.408" fill="none" stroke="#000" stroke-linecap="round" stroke-linejoin="round" stroke-miterlimit="10" stroke-width="2"/><line x1="34.96" x2="33.671" y1="31.771" y2="30.528" fill="none" stroke="#000" stroke-linecap="round" stroke-linejoin="round" stroke-miterlimit="10" stroke-width="2"/><line x1="37.737" x2="36.448" y1="28.892" y2="27.649" fill="none" stroke="#000" stroke-linecap="round" stroke-linejoin="round" stroke-miterlimit="10" stroke-width="2"/><line x1="43.29" x2="42.001" y1="23.133" y2="21.89" fill="none" stroke="#000" stroke-linecap="round" stroke-linejoin="round" stroke-miterlimit="10" stroke-width="2"/><line x1="26.719" x2="24.519" y1="40.494" y2="38.373" fill="none" stroke="#000" stroke-linecap="round" stroke-linejoin="round" stroke-miterlimit="10" stroke-width="2"/><line x1="40.601" x2="38.401" y1="26.097" y2="23.976" fill="none" stroke="#000" stroke-linecap="round" stroke-linejoin="round" stroke-miterlimit="10" stroke-width="2"/></g></svg>