<svg xmlns="http://www.w3.org/2000/svg" id="emoji" viewBox="0 0 72 72"><g id="color"><path fill="#FFF" stroke="none" d="M61.7754,24.6733H14.1634c-6.1765,3.0412-0.9202,8.7233-0.9202,8.7233s-4.9227,4.5487-0.2522,8.6632 c-1.6977,3.0229-2.6689,5.0042-1.112,7.5619l25.8,6.909l24.0963-5.8538V24.6733z"/><polygon fill="#D22F27" stroke="none" points="14.07 24.468 37.636 18.221 60.907 24.545 60.919 24.591 37.636 30.916"/><line x1="37.636" x2="60.907" y1="18.221" y2="24.545" fill="#FFF" stroke="none" stroke-linecap="round" stroke-linejoin="round" stroke-miterlimit="10" stroke-width="2"/><line x1="37.636" x2="14.07" y1="18.221" y2="24.468" fill="#FFF" stroke="none" stroke-linecap="round" stroke-linejoin="round" stroke-miterlimit="10" stroke-width="2"/></g><g id="line"><line x1="15.947" x2="37.636" y1="24.818" y2="30.916" fill="none" stroke="#000" stroke-linecap="round" stroke-linejoin="round" stroke-miterlimit="10" stroke-width="2"/><line x1="37.636" x2="12.741" y1="39.112" y2="32.517" fill="none" stroke="#000" stroke-linecap="round" stroke-linejoin="round" stroke-miterlimit="10" stroke-width="2"/><line x1="37.636" x2="60.907" y1="18.221" y2="24.545" fill="none" stroke="#000" stroke-linecap="round" stroke-linejoin="round" stroke-miterlimit="10" stroke-width="2"/><line x1="60.919" x2="37.636" y1="24.591" y2="30.916" fill="none" stroke="#000" stroke-linecap="round" stroke-linejoin="round" stroke-miterlimit="10" stroke-width="2"/><line x1="37.636" x2="14.07" y1="18.221" y2="24.468" fill="none" stroke="#000" stroke-linecap="round" stroke-linejoin="round" stroke-miterlimit="10" stroke-width="2"/><line x1="60.919" x2="37.636" y1="32.788" y2="39.112" fill="none" stroke="#000" stroke-linecap="round" stroke-linejoin="round" stroke-miterlimit="10" stroke-width="2"/><path fill="none" stroke="#000" stroke-linecap="round" stroke-linejoin="round" stroke-miterlimit="10" stroke-width="2" d="M13.3847,32.6831c-1.8468-0.5568-2.8025-2.8039-2.1346-5.0192c0.6679-2.2153,2.7064-3.5598,4.5532-3.003"/><line x1="37.636" x2="12.741" y1="47.821" y2="41.226" fill="none" stroke="#000" stroke-linecap="round" stroke-linejoin="round" stroke-miterlimit="10" stroke-width="2"/><line x1="60.919" x2="37.636" y1="41.496" y2="47.821" fill="none" stroke="#000" stroke-linecap="round" stroke-linejoin="round" stroke-miterlimit="10" stroke-width="2"/><path fill="none" stroke="#000" stroke-linecap="round" stroke-linejoin="round" stroke-miterlimit="10" stroke-width="2" d="M13.3847,41.3918c-1.8468-0.5568-2.8025-2.8039-2.1346-5.0192c0.6679-2.2153,2.7064-3.5598,4.5532-3.003"/><line x1="37.679" x2="12.785" y1="56.531" y2="49.936" fill="none" stroke="#000" stroke-linecap="round" stroke-linejoin="round" stroke-miterlimit="10" stroke-width="2"/><line x1="60.963" x2="37.679" y1="50.206" y2="56.531" fill="none" stroke="#000" stroke-linecap="round" stroke-linejoin="round" stroke-miterlimit="10" stroke-width="2"/><path fill="none" stroke="#000" stroke-linecap="round" stroke-linejoin="round" stroke-miterlimit="10" stroke-width="2" d="M13.4281,50.1019c-1.8468-0.5568-2.8025-2.8039-2.1346-5.0192c0.6679-2.2153,2.7064-3.5598,4.5532-3.003"/></g></svg>