<svg xmlns="http://www.w3.org/2000/svg" id="emoji" viewBox="0 0 72 72"><g id="color"><polygon fill="#FFF" stroke="none" points="11 57.697 60 57.697 60 11.909 15.998 11.909 11.998 15.909"/><path fill="#9b9b9a" stroke="none" stroke-linecap="round" stroke-linejoin="round" stroke-miterlimit="10" stroke-width="2" d="M55.0015,60.9092h-43.003c-0.5514,0-0.9985-0.447-0.9985-0.9985v-43.003c0-0.5514,0.447-0.9985,0.9985-0.9985h43.003 c0.5514,0,0.9985,0.447,0.9985,0.9985v43.003C56,60.4621,55.553,60.9092,55.0015,60.9092z"/></g><g id="line"><path fill="none" stroke="#000" stroke-linecap="round" stroke-linejoin="round" stroke-miterlimit="10" stroke-width="2" d="M11,16.9092l4.9985-5h43.003c0.5514,0,0.9985,0.447,0.9985,0.9985v43.003c0,0.5514-0.447,0.9985-0.9985,0.9985"/><path fill="none" stroke="#000" stroke-linecap="round" stroke-linejoin="round" stroke-miterlimit="10" stroke-width="2" d="M55.0015,60.9092h-43.003c-0.5514,0-0.9985-0.447-0.9985-0.9985v-43.003c0-0.5514,0.447-0.9985,0.9985-0.9985h43.003 c0.5514,0,0.9985,0.447,0.9985,0.9985v43.003C56,60.4621,55.553,60.9092,55.0015,60.9092z"/><polyline fill="none" stroke="#000" stroke-linecap="round" stroke-linejoin="round" stroke-miterlimit="10" stroke-width="2" points="47.358 29.799 43.358 29.799 43.358 36.798 47.358 36.798"/><line x1="43.358" x2="46.358" y1="33.298" y2="33.298" fill="none" stroke="#000" stroke-linecap="round" stroke-linejoin="round" stroke-miterlimit="10" stroke-width="2"/><polyline fill="none" stroke="#000" stroke-linecap="round" stroke-linejoin="round" stroke-miterlimit="10" stroke-width="2" points="19.642 36.798 19.642 29.799 24.642 36.798 24.642 29.799"/><path fill="none" stroke="#000" stroke-linecap="round" stroke-linejoin="round" stroke-miterlimit="10" stroke-width="2" d="M30.8583,36.7985L30.8583,36.7985c-1.3807,0-2.5-1.1193-2.5-2.5v-2c0-1.3807,1.1193-2.5,2.5-2.5l0,0c1.3807,0,2.5,1.1193,2.5,2.5 v2C33.3583,35.6792,32.239,36.7985,30.8583,36.7985z"/><line x1="36.358" x2="40.358" y1="29.829" y2="29.829" fill="none" stroke="#000" stroke-linecap="round" stroke-linejoin="round" stroke-miterlimit="10" stroke-width="2"/><line x1="38.358" x2="38.358" y1="29.829" y2="36.829" fill="none" stroke="#000" stroke-linecap="round" stroke-linejoin="round" stroke-miterlimit="10" stroke-width="2"/></g></svg>