<svg xmlns="http://www.w3.org/2000/svg" id="emoji" viewBox="0 0 72 72"><g id="color"><rect width="42.438" height="47.5" x="17.563" y="12" fill="#fcea2b"/><rect width="5.948" height="47.5" x="12" y="12" fill="#f1b31c"/><rect width="42.417" height="13.813" x="17.573" y="23.876" fill="#fff"/></g><g id="line"><line x1="17" x2="17" y1="13" y2="59" fill="none" stroke="#000" stroke-linecap="round" stroke-linejoin="round" stroke-width="2"/><path fill="none" stroke="#000" stroke-linecap="round" stroke-linejoin="round" stroke-width="2" d="M62.9087,54.8149A1.986,1.986,0,0,0,64,53.0467V9.0833A2.0833,2.0833,0,0,0,61.9167,7H16.4591a4.7714,4.7714,0,0,0-3.9733,2.13h0a1.889,1.889,0,0,0,1.573,2.9349h3.8086l2.1331-.0177H59.9167v48H14.0583a1.8905,1.8905,0,0,1-1.8916-1.85V10.575"/><g><g><polyline fill="none" stroke="#000" stroke-linecap="round" stroke-linejoin="round" stroke-width="2" points="47.734 27.438 43.908 27.438 43.908 34.133 47.734 34.133"/><line x1="43.908" x2="46.778" y1="30.785" y2="30.785" fill="none" stroke="#000" stroke-linecap="round" stroke-linejoin="round" stroke-width="2"/></g><polyline fill="none" stroke="#000" stroke-linecap="round" stroke-linejoin="round" stroke-width="2" points="22.57 34.133 22.57 27.438 27.352 34.133 27.352 27.438"/><path fill="none" stroke="#000" stroke-linecap="round" stroke-linejoin="round" stroke-width="2" d="M32.6123,34.1328h0a2.391,2.391,0,0,1-2.3909-2.391V29.8291a2.391,2.391,0,0,1,2.3909-2.391h0a2.391,2.391,0,0,1,2.391,2.391v1.9127A2.391,2.391,0,0,1,32.6123,34.1328Z"/><path fill="none" stroke="#000" stroke-linecap="round" stroke-linejoin="round" stroke-width="2" d="M54.4694,28.7683A2.0432,2.0432,0,0,0,52.41,27.4319h0a1.9249,1.9249,0,0,0-2.102,1.6737,1.9249,1.9249,0,0,0,2.102,1.6736l-.0427.0063a1.9249,1.9249,0,0,1,2.102,1.6736,1.9249,1.9249,0,0,1-2.102,1.6737h0a2.0431,2.0431,0,0,1-2.0593-1.3364"/><g><line x1="37.235" x2="41.06" y1="27.438" y2="27.438" fill="none" stroke="#000" stroke-linecap="round" stroke-linejoin="round" stroke-width="2"/><line x1="39.148" x2="39.148" y1="27.438" y2="34.133" fill="none" stroke="#000" stroke-linecap="round" stroke-linejoin="round" stroke-width="2"/></g></g></g></svg>