<svg xmlns="http://www.w3.org/2000/svg" id="emoji" viewBox="0 0 72 72"><g id="color"><circle cx="59.383" cy="36.38" r="5" fill="#3F3F3F" stroke="#3F3F3F" stroke-miterlimit="10" stroke-width="2"/><path fill="#d0cfce" stroke="none" d="M57.7385,11.3752l-16.435,13.346h-28.712c-1.6548,0.005-2.995,1.3452-3,3v16.692 c0.005,1.6548,1.3452,2.995,3,3h28.712l16.436,13.128L57.7385,11.3752z"/><line x1="18.751" x2="18.751" y1="25.333" y2="46.583" fill="#d0cfce" stroke="none"/><polygon fill="#9b9b9a" stroke="none" points="18.687 24.511 11.152 24.948 9.623 26.859 9.568 45.042 11.698 47.499 18.523 47.444"/><path fill="#9b9b9a" stroke="none" d="M27.7502,47.7464v12.2934c0,1.5088-1.1175,2.7319-2.4962,2.7319h-4.9924 c-1.3785,0-2.4962-1.2231-2.4962-2.7319V47.7464"/></g><g id="line"><path fill="none" stroke="#000" stroke-linecap="round" stroke-linejoin="round" stroke-width="2" d="M57.7385,11.3752 l-16.435,13.346h-28.712c-1.6548,0.005-2.995,1.3452-3,3v16.692c0.005,1.6548,1.3452,2.995,3,3h28.712l16.436,13.128 L57.7385,11.3752z"/><line x1="18.751" x2="18.751" y1="25.333" y2="46.583" fill="none" stroke="#000" stroke-linecap="round" stroke-linejoin="round" stroke-width="2"/><path fill="none" stroke="#000" stroke-linecap="round" stroke-linejoin="round" stroke-width="2" d="M26.7508,51.4447v9 c0,1.1046-0.8954,2-2,2h-4c-1.1045,0-2-0.8954-2-2v-9"/><path fill="none" stroke="#000" stroke-linecap="round" stroke-linejoin="round" stroke-width="2" d="M61.6145,31.9073 c1.6486,0.8173,2.782,2.5175,2.782,4.4823c0,1.9659-1.1346,3.6667-2.7846,4.4836"/></g></svg>