<svg xmlns="http://www.w3.org/2000/svg" id="emoji" viewBox="0 0 72 72"><g id="color"><path fill="#9B9B9A" stroke="none" d="M58.9041,56h2.4417C63.0344,56,64,54.9933,64,53.3365v-0.3782v-42H13.0408v13.2772"/><path fill="#9B9B9A" stroke="none" d="M59,56h2.3957C63.0526,56,64,54.9933,64,53.3365v-0.3782v-42H14v16.1541"/><path fill="#9B9B9A" stroke="none" stroke-linecap="round" stroke-linejoin="round" stroke-miterlimit="10" stroke-width="2" d="M59,56h2.3957C63.0526,56,64,54.9933,64,53.3365v-0.3782v-42H14"/><rect width="50" height="40" x="9" y="16" fill="#D0CFCE" stroke="none" stroke-linecap="round" stroke-linejoin="round" stroke-miterlimit="10" stroke-width="2"/></g><g id="line"><path fill="none" stroke="#000" stroke-linecap="round" stroke-linejoin="round" stroke-miterlimit="10" stroke-width="2" d="M59,56h2.3957C63.0526,56,64,54.9933,64,53.3365v-0.3782v-42H14"/><rect width="50" height="40" x="9" y="16" fill="none" stroke="#000" stroke-linecap="round" stroke-linejoin="round" stroke-miterlimit="10" stroke-width="2"/><rect width="20.004" height="20.004" x="14" y="27.112" fill="none" stroke="#000" stroke-linecap="round" stroke-linejoin="round" stroke-miterlimit="10" stroke-width="2"/><line x1="14" x2="54" y1="21.999" y2="21.999" fill="none" stroke="#000" stroke-linecap="round" stroke-linejoin="round" stroke-miterlimit="10" stroke-width="2"/><line x1="39.568" x2="54" y1="28.112" y2="28.112" fill="none" stroke="#000" stroke-linecap="round" stroke-linejoin="round" stroke-miterlimit="10" stroke-width="2"/><line x1="39.568" x2="54" y1="34.479" y2="34.479" fill="none" stroke="#000" stroke-linecap="round" stroke-linejoin="round" stroke-miterlimit="10" stroke-width="2"/><line x1="39.568" x2="54" y1="40.846" y2="40.846" fill="none" stroke="#000" stroke-linecap="round" stroke-linejoin="round" stroke-miterlimit="10" stroke-width="2"/><line x1="39.568" x2="54" y1="47.213" y2="47.213" fill="none" stroke="#000" stroke-linecap="round" stroke-linejoin="round" stroke-miterlimit="10" stroke-width="2"/></g></svg>