<svg xmlns="http://www.w3.org/2000/svg" id="emoji" viewBox="0 0 72 72"><g id="color"><path fill="#9b9b9a" stroke="none" stroke-linecap="round" stroke-linejoin="round" stroke-miterlimit="10" stroke-width="2" d="M49.7892,60H22.2108c-0.4616,0-0.8357-0.3741-0.8357-0.8357V12.3645c0-0.4616,0.3741-0.8357,0.8357-0.8357h27.5784 c0.4616,0,0.8357,0.3741,0.8357,0.8357v46.7998C50.6249,59.6259,50.2508,60,49.7892,60z"/><path fill="#d0cfce" stroke="none" stroke-linecap="round" stroke-linejoin="round" stroke-miterlimit="10" stroke-width="2" d="M46.0569,51.8398H25.9431c-0.4459,0-0.8074-0.3614-0.8074-0.8074V17.5473c0-0.4459,0.3614-0.8074,0.8074-0.8074h20.1137 c0.4459,0,0.8074,0.3614,0.8074,0.8074v33.4851C46.8642,51.4783,46.5028,51.8398,46.0569,51.8398z"/><polygon fill="#FFF" stroke="none" stroke-linecap="round" stroke-linejoin="round" stroke-miterlimit="10" stroke-width="2" points="31.821 14.233 40.179 14.233 40.179 14.233 31.821 14.233"/></g><g id="line"><polyline fill="none" stroke="#000" stroke-linecap="round" stroke-linejoin="round" stroke-miterlimit="10" stroke-width="2" points="60.998 12 54.999 20 60.998 28 54.999 35.999 55.006 35.998 61 44.001 54.997 51.997 60.991 60"/><polyline fill="none" stroke="#000" stroke-linecap="round" stroke-linejoin="round" stroke-miterlimit="10" stroke-width="2" points="10.999 60 16.998 52 10.999 44.001 16.998 36.001 16.991 36.002 10.997 28 17 20.003 11.006 12"/><path fill="none" stroke="#000" stroke-linecap="round" stroke-linejoin="round" stroke-miterlimit="10" stroke-width="2" d="M49.7892,60H22.2108c-0.4616,0-0.8357-0.3741-0.8357-0.8357V12.3645c0-0.4616,0.3741-0.8357,0.8357-0.8357h27.5784 c0.4616,0,0.8357,0.3741,0.8357,0.8357v46.7998C50.6249,59.6259,50.2508,60,49.7892,60z"/><path fill="none" stroke="#000" stroke-linecap="round" stroke-linejoin="round" stroke-miterlimit="10" stroke-width="2" d="M46.0569,51.8398H25.9431c-0.4459,0-0.8074-0.3614-0.8074-0.8074V17.5473c0-0.4459,0.3614-0.8074,0.8074-0.8074h20.1137 c0.4459,0,0.8074,0.3614,0.8074,0.8074v33.4851C46.8642,51.4783,46.5028,51.8398,46.0569,51.8398z"/><circle cx="36" cy="56.018" r="1.671" fill="#000" stroke="none"/><polygon fill="none" stroke="#000" stroke-linecap="round" stroke-linejoin="round" stroke-miterlimit="10" stroke-width="2" points="31.821 14.233 40.179 14.233 40.179 14.233 31.821 14.233"/></g></svg>