<svg xmlns="http://www.w3.org/2000/svg" id="emoji" version="1.1" viewBox="0 0 72 72"><g id="line-supplement"><circle id="xx_1_" cx="40.467" cy="54" r="1.95"/></g><g id="color"><polygon fill="#F1B31C" points="37.304 56.926 38.607 53.268 42.405 53.51 42.722 57.928"/><polyline fill="#F1B31C" points="41.562 55.217 42.405 65.992 35.281 64.807 39.065 54.997"/><circle cx="40.467" cy="54" r="2" fill="#FCEA2B"/><polyline fill="#F1B31C" points="41.783 58.045 42.405 65.992 35.281 64.807 38.124 57.437"/></g><g id="line"><polyline fill="none" stroke="#000" stroke-linecap="round" stroke-linejoin="round" stroke-miterlimit="10" stroke-width="2" points="41.783 58.045 42.405 65.992 35.281 64.807 38.124 57.437"/><path fill="none" stroke="#000" stroke-dasharray="0 6.735 0 0 0 0" stroke-linecap="round" stroke-linejoin="round" stroke-width="4" d="M47.6095,12.8474c1.1383,11.1934-2.5564,14.3792,7.9682,15.4424c10.5246,1.0632,0.6967,20.0417-13.9754,20.0417 S25.2386,38.0801,29.4125,33.9062c4.1738-4.1738-3.1185-6.2607-4.3102-4.1738s-17.9028,0.1524-9.9347-10.6242 S46.4711,1.654,47.6095,12.8474z"/></g><g id="color-foreground"><path id="xx" fill="none" stroke="#D22F27" stroke-dasharray="0 6.735 0 0 0 0" stroke-linecap="round" stroke-linejoin="round" stroke-width="4" d="M47.6095,12.8474c1.1383,11.1934-2.5564,14.3792,7.9682,15.4424c10.5246,1.0632,0.6967,20.0417-13.9754,20.0417 S25.2386,38.0801,29.4125,33.9062c4.1738-4.1738-3.1185-6.2607-4.3102-4.1738s-17.9028,0.1524-9.9347-10.6242 S46.4711,1.654,47.6095,12.8474z"/></g></svg>