<svg xmlns="http://www.w3.org/2000/svg" id="emoji" viewBox="0 0 72 72"><g id="color"><path fill="#d0cfce" stroke="none" d="M13.2227,59.3477h45.7451V32.7764H13.2227V59.3477z"/><path fill="#9B9B9A" stroke="none" d="M18.7401,38.2841l36.479,0.177l0.4075-2.1818H16.6237v11.1684l2.0825,0.336L18.7401,38.2841z"/><polygon fill="#d0cfce" stroke="none" points="59.968 23.793 12.223 23.793 12.223 26.621 59.968 26.606"/><circle cx="22.268" cy="13.569" r="1" fill="#d0cfce" stroke="none"/><circle cx="22.49" cy="41.984" r="2" fill="#3f3f3f" stroke="none"/></g><g id="line"><path fill="none" stroke="#000" stroke-linecap="round" stroke-linejoin="round" stroke-miterlimit="10" stroke-width="2" d="M43.203,23.3918"/><line x1="47.434" x2="55.219" y1="27.214" y2="31.428" fill="none" stroke="#000" stroke-linecap="round" stroke-linejoin="round" stroke-miterlimit="10" stroke-width="2"/><line x1="24.028" x2="34.665" y1="14.546" y2="20.303" fill="none" stroke="#000" stroke-linecap="round" stroke-linejoin="round" stroke-miterlimit="10" stroke-width="2"/><circle cx="22.267" cy="13.569" r="2" fill="none" stroke="#000" stroke-linecap="round" stroke-linejoin="round" stroke-miterlimit="10" stroke-width="2"/><path fill="none" stroke="#000" stroke-linecap="round" stroke-linejoin="round" stroke-miterlimit="10" stroke-width="2" d="M43.203,23.3918"/><rect width="47.745" height="28.571" x="12.223" y="31.777" fill="none" stroke="#000" stroke-linecap="round" stroke-linejoin="round" stroke-miterlimit="10" stroke-width="2"/><line x1="16.546" x2="55.118" y1="52.237" y2="52.237" fill="none" stroke="#000" stroke-linecap="round" stroke-linejoin="round" stroke-miterlimit="10" stroke-width="2"/><line x1="16.546" x2="55.118" y1="56.237" y2="56.237" fill="none" stroke="#000" stroke-linecap="round" stroke-linejoin="round" stroke-miterlimit="10" stroke-width="2"/><rect width="38.595" height="11.504" x="16.624" y="36.279" fill="none" stroke="#000" stroke-linecap="round" stroke-linejoin="round" stroke-miterlimit="10" stroke-width="2"/><circle cx="22.491" cy="41.985" r="2" fill="none" stroke="#000" stroke-linecap="round" stroke-linejoin="round" stroke-miterlimit="10" stroke-width="2"/><polyline fill="none" stroke="#000" stroke-linecap="round" stroke-linejoin="round" stroke-miterlimit="10" stroke-width="2" points="12.223 26.946 12.223 23.793 59.968 23.793 59.968 26.946"/><line x1="38.294" x2="38.294" y1="41.697" y2="42.364" fill="none" stroke="#000" stroke-linecap="round" stroke-linejoin="round" stroke-miterlimit="10" stroke-width="2"/><line x1="42.294" x2="42.294" y1="41.697" y2="42.364" fill="none" stroke="#000" stroke-linecap="round" stroke-linejoin="round" stroke-miterlimit="10" stroke-width="2"/><line x1="46.294" x2="46.294" y1="41.697" y2="42.364" fill="none" stroke="#000" stroke-linecap="round" stroke-linejoin="round" stroke-miterlimit="10" stroke-width="2"/></g></svg>