<svg xmlns="http://www.w3.org/2000/svg" id="emoji" viewBox="0 0 72 72"><g id="color"><rect width="3" height="26" x="45.07" y="25" fill="#9b9b9a" stroke="none"/><path fill="#9b9b9a" stroke="none" stroke-linecap="round" stroke-linejoin="round" stroke-miterlimit="10" stroke-width="2" d="M47.1249,46.3066v12.8577c0,0.4616-0.3741,0.8357-0.8357,0.8357H18.7108c-0.4616,0-0.8357-0.3741-0.8357-0.8357V12.3645 c0-0.4616,0.3741-0.8357,0.8357-0.8357h27.5784c0.4616,0,0.8357,0.3741,0.8357,0.8357v14.0542"/><rect width="3" height="26" x="41.23" y="25" fill="#d0cfce" stroke="none"/><path fill="#d0cfce" stroke="none" stroke-linecap="round" stroke-linejoin="round" stroke-miterlimit="10" stroke-width="2" d="M43.3642,46.3066v4.7258c0,0.4459-0.3614,0.8074-0.8074,0.8074H22.4431c-0.4459,0-0.8074-0.3614-0.8074-0.8074V17.5473 c0-0.4459,0.3614-0.8074,0.8074-0.8074h20.1137c0.4459,0,0.8074,0.3614,0.8074,0.8074v8.8714"/><polygon fill="#FFF" stroke="none" stroke-linecap="round" stroke-linejoin="round" stroke-miterlimit="10" stroke-width="2" points="28.321 14.233 36.679 14.233 36.679 14.233 28.321 14.233"/></g><g id="line"><path fill="none" stroke="#000" stroke-linecap="round" stroke-linejoin="round" stroke-miterlimit="10" stroke-width="2" d="M47.1249,46.3066v12.8577c0,0.4616-0.3741,0.8357-0.8357,0.8357H18.7108c-0.4616,0-0.8357-0.3741-0.8357-0.8357V12.3645 c0-0.4616,0.3741-0.8357,0.8357-0.8357h27.5784c0.4616,0,0.8357,0.3741,0.8357,0.8357v14.0542"/><path fill="none" stroke="#000" stroke-linecap="round" stroke-linejoin="round" stroke-miterlimit="10" stroke-width="2" d="M43.3642,46.3066v4.7258c0,0.4459-0.3614,0.8074-0.8074,0.8074H22.4431c-0.4459,0-0.8074-0.3614-0.8074-0.8074V17.5473 c0-0.4459,0.3614-0.8074,0.8074-0.8074h20.1137c0.4459,0,0.8074,0.3614,0.8074,0.8074v8.8714"/><circle cx="32.5" cy="56.018" r="1.671" fill="#000" stroke="none"/><polygon fill="none" stroke="#000" stroke-linecap="round" stroke-linejoin="round" stroke-miterlimit="10" stroke-width="2" points="28.321 14.233 36.679 14.233 36.679 14.233 28.321 14.233"/><polyline fill="none" stroke="#000" stroke-linecap="round" stroke-linejoin="round" stroke-miterlimit="10" stroke-width="2" points="45.83 36.47 42.83 36.47 42.83 39.97 42.83 32.97 46.83 32.97"/><polyline fill="none" stroke="#000" stroke-linecap="round" stroke-linejoin="round" stroke-miterlimit="10" stroke-width="2" points="53.83 36.47 50.83 36.47 50.83 39.97 50.83 32.97 54.83 32.97"/><path fill="none" stroke="#000" stroke-linecap="round" stroke-linejoin="round" stroke-miterlimit="10" stroke-width="2" d="M35.5,39.9699L35.5,39.9699c-1.3807,0-2.5-1.1193-2.5-2.5v-2c0-1.3807,1.1193-2.5,2.5-2.5l0,0c1.3807,0,2.5,1.1193,2.5,2.5v2 C38,38.8506,36.8807,39.9699,35.5,39.9699z"/></g></svg>