<svg xmlns="http://www.w3.org/2000/svg" id="emoji" viewBox="0 0 72 72"><g id="color"><polygon fill="#D0CFCE" stroke="none" points="55.281 53.184 56.842 53.183 56.842 53.18"/><path fill="#D0CFCE" stroke="none" d="M56.9266,51.1826L56.8398,32.207c0.0006,0-3.5428,0.002-6.0229,0.0034l0.0839-9.2465 c0,0-11.988,0.852-11.988,0.2998l-0.3192-2.7549L15.2914,20.71l-0.1605,35.4266l35.4702-0.1364l0.0255-2.8145l5.7991-0.006 C55.8772,53.1769,56.9266,51.1826,56.9266,51.1826z"/><polygon fill="#3F3F3F" stroke="none" points="62.588 24.313 54.32 11.442 51.399 16.845 42.88 23.264 50.137 23.764 51.003 30.318 56.8 25.742 56.8 25.742"/><path fill="#9B9B9A" stroke="none" d="M45.3017,49.7968V32.5206c0-1.2146-0.9887-2.2032-2.2032-2.2032H23.7052V52h19.3933 C44.313,52,45.3017,51.0113,45.3017,49.7968z"/><circle cx="34.259" cy="43.337" r="5" fill="#D0CFCE" stroke="none"/><rect width="3.453" height="18.74" x="11.838" y="20.597" fill="#3F3F3F" stroke="none"/></g><g id="line"><line x1="57.577" x2="51.003" y1="25.129" y2="30.318" fill="none" stroke="#000" stroke-linecap="round" stroke-linejoin="round" stroke-miterlimit="10" stroke-width="2"/><line x1="43.898" x2="51.011" y1="22.964" y2="17.562" fill="none" stroke="#000" stroke-linecap="round" stroke-linejoin="round" stroke-miterlimit="10" stroke-width="2"/><polygon fill="none" stroke="#000" stroke-linecap="round" stroke-linejoin="round" stroke-miterlimit="10" stroke-width="2" points="51.011 17.573 57.592 25.129 62.588 24.313 54.32 11.442"/><polyline fill="none" stroke="#000" stroke-linecap="round" stroke-linejoin="round" stroke-miterlimit="10" stroke-width="2" points="15.291 39.425 15.291 55.976 50.601 55.976 50.601 23.264 38.594 23.264 38.594 20.509 15.521 20.509"/><polyline fill="none" stroke="#000" stroke-linecap="round" stroke-linejoin="round" stroke-miterlimit="10" stroke-width="2" points="54.779 33.213 56.842 33.207 56.842 52.179 54.779 52.185"/><path fill="none" stroke="#000" stroke-linecap="round" stroke-linejoin="round" stroke-miterlimit="10" stroke-width="2" d="M42.3054,52H23.7011V30.3178h18.6043c1.6569,0,3,1.3431,3,3V49C45.3054,50.6569,43.9623,52,42.3054,52z"/><circle cx="34.258" cy="43.337" r="5" fill="none" stroke="#000" stroke-linecap="round" stroke-linejoin="round" stroke-miterlimit="10" stroke-width="2"/><rect width="3.626" height="18.916" x="11.666" y="20.509" fill="none" stroke="#000" stroke-linecap="round" stroke-linejoin="round" stroke-miterlimit="10" stroke-width="2"/></g></svg>