<svg xmlns="http://www.w3.org/2000/svg" id="emoji" viewBox="0 0 72 72"><g id="color"><path fill="#F4AA41" stroke="none" d="M33.5357,31.9911c-1.4016-4.2877-0.2247-9.41,3.4285-13.0632c5.018-5.018,12.8077-5.3639,17.3989-0.7727 s4.2452,12.381-0.7728,17.3989c-4.057,4.057-10.4347,5.5131-14.2685,2.5888"/><polyline fill="#F4AA41" stroke="#F4AA41" stroke-linecap="round" stroke-linejoin="round" stroke-miterlimit="10" stroke-width="2" points="33.652 31.736 31.218 34.187 14.644 50.514 14.644 57.66 22.043 57.66 22.043 53.084 27.054 53.084 27.054 47.302 32.04 47.302 34.391 44.929 34.391 40.627 36.362 40.627 39.452 37.537"/><polygon fill="#E27022" stroke="none" points="15.985 53.346 15.986 51.439 31.898 35.874 32.85 36.848"/><circle cx="48.52" cy="23.998" r="3.952" fill="#E27022" stroke="none"/></g><g id="line"><polyline fill="none" stroke="#000" stroke-linecap="round" stroke-linejoin="round" stroke-miterlimit="10" stroke-width="2" points="30.735 34.656 14.303 50.681 14.303 57.921 21.868 57.921 21.868 53.285 26.993 53.285 26.993 47.427 32.091 47.427 34.496 45.023 34.496 40.665 36.511 40.665"/><circle cx="48.52" cy="23.998" r="3.952" fill="none" stroke="#000" stroke-linecap="round" stroke-linejoin="round" stroke-miterlimit="10" stroke-width="2"/><path fill="none" stroke="#000" stroke-linecap="round" stroke-linejoin="round" stroke-miterlimit="10" stroke-width="2" d="M34.2256,31.1781c-1.4298-4.2383-0.3466-9.2209,3.1804-12.6947c4.8446-4.7715,12.4654-4.8894,17.0216-0.2634 s4.3223,12.2441-0.5223,17.0156c-3.9169,3.8577-9.6484,4.6736-14.1079,2.3998"/></g></svg>