<svg xmlns="http://www.w3.org/2000/svg" id="emoji" viewBox="0 0 72 72"><g id="color"><g id="_1F529"><polygon fill="#9b9b9a" points="36.804 28.439 43.931 35.497 46.961 32.467 39.869 25.374 36.804 28.439"/><rect width="23.948" height="11.499" x="35.171" y="18.77" fill="#d0cfce" transform="translate(31.1462 -26.1551) rotate(45)"/><polyline fill="#d0cfce" points="32.174 33.07 39.869 25.374 46.961 32.467 19.415 60.013 12.322 52.921 32.174 33.07"/><rect width="10.03" height="1.924" x="30.858" y="35.501" fill="#9b9b9a" transform="translate(36.2899 -14.6866) rotate(45)"/><rect width="10.03" height="1.924" x="21.335" y="45.023" fill="#9b9b9a" transform="translate(40.2342 -5.164) rotate(45)"/><rect width="10.03" height="1.924" x="19.295" y="47.064" fill="#9b9b9a" transform="translate(41.0795 -3.1235) rotate(45)"/><rect width="10.03" height="1.924" x="17.254" y="49.104" fill="#9b9b9a" transform="translate(41.9247 -1.0829) rotate(45)"/><rect width="20.061" height="7.523" x="21.125" y="37.419" fill="#d0cfce" transform="translate(38.2441 -9.9688) rotate(45)"/></g></g><g id="line"><g id="_1F529-2"><rect width="23.948" height="11.499" x="35.171" y="18.77" fill="none" stroke="#000" stroke-linecap="round" stroke-linejoin="round" stroke-width="2" transform="translate(31.1462 -26.1551) rotate(45)"/><polyline fill="none" stroke="#000" stroke-linecap="round" stroke-linejoin="round" stroke-width="2" points="32.755 32.488 39.869 25.374 46.961 32.467 39.883 39.546"/><polyline fill="none" stroke="#000" stroke-linecap="round" stroke-linejoin="round" stroke-width="2" points="29.642 49.786 20.556 58.873 18.527 59.126 13.175 53.774 13.174 52.069 22.375 42.868"/><rect width="20.061" height="7.523" x="21.125" y="37.419" fill="none" stroke="#000" stroke-linecap="round" stroke-linejoin="round" stroke-width="2" transform="translate(38.2441 -9.9688) rotate(45)"/></g></g></svg>