<svg xmlns="http://www.w3.org/2000/svg" id="emoji" viewBox="0 0 72 72"><g id="color"><rect width="4" height="6" x="38.974" y="13.147" fill="#3f3f3f" transform="translate(10.1916 -15.3496) rotate(24.149)"/><path fill="none" stroke="#d0cfce" stroke-miterlimit="10" stroke-width="2" d="M40.5,28.4089A15,15,0,0,1,49.9383,55.068"/><rect width="37" height="5" x="16.5" y="54.409" fill="#d0cfce"/><rect width="19" height="9" x="27.382" y="20.772" fill="#d0cfce" transform="translate(-1.2665 48.5874) rotate(-65.851)"/></g><g id="line"><path fill="none" stroke="#000" stroke-linecap="round" stroke-linejoin="round" stroke-width="2" d="M34.7632,34.7326a1.8939,1.8939,0,0,1-2.381.5764A2.0009,2.0009,0,0,1,31.23,33.14"/><polyline fill="none" stroke="#000" stroke-linecap="round" stroke-linejoin="round" stroke-width="2" points="34.763 34.733 28.89 32.099 36.663 14.762 44.875 18.444 37.102 35.781 34.763 34.733"/><rect width="21" height="2" x="16.727" y="47.746" fill="none" stroke="#000" stroke-linecap="round" stroke-linejoin="round" stroke-width="2" transform="translate(22.3253 -6.8728) rotate(24.149)"/><path fill="none" stroke="#000" stroke-miterlimit="10" stroke-width="2" d="M39.7215,30.2515a1.9941,1.9941,0,0,0,.7785.1572,13.0007,13.0007,0,0,1,8.1787,23.1059,1.9907,1.9907,0,0,0-.6531.9695"/><path fill="none" stroke="#000" stroke-miterlimit="10" stroke-width="2" d="M41.3034,26.4274A17.0044,17.0044,0,0,1,53.48,54.3921"/><rect width="37" height="5" x="16.5" y="54.409" fill="none" stroke="#000" stroke-linecap="round" stroke-linejoin="round" stroke-width="2"/><rect width="4" height="3.264" x="39.533" y="13.267" fill="none" stroke="#000" stroke-linecap="round" stroke-linejoin="round" stroke-width="2" transform="translate(9.73 -15.6878) rotate(24.149)"/></g></svg>