<svg xmlns="http://www.w3.org/2000/svg" id="emoji" viewBox="0 0 72 72"><g id="color"><path fill="#d0cfce" stroke="none" stroke-linejoin="round" stroke-miterlimit="10" stroke-width="2" d="M59.0349,60H12.9651 C12.4343,60,12,59.5657,12,59.0349V12.9651C12,12.4343,12.4343,12,12.9651,12h46.0698C59.5657,12,60,12.4343,60,12.9651v46.0698 C60,59.5657,59.5657,60,59.0349,60z"/></g><g id="line"><path fill="none" stroke="#000" stroke-linejoin="round" stroke-miterlimit="10" stroke-width="2" d="M59.0349,60H12.9651 C12.4343,60,12,59.5657,12,59.0349V12.9651C12,12.4343,12.4343,12,12.9651,12h46.0698C59.5657,12,60,12.4343,60,12.9651v46.0698 C60,59.5657,59.5657,60,59.0349,60z"/><path fill="none" stroke="#000" stroke-linecap="round" stroke-linejoin="round" stroke-miterlimit="10" stroke-width="2" d="M39.4907,24.9226c0.2864-1.3997,1.5249-2.4527,3.0093-2.4527l0,0c0.8481,0,1.6161,0.3439,2.172,0.8997 c0.8647,0.8647,0.7849,2.3016-0.0264,3.2164l-5.2173,5.8839h6.1434"/><path fill="none" stroke="#000" stroke-linecap="round" stroke-linejoin="round" stroke-miterlimit="10" stroke-width="2" d="M27.7088,46.4738c0.263,1.1393,1.3999,1.9961,2.7626,1.9961l0,0c1.5574,0,2.8199-1.1193,2.8199-2.5s-1.2624-2.5-2.8199-2.5 c1.5574,0,2.8199-1.1193,2.8199-2.5s-1.2624-2.5-2.8199-2.5l0,0c-1.3627,0-2.4996,0.857-2.7626,1.9961"/><polyline fill="none" stroke="#000" stroke-linecap="round" stroke-linejoin="round" stroke-miterlimit="10" stroke-width="2" points="28.116 24.544 30.884 22.47 30.884 32.47"/><polyline fill="none" stroke="#000" stroke-linecap="round" stroke-linejoin="round" stroke-miterlimit="10" stroke-width="2" points="43.291 38.47 39.575 46.871 45.425 46.871"/><line x1="44.461" x2="44.461" y1="43.774" y2="48.47" fill="none" stroke="#000" stroke-linecap="round" stroke-linejoin="round" stroke-miterlimit="10" stroke-width="2"/></g></svg>