<svg xmlns="http://www.w3.org/2000/svg" id="emoji" viewBox="0 0 72 72"><g id="color"><polyline fill="#EA5A47" stroke="none" points="17 55 17 52 24 52 24 55"/><circle cx="36" cy="17" r="10" fill="#EA5A47" stroke="none"/><path fill="#3F3F3F" stroke="none" d="M27,55c0-3.866,4.0294-7,9-7s9,3.134,9,7"/><rect width="6" height="21" x="33" y="27" fill="#9B9B9A" stroke="#9B9B9A" stroke-linecap="round" stroke-linejoin="round" stroke-miterlimit="10" stroke-width="2"/><rect width="44" height="10" x="14" y="55" fill="#9B9B9A" stroke="none" stroke-linecap="round" stroke-linejoin="round" stroke-miterlimit="10" stroke-width="2"/><polygon fill="#D22F27" stroke="none" points="41 8 34 27 40 26 45 21 46 15"/></g><g id="line"><rect width="44" height="10" x="14" y="55" fill="none" stroke="#000" stroke-linecap="round" stroke-linejoin="round" stroke-miterlimit="10" stroke-width="2"/><path fill="none" stroke="#000" stroke-miterlimit="10" stroke-width="2" d="M27,55c0-3.866,4.0294-7,9-7s9,3.134,9,7"/><polyline fill="none" stroke="#000" stroke-linecap="round" stroke-linejoin="round" stroke-miterlimit="10" stroke-width="2" points="17 55 17 52 24 52 24 55"/><polyline fill="none" stroke="#000" stroke-linecap="round" stroke-linejoin="round" stroke-miterlimit="10" stroke-width="2" points="39 44.703 39 44 39 27 33 27 33 44.705"/><circle cx="36" cy="17" r="10" fill="none" stroke="#000" stroke-miterlimit="10" stroke-width="2"/></g></svg>