<svg xmlns="http://www.w3.org/2000/svg" id="emoji" viewBox="0 0 72 72"><g id="color"><path fill="#3f3f3f" stroke="none" d="M18,55h36V13H18V55z"/><path fill="#d0cfce" stroke="none" d="M22.2695,17.0112v14.0005h27.4991V17.0112H22.2695z"/><path fill="#d0cfce" stroke="none" d="M49.7686,50.8291v-14H22.2695v14H49.7686z"/><rect width="11.983" height="4.357" x="29.947" y="19.677" fill="#9B9B9A" stroke="none"/><rect width="12.679" height="4.067" x="29.595" y="39.793" fill="#9B9B9A" stroke="none"/><line x1="17.009" x2="55" y1="60.003" y2="60.003" fill="#d0cfce" stroke="none" stroke-linecap="round" stroke-linejoin="round" stroke-miterlimit="10" stroke-width="2"/></g><g id="line"><rect width="38" height="44" x="17" y="12" fill="none" stroke="#000" stroke-linecap="round" stroke-linejoin="round" stroke-miterlimit="10" stroke-width="2"/><line x1="17.009" x2="55" y1="60.003" y2="60.003" fill="none" stroke="#000" stroke-linecap="round" stroke-linejoin="round" stroke-miterlimit="10" stroke-width="2"/><rect width="29.5" height="16" x="21.269" y="35.829" fill="none" stroke="#000" stroke-linecap="round" stroke-linejoin="round" stroke-miterlimit="10" stroke-width="2"/><rect width="12.399" height="4.116" x="29.735" y="39.713" fill="none" stroke="#000" stroke-linecap="round" stroke-linejoin="round" stroke-miterlimit="10" stroke-width="2"/><line x1="42.134" x2="29.735" y1="47.829" y2="47.829" fill="none" stroke="#000" stroke-linecap="round" stroke-linejoin="round" stroke-miterlimit="10" stroke-width="2"/><rect width="29.5" height="16" x="21.269" y="16.011" fill="none" stroke="#000" stroke-linecap="round" stroke-linejoin="round" stroke-miterlimit="10" stroke-width="2"/><rect width="12.399" height="4.116" x="29.735" y="19.895" fill="none" stroke="#000" stroke-linecap="round" stroke-linejoin="round" stroke-miterlimit="10" stroke-width="2"/><line x1="42.134" x2="29.735" y1="28.011" y2="28.011" fill="none" stroke="#000" stroke-linecap="round" stroke-linejoin="round" stroke-miterlimit="10" stroke-width="2"/></g></svg>