<svg xmlns="http://www.w3.org/2000/svg" id="emoji" viewBox="0 0 72 72"><g id="color"><path fill="#FFF" stroke="none" d="M11.9726,28.2042l0.123,31.8059l31.6009-0.082L59.9274,47.55l0.1229-19.4688L11.9726,28.2042z"/><path fill="#ea5a47" stroke="none" d="M12.1421,28.1401h47.71V12.2523h-47.71V28.1401z M49.9972,16.7595c0.0107,0,0.0207,0,0.0307,0 c0.841,0.0081,1.6281,0.3433,2.2169,0.9435c0.5897,0.6004,0.9094,1.3941,0.901,2.2351c-0.0162,1.7261-1.426,3.1186-3.1479,3.1186 c-0.0099,0-0.0207,0-0.0307,0c-1.7357-0.017-3.134-1.4429-3.1179-3.1786C46.8655,18.152,48.2753,16.7595,49.9972,16.7595z M19.7269,17.6075c0.6109-0.5985,1.4156-0.9273,2.2694-0.9273c0.0103,0,0.0206,0,0.0317,0 c1.7866,0.0174,3.2267,1.4852,3.2101,3.2719c-0.0166,1.7768-1.4678,3.2102-3.2403,3.2102c-0.0102,0-0.0213,0-0.0316,0 c-1.7867-0.0175-3.2267-1.4852-3.2101-3.2719C18.7639,19.0248,19.1089,18.2141,19.7269,17.6075z"/><path fill="#d0cfce" stroke="none" d="M56.9559,49.0381H44.1387v4.4795c0,0.5527-0.4473,1-1,1c-0.502,0-0.8992-0.3752-0.9712-0.8569v5.4255 l1.1596-0.0003L56.9559,49.0381z"/></g><g id="line"><ellipse cx="21.997" cy="19.941" fill="none" fill-rule="evenodd" stroke="#000" stroke-linecap="round" stroke-linejoin="round" stroke-miterlimit="10" stroke-width="2" clip-rule="evenodd" rx="3" ry="3" transform="matrix(0.0096 -1 1 0.0096 1.8467 41.746)"/><rect width="48" height="16" x="11.997" y="12.214" fill="none" stroke="#000" stroke-linecap="round" stroke-linejoin="round" stroke-miterlimit="10" stroke-width="2"/><ellipse cx="49.998" cy="19.941" fill="none" fill-rule="evenodd" stroke="#000" stroke-linecap="round" stroke-linejoin="round" stroke-miterlimit="10" stroke-width="2" clip-rule="evenodd" rx="3" ry="3" transform="matrix(0.0096 -1 1 0.0096 29.5794 69.7454)"/><polyline fill="none" stroke="#000" stroke-linecap="round" stroke-linejoin="round" stroke-miterlimit="10" stroke-width="2" points="11.997 28.092 11.997 60.092 43.656 60.086 59.997 48.038 59.997 28.092"/><ellipse cx="18.217" cy="33.673" fill="#000" stroke="none" rx="2" ry="2" transform="matrix(0.0096 -1 1 0.0096 -15.6284 51.5668)"/><ellipse cx="24.217" cy="33.673" fill="#000" stroke="none" rx="2" ry="2" transform="matrix(0.0096 -1 1 0.0096 -9.6857 57.5665)"/><ellipse cx="30.217" cy="33.673" fill="#000" stroke="none" rx="2" ry="2" transform="matrix(0.0096 -1 1 0.0096 -3.743 63.5662)"/><ellipse cx="36.217" cy="33.673" fill="#000" stroke="none" rx="2" ry="2" transform="matrix(0.0096 -1 1 0.0096 2.1997 69.566)"/><ellipse cx="18.217" cy="39.673" fill="#000" stroke="none" rx="2" ry="2" transform="matrix(0.0096 -1 1 0.0096 -21.6282 57.5095)"/><ellipse cx="24.217" cy="39.673" fill="#000" stroke="none" rx="2" ry="2" transform="matrix(0.0096 -1 1 0.0096 -15.6855 63.5092)"/><ellipse cx="30.217" cy="39.673" fill="#000" stroke="none" rx="2" ry="2" transform="matrix(0.0096 -1 1 0.0096 -9.7428 69.5089)"/><ellipse cx="36.217" cy="39.673" fill="#000" stroke="none" rx="2" ry="2" transform="matrix(0.0096 -1 1 0.0096 -3.8001 75.5087)"/><ellipse cx="18.217" cy="45.673" fill="#000" stroke="none" rx="2" ry="2" transform="matrix(0.0096 -1 1 0.0096 -27.6279 63.4522)"/><polyline fill="none" stroke="#000" stroke-linecap="round" stroke-linejoin="round" stroke-miterlimit="10" stroke-width="2" points="59.869 48.038 43.138 48.038 43.138 53.517"/></g></svg>