<svg xmlns="http://www.w3.org/2000/svg" id="emoji" viewBox="0 0 72 72"><g id="color"><path fill="#FFF" stroke="none" d="M60.069,17.0151l-5.9178-0.9325H17.21l-5.2722,0.9684l0.0358,43.2177l31.6332-0.0359l16.4981-12.0507 L60.069,17.0151z"/><path fill="#d0cfce" stroke="none" d="M56.9559,49.0381H44.1387v4.4795c0,0.5527-0.4473,1-1,1c-0.502,0-0.8992-0.3752-0.9712-0.8569v5.4255 l1.1596-0.0003L56.9559,49.0381z"/><line x1="45.481" x2="45.481" y1="13.955" y2="19.591" fill="#FFF" stroke="none" stroke-linecap="round" stroke-linejoin="round" stroke-miterlimit="10" stroke-width="2"/><line x1="40.72" x2="40.72" y1="13.955" y2="19.591" fill="#FFF" stroke="none" stroke-linecap="round" stroke-linejoin="round" stroke-miterlimit="10" stroke-width="2"/><line x1="35.96" x2="35.96" y1="13.955" y2="19.591" fill="#FFF" stroke="none" stroke-linecap="round" stroke-linejoin="round" stroke-miterlimit="10" stroke-width="2"/><line x1="50.241" x2="50.241" y1="13.955" y2="19.591" fill="#FFF" stroke="none" stroke-linecap="round" stroke-linejoin="round" stroke-miterlimit="10" stroke-width="2"/><line x1="31.2" x2="31.2" y1="13.955" y2="19.591" fill="#FFF" stroke="none" stroke-linecap="round" stroke-linejoin="round" stroke-miterlimit="10" stroke-width="2"/><line x1="26.439" x2="26.439" y1="13.955" y2="19.591" fill="#FFF" stroke="none" stroke-linecap="round" stroke-linejoin="round" stroke-miterlimit="10" stroke-width="2"/><line x1="21.679" x2="21.679" y1="13.955" y2="19.591" fill="#FFF" stroke="none" stroke-linecap="round" stroke-linejoin="round" stroke-miterlimit="10" stroke-width="2"/></g><g id="line"><line x1="45.481" x2="45.481" y1="13.955" y2="19.591" fill="none" stroke="#000" stroke-linecap="round" stroke-linejoin="round" stroke-miterlimit="10" stroke-width="2"/><line x1="40.72" x2="40.72" y1="13.955" y2="19.591" fill="none" stroke="#000" stroke-linecap="round" stroke-linejoin="round" stroke-miterlimit="10" stroke-width="2"/><line x1="35.96" x2="35.96" y1="13.955" y2="19.591" fill="none" stroke="#000" stroke-linecap="round" stroke-linejoin="round" stroke-miterlimit="10" stroke-width="2"/><line x1="50.241" x2="50.241" y1="13.955" y2="19.591" fill="none" stroke="#000" stroke-linecap="round" stroke-linejoin="round" stroke-miterlimit="10" stroke-width="2"/><line x1="31.2" x2="31.2" y1="13.955" y2="19.591" fill="none" stroke="#000" stroke-linecap="round" stroke-linejoin="round" stroke-miterlimit="10" stroke-width="2"/><line x1="26.439" x2="26.439" y1="13.955" y2="19.591" fill="none" stroke="#000" stroke-linecap="round" stroke-linejoin="round" stroke-miterlimit="10" stroke-width="2"/><line x1="21.679" x2="21.679" y1="13.955" y2="19.591" fill="none" stroke="#000" stroke-linecap="round" stroke-linejoin="round" stroke-miterlimit="10" stroke-width="2"/><line x1="16.99" x2="54.787" y1="29.352" y2="29.352" fill="none" stroke="#000" stroke-linecap="round" stroke-linejoin="round" stroke-miterlimit="10" stroke-width="2"/><line x1="16.99" x2="54.787" y1="39.825" y2="39.825" fill="none" stroke="#000" stroke-linecap="round" stroke-linejoin="round" stroke-miterlimit="10" stroke-width="2"/><line x1="16.99" x2="39.115" y1="50.298" y2="50.298" fill="none" stroke="#000" stroke-linecap="round" stroke-linejoin="round" stroke-miterlimit="10" stroke-width="2"/><line x1="25.946" x2="25.946" y1="24.443" y2="55.549" fill="none" stroke="#000" stroke-linecap="round" stroke-linejoin="round" stroke-miterlimit="10" stroke-width="2"/><polyline fill="none" stroke="#000" stroke-linecap="round" stroke-linejoin="round" stroke-miterlimit="10" stroke-width="2" points="54.325 16.973 59.96 16.973 59.997 48.038 43.656 60.086 11.997 60.092 11.96 16.973 17.599 16.973"/><polyline fill="none" stroke="#000" stroke-linecap="round" stroke-linejoin="round" stroke-miterlimit="10" stroke-width="2" points="59.746 48.038 43.138 48.038 43.138 53.517"/></g></svg>