<svg xmlns="http://www.w3.org/2000/svg" id="emoji" viewBox="0 0 72 72"><g id="color"><rect width="16.946" height="4.941" x="27.689" y="10.958" fill="#fcea2b" rx="2.47" ry="2.47"/><path fill="#fcea2b" d="M24.23,13.9583H47.7695A7.2305,7.2305,0,0,1,55,21.1888V47.4583a1.5,1.5,0,0,1-1.5,1.5h-35a1.5,1.5,0,0,1-1.5-1.5v-26.27a7.23,7.23,0,0,1,7.23-7.23Z"/><rect width="38" height="10" x="17" y="38.958" fill="#f4aa41"/><rect width="31" height="13" x="20" y="20.958" fill="#92d3f5"/><rect width="7" height="3" x="20" y="41.958" fill="#fff"/><rect width="7" height="3" x="44" y="41.958" fill="#fff"/><rect width="40" height="8" x="16" y="48.958" fill="#3f3f3f" rx="2.621" ry="2.621"/><rect width="10.911" height="2.866" x="30.044" y="13.217" fill="#3f3f3f" rx="1.433" ry="1.433"/></g><g id="line"><rect width="40" height="8" x="16" y="48.958" fill="none" stroke="#000" stroke-linecap="round" stroke-linejoin="round" stroke-width="2" rx="2.621" ry="2.621"/><rect width="6" height="4" x="18" y="56.958" rx="2" ry="2"/><rect width="6" height="4" x="48" y="56.958" rx="2" ry="2"/><line x1="16" x2="13" y1="25.958" y2="25.958" fill="none" stroke="#000" stroke-linecap="round" stroke-linejoin="round" stroke-width="2"/><line x1="13" x2="13" y1="22.958" y2="28.958" fill="none" stroke="#000" stroke-linecap="round" stroke-linejoin="round" stroke-width="2"/><line x1="56" x2="59" y1="25.958" y2="25.958" fill="none" stroke="#000" stroke-linecap="round" stroke-linejoin="round" stroke-width="2"/><line x1="59" x2="59" y1="22.958" y2="28.958" fill="none" stroke="#000" stroke-linecap="round" stroke-linejoin="round" stroke-width="2"/><path fill="none" stroke="#000" stroke-linecap="round" stroke-linejoin="round" stroke-width="2" d="M44.1556,13.9583H47.77A7.2518,7.2518,0,0,1,55,21.1888v26.27a1.5044,1.5044,0,0,1-1.5,1.5h-35a1.5044,1.5044,0,0,1-1.5-1.5v-26.27a7.2515,7.2515,0,0,1,7.23-7.23h2.6142"/><path fill="none" stroke="#000" stroke-linecap="round" stroke-linejoin="round" stroke-width="2" d="M51,21.9583v11.8H21"/><polyline fill="none" stroke="#000" stroke-linecap="round" stroke-linejoin="round" stroke-width="2" points="21 44.958 27 44.958 27 42.958"/><polyline fill="none" stroke="#000" stroke-linecap="round" stroke-linejoin="round" stroke-width="2" points="45 44.958 51 44.958 51 42.958"/><line x1="32" x2="41" y1="41.958" y2="41.958" fill="none" stroke="#000" stroke-linecap="round" stroke-miterlimit="10" stroke-width="2"/><line x1="32" x2="41" y1="44.958" y2="44.958" fill="none" stroke="#000" stroke-linecap="round" stroke-miterlimit="10" stroke-width="2"/><path fill="none" stroke="#000" stroke-linecap="round" stroke-linejoin="round" stroke-width="2" d="M26.8444,13.9583v-.4791a2.5283,2.5283,0,0,1,2.5209-2.5209H41.6347a2.5283,2.5283,0,0,1,2.5209,2.5209v.4791"/></g></svg>