<svg xmlns="http://www.w3.org/2000/svg" id="emoji" viewBox="0 0 72 72"><g id="color"><rect width="28.8" height="33.6" x="21.6" y="11" fill="#d0cfce" rx="3.056" ry="3.056"/><rect width="22" height="10" x="25" y="18" fill="#3f3f3f"/><rect width="5" height="5" x="25" y="35" fill="#fcea2b"/><rect width="5" height="5" x="42" y="35" fill="#fcea2b"/></g><g id="line"><line x1="25" x2="12" y1="48" y2="61" fill="none" stroke="#000" stroke-linecap="round" stroke-miterlimit="10" stroke-width="2"/><line x1="60" x2="47" y1="61" y2="48" fill="none" stroke="#000" stroke-linecap="round" stroke-miterlimit="10" stroke-width="2"/><line x1="13" x2="59.333" y1="57.936" y2="58.2" fill="none" stroke="#000" stroke-linecap="round" stroke-miterlimit="10" stroke-width="2"/><line x1="17" x2="55.333" y1="53.936" y2="54.2" fill="none" stroke="#000" stroke-linecap="round" stroke-miterlimit="10" stroke-width="2"/><line x1="21" x2="51.333" y1="49.936" y2="50.2" fill="none" stroke="#000" stroke-linecap="round" stroke-miterlimit="10" stroke-width="2"/><path fill="none" stroke="#000" stroke-linecap="round" stroke-linejoin="round" stroke-width="2" d="M47,19v8.8H26"/><polyline fill="none" stroke="#000" stroke-linecap="round" stroke-linejoin="round" stroke-width="2" points="26 40 30 40 30 36"/><polyline fill="none" stroke="#000" stroke-linecap="round" stroke-linejoin="round" stroke-width="2" points="43 40 47 40 47 36"/><rect width="28.8" height="33.6" x="21.6" y="11" fill="none" stroke="#000" stroke-linecap="round" stroke-linejoin="round" stroke-width="2" rx="3.056" ry="3.056"/></g></svg>