<svg xmlns="http://www.w3.org/2000/svg" id="emoji" viewBox="0 0 72 72"><g id="color"><rect width="45.278" height="12.025" x="22.087" y="36.099" fill="#b1cc33"/><rect width="6.341" height="10.646" x="34.919" y="32.77" fill="#92d3f5" rx="1.058" ry="1.058"/><rect width="6.341" height="10.646" x="21.963" y="32.77" fill="#92d3f5" rx="1.058" ry="1.058"/><rect width="6.341" height="10.646" x="47.929" y="32.77" fill="#92d3f5" rx="1.058" ry="1.058"/><rect width="6.341" height="10.646" x="60.939" y="32.77" fill="#92d3f5" rx="1.058" ry="1.058"/><path fill="#d0cfce" d="M34.31,51.6463a4.2445,4.2445,0,1,1-8.4889,0"/><path fill="#d0cfce" d="M63.2766,51.6463a4.2445,4.2445,0,0,1-8.489,0"/><polygon fill="#92d3f5" points="16 22 21 17 26 22 24 23 22 21 20 23 18 22 15 24 14 23 16 22"/><polygon fill="#92d3f5" points="42.167 15.429 50.083 9 58 15.429 54.833 16.714 51.667 14.143 48.5 16.714 45.333 15.429 40.583 18 39 16.714 42.167 15.429"/><rect width="43.938" height="4.063" x="22.757" y="47.584" fill="#3f3f3f"/></g><g id="line"><line x1="4" x2="68" y1="56" y2="56" stroke="#000" stroke-linecap="round" stroke-linejoin="round" stroke-width="2"/><polyline fill="none" stroke="#000" stroke-linecap="round" stroke-linejoin="round" stroke-width="2" points="68 22 50 9 29 24 21 16 4 32"/><path fill="none" stroke="#000" stroke-linecap="round" stroke-miterlimit="10" stroke-width="2.074" d="M23.71,50.6463H22.89a.8909.8909,0,0,1-.8884-.8883V28.8236a1.9023,1.9023,0,0,1,1.8967-1.8967H65.383A1.9023,1.9023,0,0,1,67.28,28.8236V49.7583a.8906.8906,0,0,1-.888.888h-.8291"/><line x1="52.532" x2="36.406" y1="50.646" y2="50.646" fill="none" stroke="#000" stroke-linecap="round" stroke-miterlimit="10" stroke-width="2.074"/><path fill="none" stroke="#000" stroke-linecap="round" stroke-miterlimit="10" stroke-width="2.074" d="M34.31,51.8984a4.2445,4.2445,0,1,1-8.4889,0"/><path fill="none" stroke="#000" stroke-linecap="round" stroke-miterlimit="10" stroke-width="2.074" d="M63.2766,51.6463a4.2445,4.2445,0,0,1-8.489,0"/><rect width="6.341" height="10.646" x="34.919" y="32.78" fill="none" stroke="#000" stroke-linecap="round" stroke-miterlimit="10" stroke-width="2.074" rx="1.058" ry="1.058"/><rect width="6.341" height="10.646" x="21.963" y="32.78" fill="none" stroke="#000" stroke-linecap="round" stroke-miterlimit="10" stroke-width="2.074" rx="1.058" ry="1.058"/><rect width="6.341" height="10.646" x="47.757" y="32.859" fill="none" stroke="#000" stroke-linecap="round" stroke-miterlimit="10" stroke-width="2.074" rx="1.058" ry="1.058"/><rect width="6.341" height="10.646" x="60.939" y="32.859" fill="none" stroke="#000" stroke-linecap="round" stroke-miterlimit="10" stroke-width="2.074" rx="1.058" ry="1.058"/><line x1="20.945" x2="68.313" y1="47.566" y2="47.566" fill="none" stroke="#000" stroke-linecap="round" stroke-miterlimit="10" stroke-width="1.97"/></g></svg>