<svg xmlns="http://www.w3.org/2000/svg" id="emoji" version="1.1" viewBox="0 0 72 72"><g id="color"><path fill="#FFF" d="M15.732,56.0208h-1.6364c-0.6292,0-1.1392-0.5101-1.1392-1.1393V24.1436 c0-0.6292,0.51-1.1393,1.1392-1.1393h1.6364c0.6292,0,1.1393,0.5101,1.1393,1.1393v30.7379 C16.8713,55.5107,16.3612,56.0208,15.732,56.0208z"/><path fill="#FFF" d="M59.2728,56.0208h-1.6364c-0.6292,0-1.1392-0.5101-1.1392-1.1393V24.1436 c0-0.6292,0.51-1.1393,1.1392-1.1393h1.6364c0.6292,0,1.1393,0.5101,1.1393,1.1393v30.7379 C60.4121,55.5107,59.902,56.0208,59.2728,56.0208z"/><rect width="56.757" height="7.124" x="8.121" y="27.667" fill="#FFF"/><rect width="11.351" height="7.124" x="8.121" y="27.667" fill="#EA5A47"/><rect width="11.351" height="7.124" x="19.473" y="27.667" fill="#FFF"/><rect width="11.351" height="7.124" x="30.779" y="27.667" fill="#EA5A47"/><rect width="11.351" height="7.124" x="42.13" y="27.667" fill="#FFF"/><rect width="11.351" height="7.124" x="53.482" y="27.667" fill="#EA5A47"/><rect width="56.757" height="7.124" x="8.121" y="41.667" fill="#FFF"/><rect width="11.351" height="7.124" x="8.121" y="41.667" fill="#EA5A47"/><rect width="11.351" height="7.124" x="19.473" y="41.667" fill="#FFF"/><rect width="11.351" height="7.124" x="30.779" y="41.667" fill="#EA5A47"/><rect width="11.351" height="7.124" x="42.13" y="41.667" fill="#FFF"/><rect width="11.351" height="7.124" x="53.482" y="41.667" fill="#EA5A47"/></g><g id="line"><path fill="none" stroke="#000" stroke-linecap="round" stroke-linejoin="round" stroke-miterlimit="10" stroke-width="2" d="M12.9564,41.1308v-5.941"/><path fill="none" stroke="#000" stroke-linecap="round" stroke-linejoin="round" stroke-miterlimit="10" stroke-width="2" d="M16.8713,48.7903v6.0912c0,0.6292-0.5101,1.1393-1.1393,1.1393h-1.6364c-0.6292,0-1.1392-0.5101-1.1392-1.1393V49.2"/><path fill="none" stroke="#000" stroke-linecap="round" stroke-linejoin="round" stroke-miterlimit="10" stroke-width="2" d="M16.8713,35.1898v5.941"/><path fill="none" stroke="#000" stroke-linecap="round" stroke-linejoin="round" stroke-miterlimit="10" stroke-width="2" d="M12.9564,26.3227v-2.1791c0-0.6292,0.51-1.1393,1.1392-1.1393h1.6364c0.6292,0,1.1393,0.5101,1.1393,1.1393v2.0904"/><path fill="none" stroke="#000" stroke-linecap="round" stroke-linejoin="round" stroke-miterlimit="10" stroke-width="2" d="M56.4972,41.6667v-6.4769"/><path fill="none" stroke="#000" stroke-linecap="round" stroke-linejoin="round" stroke-miterlimit="10" stroke-width="2" d="M60.4121,49.2v5.6815c0,0.6292-0.5101,1.1393-1.1393,1.1393h-1.6364c-0.6292,0-1.1392-0.5101-1.1392-1.1393V49.2"/><path fill="none" stroke="#000" stroke-linecap="round" stroke-linejoin="round" stroke-miterlimit="10" stroke-width="2" d="M60.4121,35.1898v5.5863"/><path fill="none" stroke="#000" stroke-linecap="round" stroke-linejoin="round" stroke-miterlimit="10" stroke-width="2" d="M56.4972,27.1207v-2.9771c0-0.6292,0.51-1.1393,1.1392-1.1393h1.6364c0.6292,0,1.1393,0.5101,1.1393,1.1393v2.8885"/><rect width="56.757" height="7.124" x="8.121" y="27.667" fill="none" stroke="#000" stroke-linecap="round" stroke-linejoin="round" stroke-miterlimit="10" stroke-width="2"/><rect width="11.351" height="7.124" x="8.121" y="27.667" fill="none" stroke="#000" stroke-linecap="round" stroke-linejoin="round" stroke-miterlimit="10" stroke-width="2"/><rect width="11.351" height="7.124" x="19.473" y="27.667" fill="none" stroke="#000" stroke-linecap="round" stroke-linejoin="round" stroke-miterlimit="10" stroke-width="2"/><rect width="11.351" height="7.124" x="30.779" y="27.667" fill="none" stroke="#000" stroke-linecap="round" stroke-linejoin="round" stroke-miterlimit="10" stroke-width="2"/><rect width="11.351" height="7.124" x="42.13" y="27.667" fill="none" stroke="#000" stroke-linecap="round" stroke-linejoin="round" stroke-miterlimit="10" stroke-width="2"/><rect width="11.351" height="7.124" x="53.482" y="27.667" fill="none" stroke="#000" stroke-linecap="round" stroke-linejoin="round" stroke-miterlimit="10" stroke-width="2"/><rect width="56.757" height="7.124" x="8.121" y="41.667" fill="none" stroke="#000" stroke-linecap="round" stroke-linejoin="round" stroke-miterlimit="10" stroke-width="2"/><rect width="11.351" height="7.124" x="8.121" y="41.667" fill="none" stroke="#000" stroke-linecap="round" stroke-linejoin="round" stroke-miterlimit="10" stroke-width="2"/><rect width="11.351" height="7.124" x="19.473" y="41.667" fill="none" stroke="#000" stroke-linecap="round" stroke-linejoin="round" stroke-miterlimit="10" stroke-width="2"/><rect width="11.351" height="7.124" x="30.779" y="41.667" fill="none" stroke="#000" stroke-linecap="round" stroke-linejoin="round" stroke-miterlimit="10" stroke-width="2"/><rect width="11.351" height="7.124" x="42.13" y="41.667" fill="none" stroke="#000" stroke-linecap="round" stroke-linejoin="round" stroke-miterlimit="10" stroke-width="2"/><polyline fill="none" stroke="#000" stroke-linecap="round" stroke-linejoin="round" stroke-miterlimit="10" stroke-width="2" points="60.412 41.667 64.833 41.667 64.833 48.79 53.482 48.79 53.482 41.667 60.412 41.667"/></g></svg>