<svg xmlns="http://www.w3.org/2000/svg" id="emoji" viewBox="0 0 72 72"><g id="color"><path fill="#d0cfce" stroke="none" d="M47,15.82v36c0,3.85-3.15,7-7,7h-8c-3.85,0-7-3.15-7-7v-36c0-3.85,3.15-7,7-7h8 C43.85,8.82,47,11.97,47,15.82z"/><circle cx="36" cy="48.292" r="5" fill="#b1cc33" stroke="none"/><circle cx="36" cy="34.292" r="5" fill="#f4aa41" stroke="none"/><circle cx="36" cy="19.292" r="5" fill="#ea5a47" stroke="none"/></g><g id="line"><path fill="none" stroke="#000" stroke-linecap="round" stroke-linejoin="round" stroke-miterlimit="10" stroke-width="2" d="M47,16v36c0,3.85-3.15,7-7,7h-8c-3.85,0-7-3.15-7-7V16c0-3.85,3.15-7,7-7h8C43.85,9,47,12.15,47,16z"/><circle cx="36" cy="48.472" r="5" fill="none" stroke="#000" stroke-linecap="round" stroke-linejoin="round" stroke-miterlimit="10" stroke-width="2"/><circle cx="36" cy="34.472" r="5" fill="none" stroke="#000" stroke-linecap="round" stroke-linejoin="round" stroke-miterlimit="10" stroke-width="2"/><circle cx="36" cy="19.472" r="5" fill="none" stroke="#000" stroke-linecap="round" stroke-linejoin="round" stroke-miterlimit="10" stroke-width="2"/></g></svg>