<svg xmlns="http://www.w3.org/2000/svg" id="emoji" viewBox="0 0 72 72"><g id="color"><line x1="25.747" x2="36.001" y1="21.002" y2="21.002" fill="#EA5A47" stroke="none"/><polyline fill="#FCEA2B" stroke="none" points="36.002 60.96 61.002 60.96 56.002 20.093 53.432 20.093 18.571 20.093 16.002 20.093 11.002 60.96 36.002 60.96"/><line x1="46.256" x2="36.002" y1="21.002" y2="21.002" fill="#EA5A47" stroke="none"/></g><g id="line"><polyline fill="none" stroke="#000" stroke-linecap="round" stroke-linejoin="round" stroke-miterlimit="10" stroke-width="2" points="36.002 60.96 11.002 60.96 16.002 21.002 18.571 21.002"/><line x1="25.747" x2="36.001" y1="21.002" y2="21.002" fill="none" stroke="#000" stroke-linecap="round" stroke-linejoin="round" stroke-miterlimit="10" stroke-width="2"/><polyline fill="none" stroke="#000" stroke-linecap="round" stroke-linejoin="round" stroke-miterlimit="10" stroke-width="2" points="36.002 60.96 61.002 60.96 56.002 21.002 53.432 21.002"/><line x1="46.256" x2="36.002" y1="21.002" y2="21.002" fill="none" stroke="#000" stroke-linecap="round" stroke-linejoin="round" stroke-miterlimit="10" stroke-width="2"/><path fill="none" stroke="#000" stroke-linecap="round" stroke-linejoin="round" stroke-miterlimit="10" stroke-width="2" d="M22.049,27.662v-6.6199c0-7.7544,6.2862-14.0406,14.0406-14.0406s14.0406,6.2862,14.0406,14.0406v6.6199"/><path fill="none" stroke="#000" stroke-linecap="round" stroke-linejoin="round" stroke-miterlimit="10" stroke-width="2" d="M22.049,21.0421"/></g></svg>