<svg xmlns="http://www.w3.org/2000/svg" id="emoji" viewBox="0 0 72 72"><g id="color"><rect width="38" height="10.7" x="17" y="52.759" fill="#f4aa41"/><rect width="38" height="9.3" x="17" y="43.458" fill="#f4aa41"/><rect width="2" height="4" x="47" y="56.458" fill="#92d3f5" stroke="#92d3f5" stroke-linecap="round" stroke-linejoin="round" stroke-width="2"/><rect width="2" height="4" x="23" y="56.458" fill="#92d3f5" stroke="#92d3f5" stroke-linecap="round" stroke-linejoin="round" stroke-width="2"/><rect width="2" height="2" x="48" y="47.436" fill="#92d3f5" stroke="#92d3f5" stroke-linecap="round" stroke-linejoin="round" stroke-width="2"/><rect width="2" height="2" x="41.5" y="47.436" fill="#92d3f5" stroke="#92d3f5" stroke-linecap="round" stroke-linejoin="round" stroke-width="2"/><rect width="2" height="2" x="35" y="47.436" fill="#92d3f5" stroke="#92d3f5" stroke-linecap="round" stroke-linejoin="round" stroke-width="2"/><rect width="2" height="2" x="28.5" y="47.436" fill="#92d3f5" stroke="#92d3f5" stroke-linecap="round" stroke-linejoin="round" stroke-width="2"/><rect width="2" height="2" x="22" y="47.436" fill="#92d3f5" stroke="#92d3f5" stroke-linecap="round" stroke-linejoin="round" stroke-width="2"/><circle cx="36.063" cy="12.381" r="5" fill="#f4aa41"/><rect width="29.995" height="5.022" x="21.129" y="38.437" fill="#f4aa41"/><rect width="18" height="4.05" x="27" y="23.408" fill="#f4aa41"/><rect width="22" height="6.971" x="25" y="28.487" fill="#f4aa41"/><rect width="27.413" height="3.875" x="22.587" y="33.521" fill="#f4aa41"/><rect width="13" height="4.05" x="29.5" y="19.78" fill="#f4aa41"/><path fill="#e27022" d="M37.5829,7.511a4.9687,4.9687,0,0,1-5.0007,8.32,4.9894,4.9894,0,1,0,5.0007-8.32Z"/><polyline fill="#e27022" points="25.311 42.651 36.062 31.899 46.814 42.651"/><polygon fill="#e27022" points="41.5 63.458 30.5 63.458 30.5 56.458 34.125 56.458 41.5 56.458 41.5 63.458"/></g><g id="line"><rect width="38" height="9.3" x="17" y="43.458" fill="none" stroke="#000" stroke-linecap="round" stroke-linejoin="round" stroke-width="2"/><rect width="38" height="10.7" x="17" y="52.759" fill="none" stroke="#000" stroke-linecap="round" stroke-linejoin="round" stroke-width="2"/><polyline fill="none" stroke="#000" stroke-linecap="round" stroke-linejoin="round" stroke-width="2" points="43.5 38.436 51.124 38.436 51.124 43.458 21.129 43.458 21.129 38.436 28.178 38.436"/><rect width="18" height="4.05" x="27" y="24.408" fill="none" stroke="#000" stroke-linecap="round" stroke-linejoin="round" stroke-width="2"/><polyline fill="none" stroke="#000" stroke-linecap="round" stroke-linejoin="round" stroke-width="2" points="25 32.613 25 28.487 47 28.487 47 32.613"/><polyline fill="none" stroke="#000" stroke-linecap="round" stroke-linejoin="round" stroke-width="2" points="37.517 32.947 50 32.947 50 37.969 42.63 37.969"/><rect width="13.842" height="4.05" x="29.092" y="20.344" fill="none" stroke="#000" stroke-linecap="round" stroke-linejoin="round" stroke-width="2"/><polyline fill="none" stroke="#000" stroke-linecap="round" stroke-linejoin="round" stroke-width="2" points="25.311 42.651 36.062 31.899 46.814 42.651"/><polyline fill="none" stroke="#000" stroke-linecap="round" stroke-linejoin="round" stroke-width="2" points="29.485 37.969 22.587 37.969 22.587 32.947 34.524 32.947"/><polygon fill="none" stroke="#000" stroke-linecap="round" stroke-linejoin="round" stroke-width="2" points="41.5 63.458 30.5 63.458 30.5 56.458 34.125 56.458 41.5 56.458 41.5 63.458"/><polyline fill="none" stroke="#000" stroke-linecap="round" stroke-linejoin="round" stroke-width="2" points="34.062 63.458 34.062 56.458 38.062 56.458 38.062 63.458"/><polyline fill="none" stroke="#000" stroke-linecap="round" stroke-linejoin="round" stroke-width="2" points="49 60.458 47 60.458 47 56.458"/><polyline fill="none" stroke="#000" stroke-linecap="round" stroke-linejoin="round" stroke-width="2" points="24 49.458 22 49.458 22 47.458"/><polyline fill="none" stroke="#000" stroke-linecap="round" stroke-linejoin="round" stroke-width="2" points="50 49.458 48 49.458 48 47.458"/><polyline fill="none" stroke="#000" stroke-linecap="round" stroke-linejoin="round" stroke-width="2" points="43.5 49.458 41.5 49.458 41.5 47.458"/><polyline fill="none" stroke="#000" stroke-linecap="round" stroke-linejoin="round" stroke-width="2" points="37 49.458 35 49.458 35 47.458"/><polyline fill="none" stroke="#000" stroke-linecap="round" stroke-linejoin="round" stroke-width="2" points="30.5 49.458 28.5 49.458 28.5 47.458"/><polyline fill="none" stroke="#000" stroke-linecap="round" stroke-linejoin="round" stroke-width="2" points="25 60.458 23 60.458 23 56.458"/><circle cx="36.063" cy="12.381" r="5" fill="none" stroke="#000" stroke-linecap="round" stroke-linejoin="round" stroke-width="2"/><line x1="36.063" x2="36.063" y1="17.669" y2="20.055" fill="none" stroke="#000" stroke-linecap="round" stroke-linejoin="round" stroke-width="2"/></g></svg>