<svg xmlns="http://www.w3.org/2000/svg" id="emoji" viewBox="0 0 72 72"><g id="color"><path fill="#D0CFCE" stroke="none" d="M9.5037,22.9282l4.7907,6.4314l0,0c-0.4471,1.2757-1.6109,2.1572-2.9506,2.2346h0l-4.7907-6.4314l0,0 C6.7573,23.7261,8.0783,22.7256,9.5037,22.9282L9.5037,22.9282z"/><polygon fill="#9B9B9A" stroke="none" points="42.933 27.819 18.432 58.077 23.966 61.989 45.813 34.661 48.097 31.947"/><path fill="#9B9B9A" stroke="none" d="M46.7811,32.0332c3.2442,2.5754,8.6578,1.1565,12.0916-3.169s3.5876-9.9199,0.3434-12.4953l-5.1471,6.4838 l-2.8327-0.0507l-0.6772-2.7661l5.1323-6.4651c-3.2442-2.5754-8.6578-1.1565-12.0916,3.169s-3.5876,9.9199-0.3434,12.4953"/><polygon fill="#A57939" stroke="none" points="27.347 25.982 39.097 41.705 42.513 44.091 51.631 58.476 51.631 58.476 48.432 60.752 47.366 61.511 37.183 47.885 35.899 43.981 24.148 28.259"/><path fill="#9B9B9A" stroke="none" d="M12.0253,19.9354l5.9453,7.9154l10.177-7.6439l-3.3973-4.5231c0,0,6.7846-5.0959,10.7448-4.5331 c0,0-6.6489-2.9652-13.2928,1.1407S12.0253,19.9354,12.0253,19.9354z"/></g><g id="line"><line x1="41.719" x2="46.781" y1="38.509" y2="32.033" fill="#000" stroke="none"/><line x1="43.363" x2="38.703" y1="29.32" y2="35.08" fill="#000" stroke="none"/><polygon fill="none" stroke="#000" stroke-linecap="round" stroke-linejoin="round" stroke-miterlimit="10" stroke-width="2" points="52 58.906 40.902 43.176 37.808 40.941 27.23 26.226 24.294 28.351 34.871 43.066 36.008 46.717 47.497 62.227"/><path fill="none" stroke="#000" stroke-linecap="round" stroke-linejoin="round" stroke-miterlimit="10" stroke-width="2" d="M12.5106,19.7899l5.7909,8.029l10.323-7.4455l-3.3091-4.588c0,0,6.882-4.9637,10.8306-4.3242c0,0-6.5903-3.0933-13.3124,0.8832 S12.5106,19.7899,12.5106,19.7899z"/><path fill="none" stroke="#000" stroke-linecap="round" stroke-linejoin="round" stroke-miterlimit="10" stroke-width="2" d="M9.9316,22.7333l4.6653,6.5229l0,0c-0.4717,1.2669-1.6524,2.1256-2.9933,2.1771h0l-4.6653-6.5229l0,0 C7.1702,23.4779,8.5104,22.5031,9.9316,22.7333L9.9316,22.7333z"/><line x1="41.289" x2="46.352" y1="38.509" y2="32.033" fill="none" stroke="#000" stroke-linecap="round" stroke-linejoin="round" stroke-miterlimit="10" stroke-width="2"/><line x1="42.933" x2="38.274" y1="29.32" y2="35.08" fill="none" stroke="#000" stroke-linecap="round" stroke-linejoin="round" stroke-miterlimit="10" stroke-width="2"/><path fill="none" stroke="#000" stroke-linecap="round" stroke-linejoin="round" stroke-miterlimit="10" stroke-width="2" d="M46.3516,32.0332c3.2442,2.5754,8.6578,1.1565,12.0916-3.169s3.5876-9.9199,0.3434-12.4953l-5.1471,6.4838l-2.8327-0.0507 l-0.6772-2.7661l5.1323-6.4651c-3.2442-2.5754-8.6578-1.1565-12.0916,3.169c-3.4338,4.3256-3.5876,9.9199-0.3434,12.4953"/><path fill="none" stroke="#000" stroke-miterlimit="10" d="M65.7251,28.3957"/><path fill="none" stroke="#000" stroke-linecap="round" stroke-linejoin="round" stroke-miterlimit="10" stroke-width="2" d="M50,25.9064"/><polyline fill="none" stroke="#000" stroke-linecap="round" stroke-linejoin="round" stroke-miterlimit="10" stroke-width="2" points="30.818 44.386 19 58.906 23 61.906 32.959 49.166"/></g></svg>