<svg xmlns="http://www.w3.org/2000/svg" id="emoji" viewBox="0 0 72 72"><g id="color"><path fill="#EA5A47" stroke="none" d="M58.7568,59.0674V37.2188H13.0186v21.8486H58.7568z"/><path fill="#a57939" stroke="none" d="M23.9005,30.2761c0.29,0.3853,0.7142,0.6346,1.1935,0.7018c0.4827,0.0603,0.9547-0.0583,1.3402-0.3482 c0,0,0,0,0-0.0018c0.7974-0.5995,0.9565-1.7382,0.3554-2.5346c-0.3554-0.4713-0.8982-0.7197-1.4463-0.7197 c-0.3802,0-0.762,0.1186-1.0874,0.3643C23.4585,28.339,23.2994,29.4786,23.9005,30.2761z"/><path fill="#a57939" stroke="none" d="M46.5235,30.5392c0.6857-0.8679,0.5369-2.1317-0.3291-2.8185c-0.3683-0.2909-0.8073-0.432-1.2443-0.432 c-0.5917,0-1.1793,0.2617-1.5752,0.7613c-0.6857,0.8669-0.5389,2.1307,0.3293,2.8185c0.4231,0.331,0.9502,0.4897,1.4772,0.4193 C45.7143,31.225,46.1904,30.9585,46.5235,30.5392z"/><path fill="#D22F27" stroke="none" d="M47.6811,54.4482l-0.0571,4.6192h11.1328V37.2188H47.894l-0.0804,6.5125l0.08-0.0038c0.5527,0,1,0.4473,1,1 v8.7442c0,0.5527-0.4473,1-1,1L47.6811,54.4482z"/></g><g id="line"><path fill="none" stroke="#000" stroke-linecap="round" stroke-linejoin="round" stroke-miterlimit="10" stroke-width="2" d="M45.894,24.6949"/><path fill="none" stroke="#000" stroke-linecap="round" stroke-linejoin="round" stroke-miterlimit="10" stroke-width="2" d="M45.894,24.6949"/><path fill="none" stroke="#000" stroke-linecap="round" stroke-linejoin="round" stroke-miterlimit="10" stroke-width="2" d="M44.2136,24.6949"/><path fill="none" stroke="#000" stroke-linecap="round" stroke-linejoin="round" stroke-miterlimit="10" stroke-width="2" d="M44.2136,24.6949"/><line x1="35.815" x2="35.815" y1="44.728" y2="53.472" fill="none" stroke="#000" stroke-linecap="round" stroke-linejoin="round" stroke-miterlimit="10" stroke-width="2"/><line x1="23.736" x2="23.736" y1="44.728" y2="53.472" fill="none" stroke="#000" stroke-linecap="round" stroke-linejoin="round" stroke-miterlimit="10" stroke-width="2"/><line x1="47.894" x2="47.894" y1="44.728" y2="53.472" fill="none" stroke="#000" stroke-linecap="round" stroke-linejoin="round" stroke-miterlimit="10" stroke-width="2"/><ellipse cx="25.34" cy="29.179" fill="none" stroke="#000" stroke-linecap="round" stroke-linejoin="round" stroke-miterlimit="10" stroke-width="2" rx="2" ry="2" transform="matrix(0.7984 -0.6021 0.6021 0.7984 -12.4611 21.141)"/><line x1="38.775" x2="50.293" y1="19.046" y2="10.359" fill="none" stroke="#000" stroke-linecap="round" stroke-linejoin="round" stroke-miterlimit="10" stroke-width="2"/><line x1="26.937" x2="31.978" y1="27.975" y2="24.173" fill="none" stroke="#000" stroke-linecap="round" stroke-linejoin="round" stroke-miterlimit="10" stroke-width="2"/><ellipse cx="44.944" cy="29.234" fill="none" stroke="#000" stroke-linecap="round" stroke-linejoin="round" stroke-miterlimit="10" stroke-width="2" rx="2" ry="2" transform="matrix(0.6204 -0.7843 0.7843 0.6204 -5.8665 46.3483)"/><line x1="21.337" x2="43.375" y1="10.562" y2="27.993" fill="none" stroke="#000" stroke-linecap="round" stroke-linejoin="round" stroke-miterlimit="10" stroke-width="2"/><rect width="47.739" height="23.849" x="12.018" y="36.219" fill="none" stroke="#000" stroke-linecap="round" stroke-linejoin="round" stroke-miterlimit="10" stroke-width="2"/></g></svg>