<svg xmlns="http://www.w3.org/2000/svg" id="emoji" viewBox="0 0 72 72"><g id="color"><rect width="5" height="5" x="28" y="26" fill="#F4AA41" stroke="none"/><rect width="5" height="5" x="41" y="26" fill="#F4AA41" stroke="none"/><path fill="#E27022" stroke="none" d="M32,30c-6.3454,0.2919-20,0.0758-20,15.8696S34,41,34,41"/><path fill="#E27022" stroke="none" d="M42,30c6.3454,0.2919,20.5808,0.0758,20.5808,15.8696S40,40,40,40"/><path fill="#F4AA41" stroke="none" d="M40.6391,20.5921c0,0,17.8007-14.2406,17.8007-3.5601s-6.2303,5.3402-8.0103,8.9004 s-4.4502,0.89-4.4502,0.89L42,27l-3,6"/><path fill="#F4AA41" stroke="none" d="M33.3609,20.5921c0,0-17.8007-14.2406-17.8007-3.5601s6.2302,5.3402,8.0103,8.9004S28,27,28,27h5l2,6"/><ellipse cx="36.921" cy="17.922" fill="#A57939" stroke="none" rx="3.56" ry="2.67"/><ellipse cx="36.921" cy="22.372" fill="#6A462F" stroke="none" rx="3.56" ry="1.78"/><path fill="#A57939" stroke="none" d="M36.3298,24.309c-8.1753,0.759,0.6444,22.9841,0.6444,22.9841S47.2839,23.292,36.3298,24.309z"/></g><g id="line"><path fill="none" stroke="#000" stroke-linecap="round" stroke-linejoin="round" stroke-miterlimit="10" stroke-width="2" d="M40.6391,20.5921c0,0,17.8007-14.2406,17.8007-3.5601s-6.2303,5.3402-8.0103,8.9004s-4.4502,0.89-4.4502,0.89"/><line x1="35.141" x2="33.361" y1="14.771" y2="11.582" fill="none" stroke="#000" stroke-linecap="round" stroke-linejoin="round" stroke-miterlimit="10" stroke-width="2"/><line x1="38.998" x2="40.481" y1="14.845" y2="11.582" fill="none" stroke="#000" stroke-linecap="round" stroke-linejoin="round" stroke-miterlimit="10" stroke-width="2"/><path fill="none" stroke="#000" stroke-linecap="round" stroke-linejoin="round" stroke-miterlimit="10" stroke-width="2" d="M33.3609,20.5921c0,0-17.8007-14.2406-17.8007-3.5601s6.2302,5.3402,8.0103,8.9004s4.4502,0.89,4.4502,0.89"/><ellipse cx="36.921" cy="17.922" fill="none" stroke="#000" stroke-linecap="round" stroke-linejoin="round" stroke-miterlimit="10" stroke-width="2" rx="3.56" ry="2.67"/><ellipse cx="36.921" cy="22.372" fill="none" stroke="#000" stroke-linecap="round" stroke-linejoin="round" stroke-miterlimit="10" stroke-width="2" rx="3.56" ry="1.78"/><path fill="none" stroke="#000" stroke-linecap="round" stroke-linejoin="round" stroke-miterlimit="10" stroke-width="2" d="M36.3298,24.309c-8.1753,0.759,0.6444,22.9841,0.6444,22.9841S47.2839,23.292,36.3298,24.309z"/><path fill="none" stroke="#000" stroke-linecap="round" stroke-linejoin="round" stroke-miterlimit="10" stroke-width="2" d="M28,31c-6.3454,0.2919-16-0.9242-16,14.8696s19.5808-3.9167,19.5808-3.9167"/><path fill="none" stroke="#000" stroke-linecap="round" stroke-linejoin="round" stroke-miterlimit="10" stroke-width="2" d="M46.5808,31c6.3454,0.2919,16-0.9242,16,14.8696S43,41.9529,43,41.9529"/></g></svg>