<svg xmlns="http://www.w3.org/2000/svg" id="emoji" viewBox="0 0 72 72"><g id="line-supplement"><line x1="41.84" x2="39.428" y1="16.692" y2="24.209" fill="none" stroke="#000" stroke-linecap="round" stroke-miterlimit="10" stroke-width="2"/><line x1="28.69" x2="31.157" y1="15.836" y2="23.836" fill="none" stroke="#000" stroke-linecap="round" stroke-miterlimit="10" stroke-width="2"/><line x1="17.149" x2="24.541" y1="23.052" y2="28.299" fill="none" stroke="#000" stroke-linecap="round" stroke-miterlimit="10" stroke-width="2"/><line x1="14.71" x2="22.605" y1="36.234" y2="36.205" fill="none" stroke="#000" stroke-linecap="round" stroke-miterlimit="10" stroke-width="2"/><line x1="18.412" x2="24.781" y1="48.696" y2="44.032" fill="none" stroke="#000" stroke-linecap="round" stroke-miterlimit="10" stroke-width="2"/><line x1="29.135" x2="32.047" y1="55.308" y2="47.291" fill="none" stroke="#000" stroke-linecap="round" stroke-miterlimit="10" stroke-width="2"/><line x1="42.285" x2="40.318" y1="56.164" y2="49.164" fill="none" stroke="#000" stroke-linecap="round" stroke-miterlimit="10" stroke-width="2"/><line x1="52.839" x2="46.935" y1="48.317" y2="43.701" fill="none" stroke="#000" stroke-linecap="round" stroke-miterlimit="10" stroke-width="2"/><line x1="57.765" x2="48.87" y1="35.766" y2="35.795" fill="none" stroke="#000" stroke-linecap="round" stroke-miterlimit="10" stroke-width="2"/><line x1="53.564" x2="46.194" y1="23.304" y2="28.468" fill="none" stroke="#000" stroke-linecap="round" stroke-miterlimit="10" stroke-width="2"/></g><g id="color"><path fill="#ea5a47" d="M50.4876,36a15,15,0,1,1-15-15A15,15,0,0,1,50.4876,36Z"/><path fill="#d22f27" d="M45.2977,24.67A16.9861,16.9861,0,0,1,30.4876,50c-.1382,0-.2728-.0143-.41-.0176A14.9871,14.9871,0,0,0,45.2977,24.67Z"/><g><line x1="41.84" x2="39.428" y1="16.692" y2="24.209" fill="none" stroke="#d22f27" stroke-linecap="round" stroke-miterlimit="10" stroke-width="2"/><line x1="28.69" x2="31.157" y1="15.836" y2="23.836" fill="none" stroke="#d22f27" stroke-linecap="round" stroke-miterlimit="10" stroke-width="2"/><line x1="17.149" x2="24.541" y1="23.052" y2="28.299" fill="none" stroke="#d22f27" stroke-linecap="round" stroke-miterlimit="10" stroke-width="2"/><line x1="14.71" x2="22.605" y1="36.234" y2="36.205" fill="none" stroke="#d22f27" stroke-linecap="round" stroke-miterlimit="10" stroke-width="2"/><line x1="18.412" x2="24.781" y1="48.696" y2="44.032" fill="none" stroke="#d22f27" stroke-linecap="round" stroke-miterlimit="10" stroke-width="2"/><line x1="29.135" x2="32.047" y1="55.308" y2="47.291" fill="none" stroke="#d22f27" stroke-linecap="round" stroke-miterlimit="10" stroke-width="2"/><line x1="42.285" x2="40.318" y1="56.164" y2="49.164" fill="none" stroke="#d22f27" stroke-linecap="round" stroke-miterlimit="10" stroke-width="2"/><line x1="52.839" x2="46.935" y1="48.317" y2="43.701" fill="none" stroke="#d22f27" stroke-linecap="round" stroke-miterlimit="10" stroke-width="2"/><line x1="57.765" x2="48.87" y1="35.766" y2="35.795" fill="none" stroke="#d22f27" stroke-linecap="round" stroke-miterlimit="10" stroke-width="2"/><line x1="53.564" x2="46.194" y1="23.304" y2="28.468" fill="none" stroke="#d22f27" stroke-linecap="round" stroke-miterlimit="10" stroke-width="2"/></g></g><g id="line"><path fill="none" stroke="#000" stroke-linecap="round" stroke-linejoin="round" stroke-width="2" d="M50.4876,36a15,15,0,1,1-15-15A15,15,0,0,1,50.4876,36Z"/><g><polygon fill="none" stroke="#000" stroke-linecap="round" stroke-linejoin="round" stroke-width="1.5" points="38.983 15.497 44.898 17.42 41.606 17.42 38.983 15.497"/><polygon fill="none" stroke="#000" stroke-linecap="round" stroke-linejoin="round" stroke-width="1.5" points="30.592 14.628 25.97 15.954 28.804 16.115 30.592 14.628"/><polygon fill="none" stroke="#000" stroke-linecap="round" stroke-linejoin="round" stroke-width="1.5" points="15.303 25.328 18.484 20.142 17.925 23.596 15.303 25.328"/><polygon fill="none" stroke="#000" stroke-linecap="round" stroke-linejoin="round" stroke-width="1.5" points="13.933 38.166 13.958 34.101 15.149 36.134 13.933 38.166"/><polygon fill="none" stroke="#000" stroke-linecap="round" stroke-linejoin="round" stroke-width="1.5" points="19.549 51.064 16.365 47.31 18.929 48.317 19.549 51.064"/><polygon fill="none" stroke="#000" stroke-linecap="round" stroke-linejoin="round" stroke-width="1.5" points="31.612 57.008 25.697 55.086 29.153 55.319 31.612 57.008"/><polygon fill="none" stroke="#000" stroke-linecap="round" stroke-linejoin="round" stroke-width="1.5" points="45.005 55.546 39.884 57.372 42.142 55.729 45.005 55.546"/><polygon fill="none" stroke="#000" stroke-linecap="round" stroke-linejoin="round" stroke-width="1.5" points="54.382 46.814 51.702 50.5 52.529 48.075 54.382 46.814"/><polygon fill="none" stroke="#000" stroke-linecap="round" stroke-linejoin="round" stroke-width="1.5" points="58.018 38.899 58.042 32.834 57.187 35.766 58.018 38.899"/><polygon fill="none" stroke="#000" stroke-linecap="round" stroke-linejoin="round" stroke-width="1.5" points="52.016 20.787 55.465 25.415 53.163 23.582 52.016 20.787"/></g><g><circle cx="42.654" cy="32.49" r="1.25"/><circle cx="28.654" cy="29.49" r="1.25"/><circle cx="35.654" cy="28.49" r="1.25"/><circle cx="37.654" cy="44.49" r="1.25"/><circle cx="31.654" cy="34.74" r="2"/><circle cx="31.154" cy="41.74" r="2"/><circle cx="39.654" cy="37.74" r="3"/></g></g><g id="color-foreground"><line x1="40.634" x2="39.428" y1="20.45" y2="24.209" fill="none" stroke="#d22f27" stroke-linecap="round" stroke-miterlimit="10" stroke-width="2"/><line x1="29.598" x2="31.157" y1="18.782" y2="23.836" fill="none" stroke="#d22f27" stroke-linecap="round" stroke-miterlimit="10" stroke-width="2"/><line x1="20.094" x2="24.541" y1="25.143" y2="28.299" fill="none" stroke="#d22f27" stroke-linecap="round" stroke-miterlimit="10" stroke-width="2"/><line x1="17.989" x2="22.605" y1="36.234" y2="36.205" fill="none" stroke="#d22f27" stroke-linecap="round" stroke-miterlimit="10" stroke-width="2"/><line x1="21.318" x2="24.781" y1="46.568" y2="44.032" fill="none" stroke="#d22f27" stroke-linecap="round" stroke-miterlimit="10" stroke-width="2"/><line x1="30.226" x2="31.547" y1="52.304" y2="48.291" fill="none" stroke="#d22f27" stroke-linecap="round" stroke-miterlimit="10" stroke-width="2"/><line x1="41.403" x2="40.318" y1="53.025" y2="49.164" fill="none" stroke="#d22f27" stroke-linecap="round" stroke-miterlimit="10" stroke-width="2"/><line x1="50.206" x2="46.935" y1="46.258" y2="43.701" fill="none" stroke="#d22f27" stroke-linecap="round" stroke-miterlimit="10" stroke-width="2"/><line x1="53.931" x2="48.87" y1="35.779" y2="35.795" fill="none" stroke="#d22f27" stroke-linecap="round" stroke-miterlimit="10" stroke-width="2"/><line x1="50.552" x2="46.194" y1="25.415" y2="28.468" fill="none" stroke="#d22f27" stroke-linecap="round" stroke-miterlimit="10" stroke-width="2"/></g></svg>