<svg xmlns="http://www.w3.org/2000/svg" id="emoji" viewBox="0 0 72 72"><g id="color"><g><rect width="47.934" height="47.934" x="11.97" y="11.93" fill="#f4aa41" rx="1.961"/><path fill="#e27022" d="M58.5517,12.5333H14.5389a1.9607,1.9607,0,0,0-1.9607,1.9608v3.5181H48.0065a1.9607,1.9607,0,0,1,1.9607,1.9607V60.4676h8.5845a1.9607,1.9607,0,0,0,1.9607-1.9608V14.4941A1.9607,1.9607,0,0,0,58.5517,12.5333Z"/><path fill="#e27022" d="M24.9477,19.6574H19.7133a.2332.2332,0,0,0-.2332.2331v.9013h3.8912a.2332.2332,0,0,1,.2332.2331v4.3332h1.3432a.2332.2332,0,0,0,.2332-.2332V19.8905A.2332.2332,0,0,0,24.9477,19.6574Z"/><path fill="#e27022" d="M38.5541,19.6574H33.32a.2332.2332,0,0,0-.2332.2331v.9013h3.8911a.2332.2332,0,0,1,.2332.2331v4.3332h1.3432a.2332.2332,0,0,0,.2333-.2332V19.8905A.2332.2332,0,0,0,38.5541,19.6574Z"/><path fill="#e27022" d="M51.8732,19.6574H46.6388a.2331.2331,0,0,0-.2331.2331v.9013h3.8911a.2332.2332,0,0,1,.2332.2331v4.3332h1.3432a.2332.2332,0,0,0,.2332-.2332V19.8905A.2332.2332,0,0,0,51.8732,19.6574Z"/><path fill="#e27022" d="M24.9477,33.3585H19.7133a.2332.2332,0,0,0-.2332.2332v.9012h3.8912a.2332.2332,0,0,1,.2332.2332v4.3332h1.3432a.2332.2332,0,0,0,.2332-.2333V33.5917A.2332.2332,0,0,0,24.9477,33.3585Z"/><path fill="#e27022" d="M38.5384,33.3743H33.304a.2332.2332,0,0,0-.2332.2331v.9013H36.962a.2332.2332,0,0,1,.2332.2331V39.075h1.3432a.2332.2332,0,0,0,.2332-.2332V33.6074A.2332.2332,0,0,0,38.5384,33.3743Z"/><path fill="#e27022" d="M51.8852,33.3585H46.6508a.2333.2333,0,0,0-.2332.2332v.9012h3.8912a.2332.2332,0,0,1,.2332.2332v4.3332h1.3432a.2332.2332,0,0,0,.2332-.2333V33.5917A.2332.2332,0,0,0,51.8852,33.3585Z"/><path fill="#e27022" d="M24.9477,47.06H19.7133a.2332.2332,0,0,0-.2332.2332v.9012h3.8912a.2332.2332,0,0,1,.2332.2332V52.76h1.3432a.2332.2332,0,0,0,.2332-.2332V47.2928A.2332.2332,0,0,0,24.9477,47.06Z"/><path fill="#e27022" d="M38.5541,47.06H33.32a.2332.2332,0,0,0-.2332.2332v.9012h3.8911a.2332.2332,0,0,1,.2332.2332V52.76h1.3432a.2332.2332,0,0,0,.2333-.2332V47.2928A.2332.2332,0,0,0,38.5541,47.06Z"/><path fill="#e27022" d="M51.8873,47.06H46.6529a.2332.2332,0,0,0-.2332.2332v.9012h3.8912a.2332.2332,0,0,1,.2332.2332V52.76h1.3432a.2332.2332,0,0,0,.2332-.2332V47.2928A.2332.2332,0,0,0,51.8873,47.06Z"/></g></g><g id="line"><g><rect width="47.934" height="47.934" x="11.97" y="11.93" fill="none" stroke="#000" stroke-miterlimit="10" stroke-width="2" rx="1.961"/><rect width="7.312" height="7.312" x="18.798" y="18.852" fill="none" stroke="#000" stroke-miterlimit="10" stroke-width="2" rx=".299"/><rect width="7.312" height="7.312" x="32.414" y="18.852" fill="none" stroke="#000" stroke-miterlimit="10" stroke-width="2" rx=".299"/><rect width="7.312" height="7.312" x="45.783" y="18.852" fill="none" stroke="#000" stroke-miterlimit="10" stroke-width="2" rx=".299"/><rect width="7.312" height="7.312" x="18.798" y="32.456" fill="none" stroke="#000" stroke-miterlimit="10" stroke-width="2" rx=".299"/><rect width="7.312" height="7.312" x="32.414" y="32.456" fill="none" stroke="#000" stroke-miterlimit="10" stroke-width="2" rx=".299"/><rect width="7.312" height="7.312" x="45.783" y="32.456" fill="none" stroke="#000" stroke-miterlimit="10" stroke-width="2" rx=".299"/><rect width="7.312" height="7.312" x="18.798" y="46.254" fill="none" stroke="#000" stroke-miterlimit="10" stroke-width="2" rx=".299"/><rect width="7.312" height="7.312" x="32.414" y="46.254" fill="none" stroke="#000" stroke-miterlimit="10" stroke-width="2" rx=".299"/><rect width="7.312" height="7.312" x="45.783" y="46.254" fill="none" stroke="#000" stroke-miterlimit="10" stroke-width="2" rx=".299"/></g></g></svg>