<svg xmlns="http://www.w3.org/2000/svg" id="emoji" viewBox="0 0 72 72"><g id="color"><rect width="41.633" height="26.487" x="15.605" y="25.672" fill="#ffa7c0" rx="10.965" ry="10.965"/><path fill="#61b2e4" d="M18.9426,34.3527a4.1622,4.1622,0,0,1-4.1633,4.1634,3.9106,3.9106,0,0,1-1.5613-.3123,4.1509,4.1509,0,0,1,0-7.7022,3.9088,3.9088,0,0,1,1.5613-.3122A4.1621,4.1621,0,0,1,18.9426,34.3527Z"/><ellipse cx="14.259" cy="34.353" fill="#92d3f5" rx="2.602" ry="3.851"/><ellipse cx="19.675" cy="23.708" fill="#92d3f5" rx="3.802" ry="4.684" transform="translate(-8.259 10.7131) rotate(-25.3628)"/><path fill="#61b2e4" d="M31.6443,23.2787a5.2061,5.2061,0,0,1-1.8034,7.1354,5.5518,5.5518,0,0,1-1.4581.6032,5.2188,5.2188,0,0,1-5.0975-8.5455,5.5512,5.5512,0,0,1,1.2235-.9965A5.2062,5.2062,0,0,1,31.6443,23.2787Z"/><ellipse cx="25.853" cy="26.851" fill="#92d3f5" rx="3.691" ry="5.154" transform="translate(-11.3165 29.6449) rotate(-50.3837)"/></g><g id="line"><path fill="none" stroke="#000" stroke-miterlimit="10" stroke-width="2" d="M21.2364,27.2573a11.3923,11.3923,0,0,0-3.9031,3.8094"/><path fill="none" stroke="#000" stroke-miterlimit="10" stroke-width="2" d="M31.499,25.6752H45.8209a11.4406,11.4406,0,0,1,11.418,11.4075v3.6638A11.4406,11.4406,0,0,1,45.8209,52.154H27.0234A11.4406,11.4406,0,0,1,15.6055,40.7465V38.4358"/><line x1="24.948" x2="47.896" y1="35.896" y2="35.896" fill="none" stroke="#000" stroke-linecap="round" stroke-linejoin="round" stroke-width="2"/><line x1="24.948" x2="47.896" y1="41.935" y2="41.935" fill="none" stroke="#000" stroke-linecap="round" stroke-linejoin="round" stroke-width="2"/><circle cx="14.779" cy="34.353" r="4.163" fill="none" stroke="#000" stroke-miterlimit="10" stroke-width="2"/><path fill="none" stroke="#000" stroke-linecap="round" stroke-linejoin="round" stroke-width="2" d="M23.6752,21.87a5.1348,5.1348,0,0,0-.4909.3643,4.1077,4.1077,0,0,0-.1777-.4986,4.1633,4.1633,0,1,0-1.9787,5.5454c.0665-.0315.1208-.0771.1848-.1116A5.1985,5.1985,0,1,0,23.6752,21.87Z"/></g></svg>