<svg xmlns="http://www.w3.org/2000/svg" id="emoji" viewBox="0 0 72 72"><g id="color"><polygon fill="#a57939" points="36 35.129 17.213 35.084 22.09 58.34 36 58.34 49.91 58.34 54.787 35.084 36 35.129"/><polygon fill="#a57939" points="15.092 27.478 15.092 35.15 56.608 35.15 57.357 27.478 15.092 27.478"/><path fill="#a57939" d="M31.6746,32.2975,22.4853,17.56c-1.1159-1.79-.83-3.9827.638-4.8982h0c1.4682-.9156,3.5631-.207,4.6791,1.5827L38.9357,32.2975Z"/></g><g id="line"><polygon fill="none" stroke="#000" stroke-linecap="round" stroke-linejoin="round" stroke-width="2" points="36 35.129 17.213 35.084 22.09 58.34 36 58.34 49.91 58.34 54.787 35.084 36 35.129"/><path fill="none" stroke="#000" stroke-linecap="round" stroke-linejoin="round" stroke-width="2" d="M31.6746,32.2975,22.4853,17.56c-1.1159-1.79-.83-3.9827.638-4.8982h0c1.4682-.9156,3.5631-.207,4.6791,1.5827L38.9357,32.2975Z"/><g><line x1="39.176" x2="47.889" y1="37.792" y2="47.37" fill="none" stroke="#000" stroke-linecap="round" stroke-linejoin="round" stroke-width="2"/><line x1="28.915" x2="44.735" y1="37.65" y2="55.264" fill="none" stroke="#000" stroke-linecap="round" stroke-linejoin="round" stroke-width="2"/><line x1="23.845" x2="36.383" y1="41.502" y2="55.7" fill="none" stroke="#000" stroke-linecap="round" stroke-linejoin="round" stroke-width="2"/><line x1="25.283" x2="26.667" y1="54.099" y2="55.477" fill="none" stroke="#000" stroke-linecap="round" stroke-linejoin="round" stroke-width="2"/><line x1="24.564" x2="32.575" y1="46.465" y2="37.792" fill="none" stroke="#000" stroke-linecap="round" stroke-linejoin="round" stroke-width="2"/><line x1="26.876" x2="43.394" y1="55.352" y2="37.792" fill="none" stroke="#000" stroke-linecap="round" stroke-linejoin="round" stroke-width="2"/><line x1="36.383" x2="48.445" y1="55.7" y2="43.216" fill="none" stroke="#000" stroke-linecap="round" stroke-linejoin="round" stroke-width="2"/><line x1="44.735" x2="46.896" y1="55.264" y2="53.442" fill="none" stroke="#000" stroke-linecap="round" stroke-linejoin="round" stroke-width="2"/></g><circle cx="33.874" cy="29.837" r=".886"/><polyline fill="none" stroke="#000" stroke-linecap="round" stroke-linejoin="round" stroke-width="2" points="36.383 27.427 57.357 27.427 57.357 35.092 14.643 35.092 14.643 27.427 27.849 27.427"/></g></svg>