<svg xmlns="http://www.w3.org/2000/svg" id="emoji" viewBox="0 0 72 72"><g id="color"><rect width="22" height="19" x="25" y="27" fill="#e67a94" transform="rotate(-45 36 36.5)"/><rect width="10.857" height="19" x="19.056" y="38.516" fill="#ffa7c0" transform="rotate(-45 24.484 48.016)"/><rect width="19" height="19" x="12.105" y="41.395" fill="#ffa7c0" rx="8.821" ry="8.821" transform="rotate(-45 21.605 50.895)"/><rect width="10.857" height="19" x="42.087" y="15.484" fill="#ffa7c0" transform="rotate(135 47.516 24.984)"/><rect width="19" height="19" x="40.895" y="12.605" fill="#ffa7c0" rx="9.5" ry="9.5" transform="rotate(135 50.395 22.105)"/><circle cx="19.974" cy="44.465" r=".679" fill="#e67a94"/><circle cx="22.661" cy="47.152" r=".679" fill="#e67a94"/><circle cx="25.348" cy="49.839" r=".679" fill="#e67a94"/><circle cx="28.035" cy="52.526" r=".679" fill="#e67a94"/><circle cx="17.095" cy="47.344" r=".679" fill="#e67a94"/><circle cx="19.782" cy="50.031" r=".679" fill="#e67a94"/><circle cx="22.469" cy="52.718" r=".679" fill="#e67a94"/><circle cx="25.156" cy="55.405" r=".679" fill="#e67a94"/><circle cx="46.844" cy="17.595" r=".679" fill="#e67a94"/><circle cx="49.531" cy="20.282" r=".679" fill="#e67a94"/><circle cx="52.218" cy="22.969" r=".679" fill="#e67a94"/><circle cx="54.905" cy="25.656" r=".679" fill="#e67a94"/><circle cx="43.965" cy="20.474" r=".679" fill="#e67a94"/><circle cx="46.652" cy="23.161" r=".679" fill="#e67a94"/><circle cx="49.339" cy="25.848" r=".679" fill="#e67a94"/><circle cx="52.026" cy="28.535" r=".679" fill="#e67a94"/></g><g id="line"><line x1="43.677" x2="14.888" y1="15.388" y2="44.177" stroke="#000" stroke-miterlimit="10" stroke-width="2"/><line x1="21.605" x2="35.04" y1="37.46" y2="50.895" fill="none" stroke="#000" stroke-miterlimit="10" stroke-width="2"/><path fill="none" stroke="#000" stroke-miterlimit="10" stroke-width="2" d="M57.1122,28.8228a9.5,9.5,0,0,0-13.435-13.435"/><path fill="none" stroke="#000" stroke-miterlimit="10" stroke-width="2" d="M28.3228,57.6122a9.5,9.5,0,0,1-13.435-13.435"/><line x1="36.96" x2="50.395" y1="22.105" y2="35.54" fill="none" stroke="#000" stroke-miterlimit="10" stroke-width="2"/><line x1="28.323" x2="57.112" y1="57.612" y2="28.823" fill="none" stroke="#000" stroke-miterlimit="10" stroke-width="2"/><circle cx="19.974" cy="44.465" r=".679"/><circle cx="22.661" cy="47.152" r=".679"/><circle cx="25.348" cy="49.839" r=".679"/><circle cx="28.035" cy="52.526" r=".679"/><circle cx="17.095" cy="47.344" r=".679"/><circle cx="19.782" cy="50.031" r=".679"/><circle cx="22.469" cy="52.718" r=".679"/><circle cx="25.156" cy="55.405" r=".679"/><circle cx="46.844" cy="17.595" r=".679"/><circle cx="49.531" cy="20.282" r=".679"/><circle cx="52.218" cy="22.969" r=".679"/><circle cx="54.905" cy="25.656" r=".679"/><circle cx="43.965" cy="20.474" r=".679"/><circle cx="46.652" cy="23.161" r=".679"/><circle cx="49.339" cy="25.848" r=".679"/><circle cx="52.026" cy="28.535" r=".679"/></g></svg>