<svg xmlns="http://www.w3.org/2000/svg" id="emoji" viewBox="0 0 72 72"><g id="color"><polyline fill="#d0cfce" stroke="#d0cfce" stroke-linecap="round" stroke-linejoin="round" stroke-miterlimit="10" stroke-width="2" points="53.756 19.737 58.342 16.187 61.402 20.141 57.149 23.432"/><rect width="11.008" height="6.294" x="31.313" y="7" fill="#d0cfce" stroke="none"/><circle cx="36.821" cy="36.294" r="23" fill="#FFF" stroke="none" stroke-linecap="round" stroke-linejoin="round" stroke-miterlimit="10" stroke-width="2"/><path fill="#FFF" stroke="none" stroke-linecap="round" stroke-linejoin="round" stroke-miterlimit="10" stroke-width="2" d="M25.2945,46.5054"/></g><g id="line"><circle cx="36.821" cy="36.294" r="23" fill="none" stroke="#000" stroke-linecap="round" stroke-linejoin="round" stroke-miterlimit="10" stroke-width="2"/><path fill="none" stroke="#000" stroke-linecap="round" stroke-linejoin="round" stroke-miterlimit="10" stroke-width="2" d="M57.4424,22.4315"/><path fill="none" stroke="#000" stroke-linecap="round" stroke-linejoin="round" stroke-miterlimit="10" stroke-width="2" d="M57.9904,22.0073"/><path fill="none" stroke="#000" stroke-linecap="round" stroke-linejoin="round" stroke-miterlimit="10" stroke-width="2" d="M58.5696,21.5591"/><polyline fill="none" stroke="#000" stroke-linecap="round" stroke-linejoin="round" stroke-miterlimit="10" stroke-width="2" points="56.366 17.717 58.342 16.187 61.402 20.141 59.57 21.559"/><path fill="none" stroke="#000" stroke-linecap="round" stroke-linejoin="round" stroke-miterlimit="10" stroke-width="2" d="M54.6692,18.2559"/><polyline fill="none" stroke="#000" stroke-linecap="round" stroke-linejoin="round" stroke-miterlimit="10" stroke-width="2" points="32.321 9.727 32.321 7 41.321 7 41.321 9.893"/><circle cx="36.347" cy="16.982" r="1" fill="#000" stroke="none"/><circle cx="36.347" cy="55.024" r="1" fill="#000" stroke="none"/><ellipse cx="49.797" cy="22.553" fill="#000" stroke="none" rx=".988" ry="1.012" transform="matrix(0.7071 -0.7071 0.7071 0.7071 -1.3619 41.8177)"/><ellipse cx="22.898" cy="49.453" fill="#000" stroke="none" rx=".988" ry="1.012" transform="matrix(0.7071 -0.7071 0.7071 0.7071 -28.2619 30.6754)"/><circle cx="55.369" cy="36.003" r="1" fill="#000" stroke="none"/><circle cx="17.326" cy="36.003" r="1" fill="#000" stroke="none"/><line x1="36.84" x2="21.44" y1="35.91" y2="35.91" fill="#000" stroke="#000" stroke-linecap="round" stroke-linejoin="round" stroke-miterlimit="10" stroke-width="2"/><line x1="36.885" x2="25.995" y1="35.925" y2="46.815" fill="#000" stroke="#000" stroke-linecap="round" stroke-linejoin="round" stroke-miterlimit="10" stroke-width="2"/><path fill="none" stroke="#000" stroke-linecap="round" stroke-linejoin="round" stroke-miterlimit="10" stroke-width="2" d="M25.2945,46.5054"/><ellipse cx="49.797" cy="49.453" fill="#000" stroke="none" rx="1.012" ry=".988" transform="matrix(0.7071 -0.7071 0.7071 0.7071 -20.3831 49.6965)"/><ellipse cx="22.898" cy="22.553" fill="#000" stroke="none" rx="1.012" ry=".988" transform="matrix(0.7071 -0.7071 0.7071 0.7071 -9.2407 22.7965)"/><path fill="none" stroke="#000" stroke-linecap="round" stroke-linejoin="round" stroke-miterlimit="10" stroke-width="2" d="M57.4425,22.4315"/><path fill="none" stroke="#000" stroke-linecap="round" stroke-linejoin="round" stroke-miterlimit="10" stroke-width="2" d="M57.9905,22.0073"/><path fill="none" stroke="#000" stroke-linecap="round" stroke-linejoin="round" stroke-miterlimit="10" stroke-width="2" d="M58.5697,21.5591"/><path fill="none" stroke="#000" stroke-linecap="round" stroke-linejoin="round" stroke-miterlimit="10" stroke-width="2" d="M54.6693,18.2559"/><path fill="none" stroke="#000" stroke-linecap="round" stroke-linejoin="round" stroke-miterlimit="10" stroke-width="2" d="M57.4424,22.4315"/><path fill="none" stroke="#000" stroke-linecap="round" stroke-linejoin="round" stroke-miterlimit="10" stroke-width="2" d="M58.5696,21.5591"/><path fill="none" stroke="#000" stroke-linecap="round" stroke-linejoin="round" stroke-miterlimit="10" stroke-width="2" d="M54.6692,18.2559"/></g></svg>