<svg xmlns="http://www.w3.org/2000/svg" id="emoji" viewBox="0 0 72 72"><g id="color"><path fill="#9b9b9a" stroke="none" stroke-linecap="round" stroke-linejoin="round" stroke-miterlimit="10" stroke-width="2" d="M12.6048,57.6825v-23c0-12.7025,10.2975-23,23-23s23,10.2975,23,23v23H12.6048z"/><circle cx="35.605" cy="34.682" r="15" fill="#d0cfce" stroke="none" stroke-linecap="round" stroke-linejoin="round" stroke-miterlimit="10" stroke-width="2"/><circle cx="35.605" cy="34.682" r="15" fill="#FFF" stroke="none" stroke-linecap="round" stroke-linejoin="round" stroke-miterlimit="10" stroke-width="2"/><line x1="35.417" x2="28.605" y1="35.087" y2="35.087" fill="#FFF" stroke="none" stroke-linecap="round" stroke-linejoin="round" stroke-miterlimit="10" stroke-width="1.758"/></g><g id="line"><path fill="none" stroke="#000" stroke-linecap="round" stroke-linejoin="round" stroke-miterlimit="10" stroke-width="2" d="M12.6048,57.6825v-23c0-12.7025,10.2975-23,23-23s23,10.2975,23,23v23H12.6048z"/><circle cx="35.605" cy="34.682" r="15" fill="none" stroke="#000" stroke-linecap="round" stroke-linejoin="round" stroke-miterlimit="10" stroke-width="2"/><circle cx="35.605" cy="34.682" r="15" fill="none" stroke="#000" stroke-linecap="round" stroke-linejoin="round" stroke-miterlimit="10" stroke-width="2"/><path fill="none" stroke="#000" stroke-linecap="round" stroke-linejoin="round" stroke-miterlimit="10" stroke-width="2" d="M12.6048,57.6825v-23c0-12.7025,10.2975-23,23-23s23,10.2975,23,23v23H12.6048z"/><circle cx="35.605" cy="34.682" r="15" fill="none" stroke="#000" stroke-linecap="round" stroke-linejoin="round" stroke-miterlimit="10" stroke-width="2"/><line x1="35.417" x2="28.605" y1="35.087" y2="35.087" fill="none" stroke="#000" stroke-linecap="round" stroke-linejoin="round" stroke-miterlimit="10" stroke-width="1.758"/><circle cx="24.407" cy="34.988" r="1" fill="#000" stroke="none"/><circle cx="46.678" cy="34.988" r="1" fill="#000" stroke="none"/><ellipse cx="27.668" cy="42.862" fill="#000" stroke="none" rx="1" ry="1" transform="matrix(0.7071 -0.7071 0.7071 0.7071 -22.204 32.1184)"/><ellipse cx="43.416" cy="27.114" fill="#000" stroke="none" rx="1" ry="1" transform="matrix(0.7071 -0.7071 0.7071 0.7071 -6.456 38.6415)"/><circle cx="35.542" cy="46.123" r="1" fill="#000" stroke="none"/><circle cx="35.542" cy="23.852" r="1" fill="#000" stroke="none"/><ellipse cx="43.416" cy="42.862" fill="#000" stroke="none" rx="1" ry="1" transform="matrix(0.7071 -0.7071 0.7071 0.7071 -17.5915 43.254)"/><ellipse cx="27.668" cy="27.114" fill="#000" stroke="none" rx="1" ry="1" transform="matrix(0.7071 -0.7071 0.7071 0.7071 -11.0685 27.506)"/></g></svg>