<svg xmlns="http://www.w3.org/2000/svg" id="emoji" viewBox="0 0 72 72"><g id="color"><path fill="#ea5a47" stroke="none" d="M62.2981,16.4519c-8-6-44-6-52,0c0,0-4,4-2,10h13v-5c6-4,24-4,30,0v5h13 C66.2981,20.4519,62.2981,16.4519,62.2981,16.4519z"/><polygon fill="#d22f27" stroke="none" points="50.971 21.146 64.847 21.058 64.406 26.096 51.943 26.008"/><polygon fill="#d22f27" stroke="none" points="7.13 21.146 21.007 21.058 20.565 26.096 8.102 26.008"/><polygon fill="#ea5a47" stroke="none" points="24.875 29.313 19 33 15.188 41.313 14.938 52.313 15 56 57 56 56.688 40.563 53 33 46.938 29 46 27.625 25.688 28.563"/><polygon fill="#d22f27" stroke="none" points="26.75 25 26 29 26 30 46.125 30 45.281 24.531 43.188 24.25 41.688 26.438 30.063 26.5 28.813 24.438 26.656 24.594"/><path fill="#d22f27" stroke="none" d="M39.3438,29.8438c0,0,12.9062,4.4062,12.6562,25.9062c6.375,2.0625,5.5-6.5,5.5-6.5l-2.5833-13.4167 l-5.75-6.25L39.3438,29.8438z"/></g><g id="line"><circle cx="30" cy="35" r="2" fill="#000" stroke="none"/><circle cx="30" cy="41" r="2" fill="#000" stroke="none"/><circle cx="30" cy="47" r="2" fill="#000" stroke="none"/><circle cx="36" cy="35" r="2" fill="#000" stroke="none"/><circle cx="36" cy="41" r="2" fill="#000" stroke="none"/><circle cx="36" cy="47" r="2" fill="#000" stroke="none"/><circle cx="42" cy="35" r="2" fill="#000" stroke="none"/><circle cx="42" cy="41" r="2" fill="#000" stroke="none"/><circle cx="42" cy="47" r="2" fill="#000" stroke="none"/><path fill="none" stroke="#000" stroke-linecap="round" stroke-linejoin="round" stroke-miterlimit="10" stroke-width="2" d="M26,24v5c0,0-3.5,0.5-7,4s-4,9.9999-4,9.9999v13.0003L18,56h36l3-0.0001V43.1252c0,0-0.5-6.6252-4-10.1252s-7-4-7-4v-5h-3 l-1.0003,3H29.8133L29,24H26z"/><path fill="none" stroke="#000" stroke-linecap="round" stroke-linejoin="round" stroke-miterlimit="10" stroke-width="2" d="M61.9839,16.4519c-8-6-44-6-52,0c0,0-4,4-2,10h13v-5c6-4,24-4,30,0v5h13C65.9839,20.4519,61.9839,16.4519,61.9839,16.4519z"/></g></svg>