<svg xmlns="http://www.w3.org/2000/svg" id="emoji" viewBox="0 0 72 72"><g id="color"><path fill="#B399C8" stroke="none" stroke-linecap="round" stroke-linejoin="round" stroke-miterlimit="10" stroke-width="2" d="M45.0001,57c1.9749,0,3.9-0.275,5.7124-0.8C46.5875,59.2249,41.5,61,36,61c-13.8124,0-25-11.1875-25-25s11.1876-25,25-25 c5.5,0,10.5875,1.775,14.7125,4.8C48.9001,15.275,46.975,15,45.0001,15C33.4001,15,24,24.4,24,36C24,47.6,33.4001,57,45.0001,57z"/><polygon fill="#B399C8" stroke="none" stroke-linecap="round" stroke-linejoin="round" stroke-miterlimit="10" stroke-width="2" points="50.652 27.896 53.024 32.703 58.33 33.474 54.491 37.216 55.397 42.5 50.652 40.005 45.907 42.5 46.813 37.216 42.974 33.474 48.279 32.703"/></g><g id="line"><path fill="none" stroke="#000" stroke-linecap="round" stroke-linejoin="round" stroke-miterlimit="10" stroke-width="2" d="M45.0001,57c1.9749,0,3.9-0.275,5.7124-0.8C46.5875,59.2249,41.5,61,36,61c-13.8124,0-25-11.1875-25-25s11.1876-25,25-25 c5.5,0,10.5875,1.775,14.7125,4.8C48.9001,15.275,46.975,15,45.0001,15C33.4001,15,24,24.4,24,36C24,47.6,33.4001,57,45.0001,57z"/><polygon fill="none" stroke="#000" stroke-linecap="round" stroke-linejoin="round" stroke-miterlimit="10" stroke-width="2" points="50.652 27.896 53.024 32.703 58.33 33.474 54.491 37.216 55.397 42.5 50.652 40.005 45.907 42.5 46.813 37.216 42.974 33.474 48.279 32.703"/></g></svg>