<svg xmlns="http://www.w3.org/2000/svg" id="emoji" viewBox="0 0 72 72"><g id="color"><circle cx="36" cy="35.958" r="29" fill="#FFF" stroke="none"/><path fill="none" stroke="#d0cfce" stroke-miterlimit="10" stroke-width="3" d="M56.494,57.5182 c-5.2796-5.2522-8.5478-12.5243-8.5478-20.5598c0-8.0081,3.2459-15.2581,8.4939-20.5061"/><path fill="none" stroke="#d0cfce" stroke-miterlimit="10" stroke-width="3" d="M15.5331,16.4522 c5.248,5.248,8.4939,12.498,8.4939,20.5061c0,8.0287-3.2626,15.2954-8.5344,20.5465"/><path fill="#D0CFCE" stroke="none" d="M50.738,10.9985c4.8254,5.1792,7.7822,12.1224,7.7822,19.7596c0,16.0162-12.9837,29-29,29 c-5.3519,0-10.3612-1.4558-14.6646-3.9839C20.1448,61.4195,27.6533,64.9583,36,64.9583c16.0162,0,29-12.9838,29-29 C65,25.327,59.2692,16.047,50.738,10.9985z"/></g><g id="line"><circle cx="36" cy="35.958" r="29" fill="none" stroke="#000" stroke-linecap="round" stroke-linejoin="round" stroke-miterlimit="10" stroke-width="2"/><path fill="none" stroke="#000" stroke-linecap="round" stroke-linejoin="round" stroke-miterlimit="10" stroke-width="2" d="M56.494,56.5182c-5.2796-5.2522-8.5478-12.5243-8.5478-20.5598c0-8.0081,3.2459-15.2581,8.4939-20.5061"/><path fill="none" stroke="#000" stroke-linecap="round" stroke-linejoin="round" stroke-miterlimit="10" stroke-width="2" d="M15.5331,15.4522c5.248,5.248,8.4939,12.498,8.4939,20.5061c0,8.0287-3.2455,15.2768-8.5172,20.5279"/><polyline fill="none" stroke="#000" stroke-linecap="round" stroke-linejoin="round" stroke-miterlimit="10" stroke-width="2" points="45.946 35.458 47.946 36.458 49.946 35.458"/><polyline fill="none" stroke="#000" stroke-linecap="round" stroke-linejoin="round" stroke-miterlimit="10" stroke-width="2" points="26.027 36.458 24.027 35.458 22.027 36.458"/><polyline fill="none" stroke="#000" stroke-linecap="round" stroke-linejoin="round" stroke-miterlimit="10" stroke-width="2" points="25.203 43.332 23.424 41.976 21.273 42.586"/><polyline fill="none" stroke="#000" stroke-linecap="round" stroke-linejoin="round" stroke-miterlimit="10" stroke-width="2" points="23.001 49.455 21.523 47.777 19.294 47.953"/><polyline fill="none" stroke="#000" stroke-linecap="round" stroke-linejoin="round" stroke-miterlimit="10" stroke-width="2" points="19.598 54.647 18.825 52.548 16.682 51.908"/><polyline fill="none" stroke="#000" stroke-linecap="round" stroke-linejoin="round" stroke-miterlimit="10" stroke-width="2" points="20.27 17.796 18.12 18.411 17.322 20.5"/><polyline fill="none" stroke="#000" stroke-linecap="round" stroke-linejoin="round" stroke-miterlimit="10" stroke-width="2" points="23.488 23.543 21.289 23.652 20.003 25.506"/><polyline fill="none" stroke="#000" stroke-linecap="round" stroke-linejoin="round" stroke-miterlimit="10" stroke-width="2" points="25.475 29.755 23.27 29.381 21.648 30.92"/><polyline fill="none" stroke="#000" stroke-linecap="round" stroke-linejoin="round" stroke-miterlimit="10" stroke-width="2" points="46.771 28.584 48.549 29.94 50.701 29.33"/><polyline fill="none" stroke="#000" stroke-linecap="round" stroke-linejoin="round" stroke-miterlimit="10" stroke-width="2" points="48.972 22.461 50.45 24.139 52.679 23.963"/><polyline fill="none" stroke="#000" stroke-linecap="round" stroke-linejoin="round" stroke-miterlimit="10" stroke-width="2" points="52.499 17.118 53.272 19.216 55.415 19.856"/><polyline fill="none" stroke="#000" stroke-linecap="round" stroke-linejoin="round" stroke-miterlimit="10" stroke-width="2" points="51.545 53.912 53.694 53.297 54.492 51.208"/><polyline fill="none" stroke="#000" stroke-linecap="round" stroke-linejoin="round" stroke-miterlimit="10" stroke-width="2" points="48.482 48.429 50.716 48.318 51.967 46.465"/><polyline fill="none" stroke="#000" stroke-linecap="round" stroke-linejoin="round" stroke-miterlimit="10" stroke-width="2" points="46.499 42.161 48.703 42.535 50.325 40.996"/></g></svg>