<svg xmlns="http://www.w3.org/2000/svg" id="emoji" version="1.1" viewBox="0 0 72 72"><g id="color"><rect width="40" height="4" x="16" y="33" fill="#D22F27"/><rect width="4" height="28" x="22" y="27" fill="#EA5A47"/><rect width="4" height="28" x="46" y="27" fill="#EA5A47"/><rect width="7" height="5" x="20.5" y="55" fill="#3F3F3F"/><rect width="7" height="5" x="44.5" y="55" fill="#3F3F3F"/><rect width="4" height="6" x="34" y="27" fill="#3F3F3F"/><path fill="#EA5A47" d="M12.5,21c0,0,11.2502,2,15.0003,2c4.625,0,13.875,0,18.5,0C49.3752,23,59.5,21,59.5,21l-4,3l-2,3h-35l-2-3 L12.5,21z"/></g><g id="line"><rect width="6" height="4" x="16" y="33" fill="none" stroke="#000" stroke-linecap="round" stroke-linejoin="round" stroke-miterlimit="10" stroke-width="2"/><rect width="20" height="4" x="26" y="33" fill="none" stroke="#000" stroke-linecap="round" stroke-linejoin="round" stroke-miterlimit="10" stroke-width="2"/><rect width="6" height="4" x="50" y="33" fill="none" stroke="#000" stroke-linecap="round" stroke-linejoin="round" stroke-miterlimit="10" stroke-width="2"/><rect width="4" height="28" x="22" y="27" fill="none" stroke="#000" stroke-linecap="round" stroke-linejoin="round" stroke-miterlimit="10" stroke-width="2"/><rect width="4" height="28" x="46" y="27" fill="none" stroke="#000" stroke-linecap="round" stroke-linejoin="round" stroke-miterlimit="10" stroke-width="2"/><rect width="7" height="5" x="20.5" y="55" fill="none" stroke="#000" stroke-linecap="round" stroke-linejoin="round" stroke-miterlimit="10" stroke-width="2"/><rect width="7" height="5" x="44.5" y="55" fill="none" stroke="#000" stroke-linecap="round" stroke-linejoin="round" stroke-miterlimit="10" stroke-width="2"/><rect width="4" height="6" x="34" y="27" fill="none" stroke="#000" stroke-linecap="round" stroke-linejoin="round" stroke-miterlimit="10" stroke-width="2"/><path fill="none" stroke="#000" stroke-linecap="round" stroke-linejoin="round" stroke-miterlimit="10" stroke-width="2" d="M59.5,20.9998l-4,3l-2,3h-35l-2-3l-4-3c0,0,11.25,2,15,2H46C49.38,22.9998,59.5,20.9998,59.5,20.9998z"/></g></svg>