<svg xmlns="http://www.w3.org/2000/svg" id="emoji" version="1.1" viewBox="0 0 72 72"><g id="color"><polygon fill="#D0CFCE" points="39 5.762 39 37 57.687 37"/><path fill="#A57939" d="M54,50c3-3,5-8,5-8H16c0,0-1,5,3,8H54z"/><polygon fill="#D0CFCE" points="35.262 13 35.262 37 23.738 37"/><polyline fill="none" points="69 48.235 68 68 4 68 4 48.235"/><path fill="#92D3F5" d="M68,47v21H4V47h1c3,0,9,3,15,3s10-3,16-3s11,3,16,3s7-3,15-3H68z"/></g><g id="line"><polygon fill="none" stroke="#000" stroke-linecap="round" stroke-linejoin="round" stroke-miterlimit="10" stroke-width="2.036" points="39 5.762 39 37 57.687 37"/><path fill="none" stroke="#000" stroke-linecap="round" stroke-linejoin="round" stroke-miterlimit="10" stroke-width="2" d="M54.1187,49.81C57.1187,46.81,59,42,59,42H16c0,0-1.2082,4.8375,2.7918,7.8375"/><polygon fill="none" stroke="#000" stroke-linecap="round" stroke-linejoin="round" stroke-miterlimit="10" stroke-width="2" points="35.262 13 35.262 37 23.738 37"/><line x1="39" x2="39" y1="6" y2="42" fill="none" stroke="#000" stroke-linecap="round" stroke-linejoin="round" stroke-miterlimit="10" stroke-width="2.036"/><path fill="none" stroke="#000" stroke-linecap="round" stroke-linejoin="round" stroke-miterlimit="10" stroke-width="2" d="M5,47c3,0,9,3,15,3s10-3,16-3s11,3,16,3s7-3,15-3"/></g></svg>