<svg xmlns="http://www.w3.org/2000/svg" id="emoji" viewBox="0 0 72 72"><g id="color"><polygon fill="#3F3F3F" stroke="none" points="14.594 53.154 18.254 56.814 12.624 59.093"/><polyline fill="#f4aa41" stroke="none" points="18.038 41.876 36.868 23.046 48.181 34.359 29.511 53.029"/><polyline fill="#a57939" stroke="none" points="14.413 52.566 17.928 43.395 27.828 53.294 18.656 56.809"/><polyline fill="#EA5A47" stroke="none" points="42.921 16.993 50.423 9.491 61.736 20.804 54.297 28.242"/><polyline fill="#9b9b9a" stroke="none" points="35.65 24.264 43.332 16.582 54.645 27.895 47.028 35.512"/></g><g id="line"><polygon fill="none" stroke="#000" stroke-linecap="round" stroke-linejoin="round" stroke-miterlimit="10" stroke-width="2" points="18.63 56.82 27.828 53.294 53.821 27.301 43.921 17.401 17.928 43.395 14.39 52.603"/><polyline fill="none" stroke="#000" stroke-linecap="round" stroke-linejoin="round" stroke-miterlimit="10" stroke-width="2" points="47.335 13.987 50.839 10.484 60.738 20.383 57.264 23.857"/><line x1="18.556" x2="28.456" y1="42.767" y2="52.666" fill="none" stroke="#000" stroke-linecap="round" stroke-linejoin="round" stroke-miterlimit="10" stroke-width="2"/><polyline fill="none" stroke="#000" stroke-linecap="round" stroke-linejoin="round" stroke-miterlimit="10" stroke-width="2" points="14.398 52.582 11.907 59.315 18.656 56.809"/><line x1="36.91" x2="46.422" y1="25.007" y2="34.52" fill="none" stroke="#000" stroke-linecap="round" stroke-linejoin="round" stroke-miterlimit="10" stroke-width="2"/></g></svg>