<svg xmlns="http://www.w3.org/2000/svg" id="emoji" viewBox="0 0 72 72"><g id="color"><path fill="none" stroke="#FFF" stroke-miterlimit="10" stroke-width="2" d="M29.8234,45.3972"/><path fill="none" stroke="#FFF" stroke-miterlimit="10" stroke-width="2" d="M27.23,21.0879"/><path fill="none" stroke="#FFF" stroke-miterlimit="10" stroke-width="2" d="M48.0598,45.2754"/><path fill="none" stroke="#FFF" stroke-miterlimit="10" stroke-width="2" d="M45.4664,20.966"/><polygon fill="#D0CFCE" stroke="none" points="31.853 29.874 31.853 12.521 42.149 12.521 42.149 29.881 42.197 29.881 46.248 29.883 59.605 29.883 59.605 40.179 46.256 40.179 42.149 40.176 42.149 40.206 42.149 58.851 31.853 58.851 31.853 40.169 31.753 40.169 27.936 40.167 14 40.167 14 29.871 27.933 29.871 31.769 29.874"/><path fill="none" stroke="#FFF" stroke-miterlimit="10" stroke-width="2" d="M29.8234,45.3972"/><path fill="none" stroke="#FFF" stroke-miterlimit="10" stroke-width="2" d="M27.23,21.0879"/><path fill="none" stroke="#FFF" stroke-miterlimit="10" stroke-width="2" d="M48.0598,45.2754"/><path fill="none" stroke="#FFF" stroke-miterlimit="10" stroke-width="2" d="M45.4664,20.966"/></g><g id="line"><path fill="none" stroke="#000" stroke-miterlimit="10" d="M67,28.3957"/><path fill="none" stroke="#000" stroke-miterlimit="10" d="M67,28.3957"/><polygon fill="none" stroke="#000" stroke-linecap="round" stroke-linejoin="round" stroke-miterlimit="10" stroke-width="2" points="31.853 29.874 31.853 12.521 42.149 12.521 42.149 29.881 42.197 29.881 46.248 29.883 59.605 29.883 59.605 40.179 46.256 40.179 42.149 40.176 42.149 40.206 42.149 58.851 31.853 58.851 31.853 40.169 31.753 40.169 27.936 40.167 14 40.167 14 29.871 27.933 29.871 31.769 29.874"/></g></svg>