<svg xmlns="http://www.w3.org/2000/svg" id="emoji" viewBox="0 0 72 72"><g id="color"><rect width="34.234" height="12.164" x="18.703" y="46.663" fill="#3f3f3f"/><path fill="#d0cfce" d="M27.3106,19.74a13.5221,13.5221,0,0,1,6.9327-1.8174c4.5418,0,8.4376,6.247,14.3338,6.247.8692,0,1.3042-.3913,2.1814-.3913.7275,0,1.0179.52,1.0179,1.4385v1.5653c0,.7168-.783,1.531-3.0816,1.531-6.91,0-10.8055-3.9084-14.8143-3.9084a11.7385,11.7385,0,0,0-6.6491,2.219V22.3567Z"/><rect width="51.01" height="3.512" x="10.314" y="62.339" fill="#d0cfce"/><rect width="46.262" height="3.512" x="12.689" y="58.827" fill="#d0cfce"/><polygon fill="#9b9b9a" points="46.15 41.118 35.82 36.063 25.489 41.118 46.15 41.118"/><rect width="48.071" height="3.512" x="11.784" y="43.15" fill="#d0cfce"/><rect width="5.429" height="12.164" x="17.383" y="46.663" fill="#fff"/><rect width="5.429" height="12.164" x="33.105" y="46.663" fill="#fff"/><rect width="5.429" height="12.164" x="48.827" y="46.663" fill="#fff"/></g><g id="line"><path fill="none" stroke="#000" stroke-linecap="round" stroke-linejoin="round" stroke-width="2" d="M27.3106,10.34a13.4156,13.4156,0,0,1,6.9327-2.1474c4.5418,0,8.4376,3.9373,14.3338,3.9373.8692,0,1.3042-.3912,2.1814-.3912.7275,0,1.0179.52,1.0179,1.4384V26.7823c0,.7168-.783,1.531-3.0816,1.531-6.91,0-10.8055-3.9084-14.8143-3.9084a11.7385,11.7385,0,0,0-6.6491,2.219V22.3567"/><line x1="23.972" x2="23.972" y1="8.347" y2="39.033" fill="none" stroke="#000" stroke-linecap="round" stroke-miterlimit="10" stroke-width="2"/><line x1="63.325" x2="8.314" y1="65.852" y2="65.852" fill="none" stroke="#000" stroke-linecap="round" stroke-linejoin="round" stroke-width="2"/><line x1="11.314" x2="60.325" y1="62.339" y2="62.339" fill="none" stroke="#000" stroke-linecap="round" stroke-linejoin="round" stroke-width="2"/><rect width="48.071" height="3.512" x="11.784" y="43.15" fill="none" stroke="#000" stroke-linecap="round" stroke-linejoin="round" stroke-width="2"/><line x1="58.95" x2="12.689" y1="62.339" y2="62.339" fill="none" stroke="#000" stroke-linecap="round" stroke-linejoin="round" stroke-width="2"/><line x1="13.689" x2="57.95" y1="58.827" y2="58.827" fill="none" stroke="#000" stroke-linecap="round" stroke-linejoin="round" stroke-width="2"/><rect width="5.429" height="12.164" x="17.383" y="46.663" fill="none" stroke="#000" stroke-linecap="round" stroke-linejoin="round" stroke-width="2"/><rect width="5.429" height="12.164" x="33.105" y="46.663" fill="none" stroke="#000" stroke-linecap="round" stroke-linejoin="round" stroke-width="2"/><rect width="5.429" height="12.164" x="48.827" y="46.663" fill="none" stroke="#000" stroke-linecap="round" stroke-linejoin="round" stroke-width="2"/><polygon fill="none" stroke="#000" stroke-linecap="round" stroke-linejoin="round" stroke-width="2" points="55.161 43.15 35.82 33.04 16.478 43.15 55.161 43.15"/></g></svg>