<svg xmlns="http://www.w3.org/2000/svg" id="emoji" version="1.1" viewBox="0 0 72 72"><g id="color"><path fill="#FCEA2B" d="M54.6252,48.8242c0,11.975-7.1612,18.3906-16.2494,18.3906c-10.1295-1.8157-18.5019-4.0812-16.6172-31.1527"/><line x1="54.831" x2="54.831" y1="49.886" y2="37.886" fill="none"/><path fill="#FCEA2B" d="M47.8393,37.5921c0.081-1.9313,1.7123-3.4313,3.6436-3.3502s3.4313,1.7123,3.3502,3.6436"/><path fill="#FCEA2B" d="M40.8423,37.3592c0.081-1.9313,1.7123-3.4313,3.6436-3.3502s3.4313,1.7123,3.3502,3.6436"/><path fill="#FCEA2B" d="M40.8463,37.2253c0.155-1.9268,1.8426-3.3631,3.7694-3.2081c1.9268,0.155,3.3631,1.8426,3.2081,3.7694"/><path fill="#FCEA2B" d="M33.8047,36.8809c0.1237-1.929,1.7878-3.3925,3.7168-3.2688s3.3925,1.7878,3.2688,3.7168"/><path fill="#FCEA2B" d="M22.2915,46.1851c-5.8672-7.6195-6.7449-10.6867-5.3546-12.0296s5.6942,0.7837,7.0371,2.1741"/><path fill="#FCEA2B" d="M26.8047,14.5086c0-1.933,1.567-3.5,3.5-3.5s3.5,1.567,3.5,3.5"/><line x1="33.805" x2="33.805" y1="36.844" y2="14.509" fill="none"/><line x1="26.805" x2="26.805" y1="14.509" y2="42.299" fill="none"/><line x1="23.844" x2="21.886" y1="36.455" y2="34.242" fill="none"/><path fill="#FCEA2B" d="M18.6186,41.4242c1.9526,2.1439,3.3734,5.1677,3.3013,9.5218"/><line x1="16.851" x2="18.672" y1="39.105" y2="41.485" fill="none"/><polygon fill="#FCEA2B" points="33.915 41.924 26.852 39.957 26.852 14.174 33.805 14.174"/><rect width="20.921" height="12.226" x="33.915" y="36.844" fill="#FCEA2B"/><polygon fill="#FCEA2B" points="26.805 40.065 24.149 39.07 24.658 35.884 26.822 38.814"/></g><g id="line"><path fill="none" stroke="#000" stroke-linecap="round" stroke-linejoin="round" stroke-miterlimit="10" stroke-width="2" d="M33.79,23.7098c4.13-1.45,7.09-5.39,7.09-10.02c0-5.87-4.75-10.63-10.62-10.63s-10.62,4.76-10.62,10.63c0,4.65,2.99,8.6,7.15,10.04"/><path fill="none" stroke="#000" stroke-linecap="round" stroke-linejoin="round" stroke-miterlimit="10" stroke-width="2" d="M54.8163,50.7743c0,9.0883-7.3675,16.4558-16.4558,16.4558s-16.4558-7.3675-16.4558-16.4558"/><line x1="54.816" x2="54.816" y1="49.901" y2="37.901" fill="none" stroke="#000" stroke-linecap="round" stroke-linejoin="round" stroke-miterlimit="10" stroke-width="2"/><path fill="none" stroke="#000" stroke-linecap="round" stroke-linejoin="round" stroke-miterlimit="10" stroke-width="2" d="M47.824,37.6074c0.081-1.9313,1.7123-3.4313,3.6436-3.3502s3.4313,1.7123,3.3502,3.6436"/><path fill="none" stroke="#000" stroke-linecap="round" stroke-linejoin="round" stroke-miterlimit="10" stroke-width="2" d="M40.827,37.3745c0.081-1.9313,1.7123-3.4313,3.6436-3.3502s3.4313,1.7123,3.3502,3.6436"/><path fill="none" stroke="#000" stroke-linecap="round" stroke-linejoin="round" stroke-miterlimit="10" stroke-width="2" d="M40.8311,37.2406c0.155-1.9268,1.8426-3.3631,3.7694-3.2081s3.3631,1.8426,3.2081,3.7694"/><path fill="none" stroke="#000" stroke-linecap="round" stroke-linejoin="round" stroke-miterlimit="10" stroke-width="2" d="M33.7895,36.8962c0.1237-1.929,1.7878-3.3925,3.7168-3.2688s3.3925,1.7878,3.2688,3.7168"/><path fill="none" stroke="#000" stroke-linecap="round" stroke-linejoin="round" stroke-miterlimit="10" stroke-width="2" d="M16.8357,39.1198c-1.3429-1.3904-1.3044-3.6061,0.086-4.949s3.6061-1.3044,4.949,0.086"/><path fill="none" stroke="#000" stroke-linecap="round" stroke-linejoin="round" stroke-miterlimit="10" stroke-width="2" d="M26.7895,14.5239c0-1.933,1.567-3.5,3.5-3.5s3.5,1.567,3.5,3.5"/><line x1="33.789" x2="33.789" y1="36.859" y2="14.524" fill="none" stroke="#000" stroke-linecap="round" stroke-linejoin="round" stroke-miterlimit="10" stroke-width="2"/><line x1="26.79" x2="26.79" y1="14.524" y2="42.315" fill="none" stroke="#000" stroke-linecap="round" stroke-linejoin="round" stroke-miterlimit="10" stroke-width="2"/><line x1="23.829" x2="21.871" y1="36.471" y2="34.257" fill="none" stroke="#000" stroke-linecap="round" stroke-linejoin="round" stroke-miterlimit="10" stroke-width="2"/><path fill="none" stroke="#000" stroke-linecap="round" stroke-linejoin="round" stroke-miterlimit="10" stroke-width="2" d="M18.6034,41.4395c1.9526,2.1439,3.3734,5.1677,3.3013,9.5218"/><line x1="16.836" x2="18.657" y1="39.12" y2="41.5" fill="none" stroke="#000" stroke-linecap="round" stroke-linejoin="round" stroke-miterlimit="10" stroke-width="2"/><path fill="none" stroke="#000" stroke-linecap="round" stroke-linejoin="round" stroke-miterlimit="10" stroke-width="2" d="M54.8315,50.7591c0,9.0883-7.3675,16.4558-16.4558,16.4558S21.92,59.8474,21.92,50.7591"/></g></svg>