<svg xmlns="http://www.w3.org/2000/svg" id="emoji" version="1.1" viewBox="0 0 72 72"><g id="color"><path fill="#9B9B9A" d="M45.5,25.1h-3.75c0-3.18-2.57-5.75-5.75-5.75s-5.75,2.57-5.75,5.75H26.5c0-5.25,4.25-9.5,9.5-9.5 S45.5,19.85,45.5,25.1z"/><rect width="50.17" height="30.9" x="10.83" y="25.1" fill="#D0CFCE"/><polyline fill="#EA5A47" points="38.919 36.76 43.794 36.76 43.794 43.344 38.919 43.344 38.961 43.302 38.961 48.177 32.378 48.177 32.378 43.301"/><polyline fill="#EA5A47" points="32.336 43.344 27.544 43.344 27.544 36.76 32.336 36.76 32.378 36.719 32.378 31.927 38.961 31.927 38.961 36.719"/></g><g id="line"><path fill="none" stroke="#000" stroke-linecap="round" stroke-linejoin="round" stroke-miterlimit="10" stroke-width="2" d="M45.5,25.1h-3.75c0-3.18-2.57-5.75-5.75-5.75s-5.75,2.57-5.75,5.75H26.5c0-5.25,4.25-9.5,9.5-9.5S45.5,19.85,45.5,25.1z"/><path fill="none" stroke="#000" stroke-linecap="round" stroke-linejoin="round" stroke-miterlimit="10" stroke-width="2" d="M30.25,25.1c0-3.18,2.57-5.75,5.75-5.75s5.75,2.57,5.75,5.75"/><rect width="50.17" height="30.9" x="10.83" y="25.1" fill="none" stroke="#000" stroke-linecap="round" stroke-linejoin="round" stroke-miterlimit="10" stroke-width="2"/><polyline fill="none" stroke="#000" stroke-linecap="round" stroke-linejoin="round" stroke-miterlimit="10" stroke-width="2" points="38.919 36.76 43.794 36.76 43.794 43.344 38.919 43.344 38.961 43.302 38.961 48.177 32.378 48.177 32.378 43.301"/><polyline fill="none" stroke="#000" stroke-linecap="round" stroke-linejoin="round" stroke-miterlimit="10" stroke-width="2" points="32.336 43.344 27.544 43.344 27.544 36.76 32.336 36.76 32.378 36.719 32.378 31.927 38.961 31.927 38.961 36.719"/></g></svg>