<svg xmlns="http://www.w3.org/2000/svg" id="emoji" viewBox="0 0 72 72"><g id="color"><rect width="62.599" height="38.705" x="4.7" y="20.147" fill="#d0cfce" rx="3.409" ry="3.409"/><rect width="9.003" height="15.673" x="31.396" y="10.599" fill="#9b9b9a" rx="1.557" ry="1.557"/><path fill="#9b9b9a" d="M17.4032,30.6509H55.1065a5.7472,5.7472,0,0,1,5.7472,5.7472V50.7022a2.9184,2.9184,0,0,1-2.9184,2.9184H12.783a2.9184,2.9184,0,0,1-2.9184-2.9184V38.1894A7.5386,7.5386,0,0,1,17.4032,30.6509Z"/><rect width="48" height="19.731" x="11.474" y="31.367" fill="#fff" rx="2.918" ry="2.918"/></g><g id="line"><path fill="none" stroke="#000" stroke-linecap="round" stroke-linejoin="round" stroke-width="2" d="M40.5015,20.6474h23.389A3.4091,3.4091,0,0,1,67.3,24.0566V55.9434a3.4091,3.4091,0,0,1-3.4091,3.4092H8.11A3.4091,3.4091,0,0,1,4.7,55.9434V24.0566A3.4091,3.4091,0,0,1,8.11,20.6474H31.396"/><rect width="48" height="19.731" x="11.474" y="31.367" fill="none" stroke="#000" stroke-linecap="round" stroke-linejoin="round" stroke-width="2" rx="2.918" ry="2.918"/><polyline fill="none" stroke="#000" stroke-linecap="round" stroke-linejoin="round" stroke-width="2" points="52.396 38.141 48.396 38.141 48.396 45.141 52.396 45.141"/><line x1="48.396" x2="51.396" y1="41.641" y2="41.641" fill="none" stroke="#000" stroke-linecap="round" stroke-linejoin="round" stroke-width="2"/><polyline fill="none" stroke="#000" stroke-linecap="round" stroke-linejoin="round" stroke-width="2" points="34.396 45.141 31.396 38.141 28.396 45.141"/><line x1="29.396" x2="33.396" y1="43.465" y2="43.465" fill="none" stroke="#000" stroke-linecap="round" stroke-linejoin="round" stroke-width="2"/><polyline fill="none" stroke="#000" stroke-linecap="round" stroke-linejoin="round" stroke-width="2" points="19.396 45.141 19.396 38.141 24.396 45.141 24.396 38.141"/><polyline fill="none" stroke="#000" stroke-linecap="round" stroke-linejoin="round" stroke-width="2" points="44.396 45.141 44.396 38.141 41.396 44.141 38.396 38.141 38.396 45.141"/><rect width="9.003" height="15.673" x="31.499" y="10.237" fill="none" stroke="#000" stroke-miterlimit="10" stroke-width="2" rx="1.557" ry="1.557"/></g></svg>