<svg xmlns="http://www.w3.org/2000/svg" id="emoji" version="1.1" viewBox="0 0 72 72"><g id="color"><rect width="21" height="5" x="25" y="12" fill="#1e50a0" rx="1"/><rect width="26" height="48" x="23" y="16" fill="#1e50a0" rx="1"/><path fill="#fff" fill-rule="evenodd" d="m38 9.6c0-0.8837-0.8954-1.6-2-1.6s-2 0.7163-2 1.6v2.4h4z" clip-rule="evenodd"/><rect width="9" height="8" x="37" y="53" fill="#3f3f3f" fill-opacity=".502" rx="1.125" ry="1.143"/><rect width="9" height="8" x="26" y="53" fill="#3f3f3f" fill-opacity=".502" rx="1.125" ry="1.143"/><rect width="9" height="8" x="37" y="43" fill="#3f3f3f" fill-opacity=".502" rx="1.125" ry="1.143"/><rect width="9" height="8" x="26" y="43" fill="#3f3f3f" fill-opacity=".502" rx="1.125" ry="1.143"/><rect width="9" height="8" x="37" y="33" fill="#3f3f3f" fill-opacity=".502" rx="1.125" ry="1.143"/><rect width="9" height="8" x="26" y="33" fill="#3f3f3f" fill-opacity=".502" rx="1.125" ry="1.143"/><rect width="9" height="8" x="37" y="23" fill="#fff" rx="1.125" ry="1.143"/><rect width="9" height="8" x="26" y="23" fill="#fff" rx="1.125" ry="1.143"/></g><g id="line"><rect width="20" height="3" x="26" y="18.5" rx="1" ry="1"/><path fill="none" stroke="#000" stroke-linecap="round" stroke-linejoin="round" stroke-width="2" d="m38 54.01v5.986h6.986"/><path fill="none" stroke="#000" stroke-linecap="round" stroke-linejoin="round" stroke-width="2" d="m27 54.01v5.986h6.986"/><path fill="none" stroke="#000" stroke-linecap="round" stroke-linejoin="round" stroke-width="2" d="m38 44v6h7"/><path fill="none" stroke="#000" stroke-linecap="round" stroke-linejoin="round" stroke-width="2" d="m27 44.01v5.986h6.986"/><path fill="none" stroke="#000" stroke-linecap="round" stroke-linejoin="round" stroke-width="2" d="m38 34.01v5.986h6.986"/><path fill="none" stroke="#000" stroke-linecap="round" stroke-linejoin="round" stroke-width="2" d="m27 34.01v5.986h6.986"/><path fill="none" stroke="#000" stroke-linecap="round" stroke-linejoin="round" stroke-width="2" d="m38 24.01v5.986h6.986"/><path fill="none" stroke="#000" stroke-linecap="round" stroke-linejoin="round" stroke-width="2" d="m27 24.01v5.986h6.986"/><rect width="26" height="48" x="23" y="16" fill="none" stroke="#000" stroke-width="2" rx="1"/><path fill="none" stroke="#000" stroke-width="2" d="m34 12v-2.4c0-0.8837 0.8954-1.6 2-1.6s2 0.7163 2 1.6v2.4"/><path fill="none" stroke="#000" stroke-width="2" d="m25 16v-3c0-0.5523 0.4477-1 1-1h19c0.5523 0 1 0.4477 1 1v3"/></g></svg>