<svg xmlns="http://www.w3.org/2000/svg" id="emoji" version="1.1" viewBox="0 0 72 72"><g id="color"><polygon fill="#9B9B9A" points="6.808 55.158 22.069 33.412 30.66 42.002 46.642 26.021 65.719 55.875 6.281 55.875"/></g><g id="line"><polygon fill="none" stroke="#000" stroke-linecap="round" stroke-linejoin="round" stroke-miterlimit="10" stroke-width="2" points="6.808 55.158 22.069 33.412 30.66 42.002 46.642 26.021 65.719 55.875 6.281 55.875"/><path fill="none" stroke="#000" stroke-linecap="round" stroke-linejoin="round" stroke-miterlimit="10" stroke-width="2" d="M38,17.0213h22.021c4.4065,0,7.9787,3.5722,7.9787,7.9787v24.2352H4.0002V25c0-4.4065,3.5722-7.9787,7.9787-7.9787h21.9379 L36,21.625L38,17.0213z"/><polyline fill="none" stroke="#000" stroke-linecap="round" stroke-linejoin="round" stroke-miterlimit="10" stroke-width="2" points="8.208 24.125 8.208 21.125 11 21.125"/><polyline fill="none" stroke="#000" stroke-linecap="round" stroke-linejoin="round" stroke-miterlimit="10" stroke-width="2" points="15.521 21.125 18.521 21.125 18.521 23.917"/><polyline fill="none" stroke="#000" stroke-linecap="round" stroke-linejoin="round" stroke-miterlimit="10" stroke-width="2" points="18.521 28.438 18.521 31.438 15.729 31.438"/><polyline fill="none" stroke="#000" stroke-linecap="round" stroke-linejoin="round" stroke-miterlimit="10" stroke-width="2" points="11.208 31.438 8.208 31.438 8.208 28.646"/><circle cx="13.229" cy="26.146" r="2.021" fill="none" stroke="#000" stroke-linecap="round" stroke-linejoin="round" stroke-miterlimit="10" stroke-width="2"/><line x1="62.837" x2="40.642" y1="26.021" y2="26.021" fill="none" stroke="#000" stroke-linecap="round" stroke-linejoin="round" stroke-miterlimit="10" stroke-width="2"/><line x1="67.859" x2="62.837" y1="26.021" y2="26.021" fill="none" stroke="#000" stroke-linecap="round" stroke-linejoin="round" stroke-miterlimit="10" stroke-width="2"/><line x1="67.859" x2="62.837" y1="29.238" y2="29.238" fill="none" stroke="#000" stroke-linecap="round" stroke-linejoin="round" stroke-miterlimit="10" stroke-width="2"/><line x1="67.859" x2="62.837" y1="32.456" y2="32.456" fill="none" stroke="#000" stroke-linecap="round" stroke-linejoin="round" stroke-miterlimit="10" stroke-width="2"/><line x1="67.859" x2="62.837" y1="35.673" y2="35.673" fill="none" stroke="#000" stroke-linecap="round" stroke-linejoin="round" stroke-miterlimit="10" stroke-width="2"/><line x1="67.859" x2="62.837" y1="38.891" y2="38.891" fill="none" stroke="#000" stroke-linecap="round" stroke-linejoin="round" stroke-miterlimit="10" stroke-width="2"/><line x1="67.859" x2="62.837" y1="42.108" y2="42.108" fill="none" stroke="#000" stroke-linecap="round" stroke-linejoin="round" stroke-miterlimit="10" stroke-width="2"/><line x1="67.859" x2="62.837" y1="45.325" y2="45.325" fill="none" stroke="#000" stroke-linecap="round" stroke-linejoin="round" stroke-miterlimit="10" stroke-width="2"/><line x1="46.571" x2="46.571" y1="49.235" y2="20.06" fill="none" stroke="#000" stroke-linecap="round" stroke-linejoin="round" stroke-miterlimit="10" stroke-width="2"/></g></svg>