<svg xmlns="http://www.w3.org/2000/svg" id="emoji" version="1.1" viewBox="0 0 72 72"><g id="color"><polygon fill="#9B9B9A" points="16.564 17.064 54.249 17.064 57.374 27.911 60.132 27.911 60.132 41.997 56.961 41.997 50.389 56.979 19.229 56.979 13.255 42.77 11.049 42.77 11.049 26.532 13.255 26.532"/><circle cx="25.388" cy="29.275" r="5.883" fill="#D0CFCE"/><circle cx="27.41" cy="46.11" r="4.044" fill="#D0CFCE"/><circle cx="44.322" cy="36.023" r="7.85" fill="#D0CFCE"/><path fill="#FFF" d="M20.75,15.9438c0-1.5947,1.1753-2.8875,2.625-2.8875S26,14.349,26,15.9438"/><path fill="#FFF" d="M28.625,15.9438c0-1.5947,1.1753-2.8875,2.625-2.8875s2.625,1.2928,2.625,2.8875"/><path fill="#FFF" d="M36.5,15.9438c0-1.5947,1.1753-2.8875,2.625-2.8875s2.625,1.2928,2.625,2.8875"/><path fill="#FFF" d="M44.375,15.9438c0-1.5947,1.1753-2.8875,2.625-2.8875s2.625,1.2928,2.625,2.8875"/></g><g id="line"><polygon fill="none" stroke="#000" stroke-linecap="round" stroke-linejoin="round" stroke-miterlimit="10" stroke-width="2" points="16.564 17.064 54.249 17.064 57.374 27.911 60.132 27.911 60.132 41.997 56.961 41.997 50.389 56.979 19.229 56.979 13.255 42.77 11.049 42.77 11.049 26.532 13.255 26.532"/><circle cx="25.388" cy="29.275" r="5.883" fill="none" stroke="#000" stroke-linecap="round" stroke-linejoin="round" stroke-miterlimit="10" stroke-width="2"/><circle cx="27.41" cy="46.11" r="4.044" fill="none" stroke="#000" stroke-linecap="round" stroke-linejoin="round" stroke-miterlimit="10" stroke-width="2"/><circle cx="44.322" cy="36.023" r="7.85" fill="none" stroke="#000" stroke-linecap="round" stroke-linejoin="round" stroke-miterlimit="10" stroke-width="2"/><line x1="25.388" x2="44.322" y1="23.392" y2="28.173" fill="none" stroke="#000" stroke-linecap="round" stroke-linejoin="round" stroke-miterlimit="10" stroke-width="2"/><path fill="none" stroke="#000" stroke-linecap="round" stroke-linejoin="round" stroke-miterlimit="10" stroke-width="2" d="M19.505,29.2749c0,0,2.2519,14.9967,3.8605,18.4436c1.6085,3.4468,4.0443,2.4358,4.0443,2.4358 c4.0443-0.3677,20.9103-7.3842,20.9103-7.3842"/><path fill="none" stroke="#000" stroke-linecap="round" stroke-linejoin="round" stroke-miterlimit="10" stroke-width="2" d="M20.75,15.9438c0-1.5947,1.1753-2.8875,2.625-2.8875S26,14.349,26,15.9438"/><path fill="none" stroke="#000" stroke-linecap="round" stroke-linejoin="round" stroke-miterlimit="10" stroke-width="2" d="M28.625,15.9438c0-1.5947,1.1753-2.8875,2.625-2.8875s2.625,1.2928,2.625,2.8875"/><path fill="none" stroke="#000" stroke-linecap="round" stroke-linejoin="round" stroke-miterlimit="10" stroke-width="2" d="M36.5,15.9438c0-1.5947,1.1753-2.8875,2.625-2.8875s2.625,1.2928,2.625,2.8875"/><path fill="none" stroke="#000" stroke-linecap="round" stroke-linejoin="round" stroke-miterlimit="10" stroke-width="2" d="M44.375,15.9438c0-1.5947,1.1753-2.8875,2.625-2.8875s2.625,1.2928,2.625,2.8875"/></g></svg>