<svg xmlns="http://www.w3.org/2000/svg" id="emoji" viewBox="0 0 72 72"><g id="color"><rect width="44.879" height="55.438" x="13.353" y="8.12" fill="#D0CFCE" stroke="none"/><polygon fill="#FFF" stroke="none" points="58.231 25.747 40.604 8.12 19.936 8.12 19.914 8.141 58.231 46.458"/><rect width="36.159" height="41.439" x="17.881" y="13.037" fill="#3F3F3F" stroke="none"/><polygon fill="#9B9B9A" stroke="none" points="54.04 42.266 54.04 21.555 45.522 13.037 24.81 13.037"/></g><g id="line"><path fill="none" stroke="#000" stroke-linecap="round" stroke-linejoin="round" stroke-miterlimit="10" stroke-width="2" d="M13.4698,62.5391V9.1669c0-0.55,0.45-1,1-1h43.0444c0.55,0,1,0.45,1,1v53.3722c0,0.55-0.45,1-1,1H14.4698 C13.9198,63.5391,13.4698,63.0891,13.4698,62.5391z"/><circle cx="35.992" cy="59.084" r="2" fill="#000" stroke="none"/><rect width="36.159" height="41.439" x="17.881" y="13.037" fill="none" stroke="#000" stroke-linecap="round" stroke-linejoin="round" stroke-miterlimit="10" stroke-width="2"/></g></svg>