<svg xmlns="http://www.w3.org/2000/svg" id="emoji" viewBox="0 0 72 72"><g id="color"><path fill="#9B9B9A" stroke="none" d="M36.0216,12.9316c-12.6956,0-22.9874,10.2918-22.9874,22.9874S23.326,58.9065,36.0216,58.9065 S59.009,48.6147,59.009,35.9191S48.7172,12.9316,36.0216,12.9316z M36.0216,50.8832c-8.2645,0-14.9642-6.6997-14.9642-14.9642 s6.6997-14.9642,14.9642-14.9642s14.9642,6.6997,14.9642,14.9642S44.2861,50.8832,36.0216,50.8832z"/><rect width="8.982" height="11.19" x="31.529" y="7.661" fill="#9B9B9A" stroke="none"/><rect width="8.982" height="11.19" x="31.529" y="53.069" fill="#9B9B9A" stroke="none"/><rect width="8.982" height="11.19" x="8.783" y="30.307" fill="#9B9B9A" stroke="none" transform="matrix(-1.836970e-16 1 -1 -1.836970e-16 49.1756 22.6276)"/><rect width="8.982" height="11.19" x="54.223" y="30.307" fill="#9B9B9A" stroke="none" transform="matrix(-1.836970e-16 1 -1 -1.836970e-16 94.6159 -22.8127)"/></g><g id="line"><path fill="none" stroke="#000" stroke-linecap="round" stroke-linejoin="round" stroke-miterlimit="10" stroke-width="2" d="M58.8744,31.433c-1.784-9.0631-9.3335-16.482-18.3729-18.3317"/><path fill="none" stroke="#000" stroke-linecap="round" stroke-linejoin="round" stroke-miterlimit="10" stroke-width="2" d="M40.5016,58.8163c9.1275-1.7899,16.5775-9.2979,18.3729-18.4234"/><path fill="none" stroke="#000" stroke-linecap="round" stroke-linejoin="round" stroke-miterlimit="10" stroke-width="2" d="M13.1201,40.3929c1.7832,9.1158,9.3162,16.611,18.4216,18.4234"/><path fill="none" stroke="#000" stroke-linecap="round" stroke-linejoin="round" stroke-miterlimit="10" stroke-width="2" d="M31.5417,13.1012c-9.07,1.8049-16.6032,9.2666-18.4216,18.3317"/><circle cx="36.022" cy="35.919" r="15" fill="none" stroke="#000" stroke-linecap="round" stroke-linejoin="round" stroke-miterlimit="10" stroke-width="2"/><line x1="31.542" x2="31.542" y1="13.101" y2="8.66" fill="none" stroke="#000" stroke-linecap="round" stroke-linejoin="round" stroke-miterlimit="10" stroke-width="2"/><line x1="40.502" x2="40.502" y1="13.101" y2="8.66" fill="none" stroke="#000" stroke-linecap="round" stroke-linejoin="round" stroke-miterlimit="10" stroke-width="2"/><line x1="31.542" x2="31.542" y1="63.258" y2="58.816" fill="none" stroke="#000" stroke-linecap="round" stroke-linejoin="round" stroke-miterlimit="10" stroke-width="2"/><line x1="40.502" x2="40.502" y1="63.258" y2="58.816" fill="none" stroke="#000" stroke-linecap="round" stroke-linejoin="round" stroke-miterlimit="10" stroke-width="2"/><line x1="58.874" x2="63.316" y1="31.433" y2="31.433" fill="none" stroke="#000" stroke-linecap="round" stroke-linejoin="round" stroke-miterlimit="10" stroke-width="2"/><line x1="58.874" x2="63.316" y1="40.393" y2="40.393" fill="none" stroke="#000" stroke-linecap="round" stroke-linejoin="round" stroke-miterlimit="10" stroke-width="2"/><line x1="8.679" x2="13.12" y1="31.433" y2="31.433" fill="none" stroke="#000" stroke-linecap="round" stroke-linejoin="round" stroke-miterlimit="10" stroke-width="2"/><line x1="8.679" x2="13.12" y1="40.393" y2="40.393" fill="none" stroke="#000" stroke-linecap="round" stroke-linejoin="round" stroke-miterlimit="10" stroke-width="2"/></g></svg>