<svg xmlns="http://www.w3.org/2000/svg" id="emoji" viewBox="0 0 72 72"><g id="color"><polygon fill="#FFF" stroke="none" points="49 41.711 36 30 23 41.711 23 61 49 61"/><polyline fill="#FFF" stroke="none" points="31.028 42.624 21.945 34.123 15 28.923 7 36.13 7 48 23 48"/><polyline fill="#FFF" stroke="none" points="49 59 66 59 66 46.388 56.848 38.362 47.041 46.697"/><polyline fill="#FFF" stroke="none" points="41.6 35 41.6 25.376 36 20 30.4 25.376 30.4 35"/><polyline fill="#D0CFCE" stroke="none" points="49 61 49 42 32 61"/><polyline fill="#D0CFCE" stroke="none" points="23 48 23 40.333 15.333 48"/><polyline fill="#D0CFCE" stroke="none" points="66 59 66 47 56 59"/></g><g id="line"><path fill="#000" stroke="none" d="M35.9999,20.7631c-0.5789,0-1.0484-0.4694-1.0484-1.0484v-9.4295c0-0.579,0.4695-1.0484,1.0484-1.0484 c0.579,0,1.0484,0.4694,1.0484,1.0484v9.4295C37.0484,20.2938,36.579,20.7631,35.9999,20.7631z"/><path fill="#000" stroke="none" d="M39.8235,15.1571h-7.647c-0.579,0-1.0484-0.4694-1.0484-1.0484c0-0.5789,0.4694-1.0484,1.0484-1.0484 h7.647c0.579,0,1.0484,0.4695,1.0484,1.0484C40.8719,14.6877,40.4025,15.1571,39.8235,15.1571z"/><polygon fill="none" stroke="#000" stroke-linecap="round" stroke-linejoin="round" stroke-miterlimit="10" stroke-width="2" points="49 41.711 36 30 23 41.711 23 61 49 61"/><polyline fill="none" stroke="#000" stroke-linecap="round" stroke-linejoin="round" stroke-miterlimit="10" stroke-width="2" points="23 36.13 15 28.923 7 36.13 7 48 23 48"/><polyline fill="none" stroke="#000" stroke-linecap="round" stroke-linejoin="round" stroke-miterlimit="10" stroke-width="2" points="49 59 66 59 66 46.388 57.5 38.731 52.857 42.857"/><polyline fill="none" stroke="#000" stroke-linecap="round" stroke-linejoin="round" stroke-miterlimit="10" stroke-width="2" points="41.6 35 41.6 25.376 36 20 30.4 25.376 30.4 35"/></g></svg>