<svg xmlns="http://www.w3.org/2000/svg" id="emoji" viewBox="0 0 72 72"><g id="color"><path fill="#61B2E4" stroke="none" stroke-linecap="round" stroke-linejoin="round" stroke-miterlimit="10" stroke-width="2" d="M12.0133,16.0194c0,7.5,5,13.75,5,13.75s5-6.25,5-13.75"/><circle cx="17.013" cy="16.019" r="5" fill="#92D3F5" stroke="none" stroke-miterlimit="10" stroke-width="2"/><path fill="#D22F27" stroke="none" stroke-linecap="round" stroke-linejoin="round" stroke-miterlimit="10" stroke-width="2" d="M50.0133,44.0194c0,7.5,5,13.75,5,13.75s5-6.25,5-13.75"/><circle cx="55.013" cy="44.019" r="5" fill="#EA5A47" stroke="none" stroke-miterlimit="10" stroke-width="2"/></g><g id="line"><path fill="none" stroke="#000" stroke-linecap="round" stroke-linejoin="round" stroke-miterlimit="10" stroke-width="2" d="M12.0133,16.0194c0,7.5,5,13.75,5,13.75s5-6.25,5-13.75"/><circle cx="17.013" cy="16.019" r="5" fill="none" stroke="#000" stroke-miterlimit="10" stroke-width="2"/><path fill="none" stroke="#000" stroke-linecap="round" stroke-linejoin="round" stroke-miterlimit="10" stroke-width="2" d="M50.0133,44.0194c0,7.5,5,13.75,5,13.75s5-6.25,5-13.75"/><circle cx="55.013" cy="44.019" r="5" fill="none" stroke="#000" stroke-miterlimit="10" stroke-width="2"/><path fill="none" stroke="#000" stroke-linecap="round" stroke-linejoin="round" stroke-miterlimit="10" stroke-width="2" d="M17,33c0,0,16,0,17,14s16,14,21,14"/><line x1="31.971" x2="44.029" y1="21.741" y2="32.259" fill="none" stroke="#000" stroke-linecap="round" stroke-linejoin="round" stroke-miterlimit="10" stroke-width="2"/><line x1="43.547" x2="44.029" y1="25.204" y2="32.259" fill="none" stroke="#000" stroke-linecap="round" stroke-linejoin="round" stroke-miterlimit="10" stroke-width="2"/><line x1="36.974" x2="44.029" y1="32.74" y2="32.259" fill="none" stroke="#000" stroke-linecap="round" stroke-linejoin="round" stroke-miterlimit="10" stroke-width="2"/></g></svg>