<svg xmlns="http://www.w3.org/2000/svg" id="emoji" version="1.1" viewBox="0 0 72 72"><g id="color"><path fill="#9B9B9A" d="M16.0497,54.9455c-1.6613,0-3.0081-1.3468-3.0081-3.0081v-8.862l-0.0015-3.4078 c-0.0001-0.2111,0.2466-0.326,0.4082-0.1901l3.7794,3.3007c0.1356,0.1142,0.3072,0.1768,0.4845,0.1768h23.2796 c1.6613,0,3.0081,1.3468,3.0081,3.0081v5.9742c0,1.6613-1.3468,3.0081-3.0081,3.0081L16.0497,54.9455L16.0497,54.9455z"/><path fill="#D0CFCE" d="M58.6474,32.468c0.1623,0.1367,0.4103,0.0212,0.4102-0.191l-0.0014-3.2289h0.0005v-9.0304 c0-1.6702-1.354-3.0242-3.0242-3.0242H31.1218c-1.6702,0-3.0242,1.354-3.0242,3.0242v6.0062c0,1.6702,1.354,3.0242,3.0242,3.0242 h23.3303c0.1782,0,0.3507,0.063,0.487,0.1777L58.6474,32.468z"/></g><g id="skin"><circle cx="13.02" cy="20.122" r="3" fill="#FCEA2B"/><circle cx="59.08" cy="42.036" r="3" fill="#FCEA2B"/><polygon fill="#FCEA2B" points="7.456 30.226 10.538 27.512 15.372 27.314 18.34 30.142 19.025 34.121 6.944 34.114"/><polygon fill="#FCEA2B" points="53.58 52.143 56.661 49.429 61.495 49.231 64.464 52.058 65.148 56.038 53.067 56.03"/></g><g id="line"><circle cx="13.02" cy="20.122" r="3" fill="none" stroke="#000" stroke-miterlimit="10" stroke-width="2"/><path fill="none" stroke="#000" stroke-linecap="round" stroke-linejoin="round" stroke-miterlimit="10" stroke-width="2" d="M7.0196,33.1223c0,0,1-4.3112,3-5.3112s4-1,6,0s3,5.3112,3,5.3112"/><circle cx="59.08" cy="42.036" r="3" fill="none" stroke="#000" stroke-miterlimit="10" stroke-width="2"/><path fill="none" stroke="#000" stroke-linecap="round" stroke-linejoin="round" stroke-miterlimit="10" stroke-width="2" d="M53.0802,55.0363c0,0,1-4.3112,3-5.3112s4-1,6,0s3,5.3112,3,5.3112"/><path fill="none" stroke="#000" stroke-miterlimit="10" stroke-width="2" d="M16.0497,54.9455 c-1.6613,0-3.0081-1.3468-3.0081-3.0081v-8.862l-0.0015-3.4078c-0.0001-0.2111,0.2466-0.326,0.4082-0.1901l3.7794,3.3007 c0.1356,0.1142,0.3072,0.1768,0.4845,0.1768h23.2796c1.6613,0,3.0081,1.3468,3.0081,3.0081v5.9742 c0,1.6613-1.3468,3.0081-3.0081,3.0081L16.0497,54.9455L16.0497,54.9455z"/><path fill="none" stroke="#000" stroke-miterlimit="10" stroke-width="2" d="M58.6474,32.468 c0.1623,0.1367,0.4103,0.0212,0.4102-0.191l-0.0014-3.2289h0.0005v-9.0304c0-1.6702-1.354-3.0242-3.0242-3.0242H31.1218 c-1.6702,0-3.0242,1.354-3.0242,3.0242v6.0062c0,1.6702,1.354,3.0242,3.0242,3.0242h23.3303c0.1782,0,0.3507,0.063,0.487,0.1777 L58.6474,32.468z"/></g></svg>