<svg xmlns="http://www.w3.org/2000/svg" id="emoji" version="1.1" viewBox="0 0 72 72"><g id="color"><path fill="#D0CFCE" d="M35.67,60.98C10.08,54.96,11,16.06,11,16.06c4.75,0.05,25-5.08,25-5.08v0.09c0,0,20.25,5.12,25,5.08 C61,16.15,61.25,54.96,35.67,60.98z"/><path fill="#9B9B9A" d="M46.5557,13.5874C46.5557,13.5874,53,44,36,60c0,0,16-1,22-25s0-19,0-19L46.5557,13.5874"/><polygon fill="#61B2E4" points="26.644 32.829 35.809 46.84 50.513 22.576 45.41 25.067 35.841 40.858 29.876 31.74"/></g><g id="line"><path fill="none" stroke="#000" stroke-linecap="round" stroke-linejoin="round" stroke-miterlimit="10" stroke-width="2" d="M36,10.9792c0,0-20.2537,5.1291-25,5.0853c0,0-0.9167,38.8939,24.6667,44.9147"/><path fill="none" stroke="#000" stroke-linecap="round" stroke-linejoin="round" stroke-miterlimit="10" stroke-width="2" d="M35.6667,60.9792C61.25,54.9584,61,16.151,61,16.151c-4.7463,0.0437-25-5.0853-25-5.0853"/><polygon fill="none" stroke="#000" stroke-linecap="round" stroke-linejoin="round" stroke-miterlimit="10" stroke-width="2" points="26.644 32.829 35.809 46.84 50.513 22.576 45.41 25.067 35.841 40.858 29.876 31.74"/></g></svg>