<svg xmlns="http://www.w3.org/2000/svg" id="emoji" viewBox="0 0 72 72"><g id="color"><polyline fill="#fcea2b" stroke="none" stroke-linecap="round" stroke-linejoin="round" stroke-miterlimit="10" stroke-width="2" points="36 10.979 11 10.979 11 16.021 31.5 34.25 31.5 56.021 40.5 60.979 40.5 34.25 61 16.021 61 10.979 36 10.979"/><polygon fill="#F1B31C" stroke="none" points="36 57.193 36 57.193 39.268 58.875 39.268 33.908 59.768 15.583 59.768 12.171 49.518 12.171 49.518 16.025 36.018 32.858"/><path fill="#fcea2b" stroke="none" stroke-linecap="round" stroke-linejoin="round" stroke-miterlimit="10" stroke-width="2" d="M68.0011,43.9411"/></g><g id="line"><polyline fill="none" stroke="#000" stroke-linecap="round" stroke-linejoin="round" stroke-miterlimit="10" stroke-width="2" points="36 10.979 11 10.979 11 16.021 31.5 34.25 31.5 56.021 40.5 60.979 40.5 34.25 61 16.021 61 10.979 36 10.979"/><path fill="none" stroke="#000" stroke-linecap="round" stroke-linejoin="round" stroke-miterlimit="10" stroke-width="2" d="M68.0011,43.9411"/></g></svg>