<svg xmlns="http://www.w3.org/2000/svg" id="emoji" version="1.1" viewBox="0 0 72 72"><g id="color"><polyline fill="#FFF" points="51.065 43.916 51.065 10.979 18.937 10.979 18.937 60.739 34.999 60.739"/><circle cx="43.167" cy="52.167" r="11.129" fill="#D0CFCE"/></g><g id="line"><polyline fill="none" stroke="#000" stroke-linecap="round" stroke-linejoin="round" stroke-miterlimit="10" stroke-width="2" points="51.065 43.916 51.065 10.979 18.937 10.979 18.937 60.739 34.999 60.739"/><line x1="23.667" x2="32" y1="16.02" y2="16.02" fill="none" stroke="#000" stroke-linecap="round" stroke-linejoin="round" stroke-miterlimit="10" stroke-width="2"/><line x1="23.667" x2="45.667" y1="24.5" y2="24.5" fill="none" stroke="#000" stroke-linecap="round" stroke-linejoin="round" stroke-miterlimit="10" stroke-width="2"/><line x1="23.667" x2="45.667" y1="28.271" y2="28.271" fill="none" stroke="#000" stroke-linecap="round" stroke-linejoin="round" stroke-miterlimit="10" stroke-width="2"/><line x1="23.667" x2="45.667" y1="32.041" y2="32.041" fill="none" stroke="#000" stroke-linecap="round" stroke-linejoin="round" stroke-miterlimit="10" stroke-width="2"/><line x1="23.667" x2="45.667" y1="35.812" y2="35.812" fill="none" stroke="#000" stroke-linecap="round" stroke-linejoin="round" stroke-miterlimit="10" stroke-width="2"/><line x1="23.667" x2="45.667" y1="39.583" y2="39.583" fill="none" stroke="#000" stroke-linecap="round" stroke-linejoin="round" stroke-miterlimit="10" stroke-width="2"/><line x1="36.38" x2="23.67" y1="43.35" y2="43.35" fill="none" stroke="#000" stroke-linecap="round" stroke-linejoin="round" stroke-miterlimit="10" stroke-width="2"/><line x1="33.25" x2="23.67" y1="47.12" y2="47.12" fill="none" stroke="#000" stroke-linecap="round" stroke-linejoin="round" stroke-miterlimit="10" stroke-width="2"/><line x1="32.12" x2="23.67" y1="50.89" y2="50.89" fill="none" stroke="#000" stroke-linecap="round" stroke-linejoin="round" stroke-miterlimit="10" stroke-width="2"/><circle cx="43.167" cy="52.167" r="11.129" fill="none" stroke="#000" stroke-linecap="round" stroke-linejoin="round" stroke-miterlimit="10" stroke-width="2"/><line x1="51.065" x2="56.532" y1="60.739" y2="66.206" fill="none" stroke="#000" stroke-linecap="round" stroke-linejoin="round" stroke-miterlimit="10" stroke-width="2"/><line x1="33.439" x2="46.875" y1="48.453" y2="48.453" fill="none" stroke="#000" stroke-linecap="round" stroke-linejoin="round" stroke-miterlimit="10" stroke-width="2"/><line x1="32.172" x2="46.875" y1="53.839" y2="53.839" fill="none" stroke="#000" stroke-linecap="round" stroke-linejoin="round" stroke-miterlimit="10" stroke-width="2"/></g></svg>