<svg xmlns="http://www.w3.org/2000/svg" id="emoji" viewBox="0 0 72 72"><g id="color"><path fill="#A57939" stroke="none" stroke-linecap="round" stroke-linejoin="round" stroke-miterlimit="10" stroke-width="2" d="M57.9219,59.7151H14.0782c-0.55,0-1-0.45-1-1V35.1819c0-0.55,0.45-1,1-1h43.8437c0.55,0,1,0.45,1,1v23.5332 C58.9219,59.2651,58.4719,59.7151,57.9219,59.7151z"/></g><g id="line"><path fill="none" stroke="#000" stroke-linecap="round" stroke-linejoin="round" stroke-miterlimit="10" stroke-width="2" d="M57.9219,59.7151H14.0782c-0.55,0-1-0.45-1-1V35.1819c0-0.55,0.45-1,1-1h43.8437c0.55,0,1,0.45,1,1v23.5332 C58.9219,59.2651,58.4719,59.7151,57.9219,59.7151z"/><path fill="none" stroke="#000" stroke-linecap="round" stroke-linejoin="round" stroke-miterlimit="10" stroke-width="2" d="M57.7185,60.0021H14.3634c-0.6323,0-1.1449-0.5126-1.1449-1.1449V35.103c0-0.6323,0.5126-1.1449,1.1449-1.1449h43.3551 c0.6323,0,1.1449,0.5126,1.1449,1.1449v23.7542C58.8634,59.4895,58.3508,60.0021,57.7185,60.0021z"/><line x1="13.443" x2="58.809" y1="47.011" y2="47.011" fill="none" stroke="#000" stroke-linecap="round" stroke-linejoin="round" stroke-miterlimit="10" stroke-width="2"/><line x1="40.028" x2="32.001" y1="38.97" y2="38.97" fill="none" stroke="#000" stroke-linecap="round" stroke-linejoin="round" stroke-miterlimit="10" stroke-width="2"/><line x1="40.028" x2="32.001" y1="51.973" y2="51.973" fill="none" stroke="#000" stroke-linecap="round" stroke-linejoin="round" stroke-miterlimit="10" stroke-width="2"/><line x1="36.047" x2="36.047" y1="9.125" y2="27.995" fill="none" stroke="#000" stroke-linecap="round" stroke-linejoin="round" stroke-miterlimit="10" stroke-width="2"/><line x1="42.202" x2="36.062" y1="21.874" y2="28.014" fill="none" stroke="#000" stroke-linecap="round" stroke-linejoin="round" stroke-miterlimit="10" stroke-width="2"/><line x1="29.872" x2="36.012" y1="21.874" y2="28.014" fill="none" stroke="#000" stroke-linecap="round" stroke-linejoin="round" stroke-miterlimit="10" stroke-width="2"/></g></svg>