<svg xmlns="http://www.w3.org/2000/svg" id="emoji" viewBox="0 0 72 72"><g id="color"><path fill="#FFF" stroke="none" d="M51.7598,17H20.1525v37.65c0,4.0593,3.2907,5.6209,7.35,5.6209h16.9073c4.0593,0,7.35-1.5616,7.35-5.6209 V17z"/><polyline fill="#FFF" stroke="none" stroke-linecap="round" stroke-linejoin="round" stroke-miterlimit="10" stroke-width="2" points="31 16 31 12 41 12 41 16"/><polygon fill="#9b9b9a" stroke="none" points="51 37 51 46.517 51 57.621 48.3 60 33 60"/><rect width="38" height="4" x="17" y="16" fill="#FFF" stroke="none" stroke-linecap="round" stroke-linejoin="round" stroke-miterlimit="10" stroke-width="2"/></g><g id="line"><polyline fill="none" stroke="#000" stroke-linecap="round" stroke-linejoin="round" stroke-miterlimit="10" stroke-width="2" points="31 16 31 12 41 12 41 16"/><path fill="none" stroke="#000" stroke-linecap="round" stroke-linejoin="round" stroke-miterlimit="10" stroke-width="2" d="M51,25v31c0,2.2091-1.7909,4-4,4H25c-2.2091,0-4-1.7909-4-4V25"/><rect width="38" height="4" x="17" y="16" fill="none" stroke="#000" stroke-linecap="round" stroke-linejoin="round" stroke-miterlimit="10" stroke-width="2"/><line x1="41" x2="41" y1="28.25" y2="55" fill="none" stroke="#000" stroke-linecap="round" stroke-linejoin="round" stroke-miterlimit="10" stroke-width="2"/><line x1="31" x2="31" y1="28.25" y2="55" fill="none" stroke="#000" stroke-linecap="round" stroke-linejoin="round" stroke-miterlimit="10" stroke-width="2"/></g></svg>