<svg xmlns="http://www.w3.org/2000/svg" id="emoji" viewBox="0 0 72 72"><g id="color"><rect width="29.619" height="48.13" x="20.684" y="12.084" fill="#fcea2b"/><rect width="10.018" height="48.13" x="40.431" y="12.084" fill="#f1b31c"/></g><g id="line"><line x1="19.178" x2="51.536" y1="60.214" y2="60.214" fill="none" stroke="#000" stroke-linecap="round" stroke-linejoin="round" stroke-width="2"/><line x1="51.536" x2="19.178" y1="11.677" y2="11.677" fill="none" stroke="#000" stroke-linecap="round" stroke-linejoin="round" stroke-width="2"/><line x1="37.276" x2="42.669" y1="10.214" y2="10.214" fill="none" stroke="#000" stroke-linecap="round" stroke-linejoin="round" stroke-width="2"/><path fill="none" stroke="#000" stroke-linecap="round" stroke-linejoin="round" stroke-width="2" d="M19.178,11.6767c1.7347,1.6573,2.1728,4.5617,2.1728,7.8687,0,3.6246-.1542,6.7653-2.1728,8.31"/><path fill="none" stroke="#000" stroke-linecap="round" stroke-linejoin="round" stroke-width="2" d="M19.178,27.8559c1.7347,1.6573,2.1728,4.5616,2.1728,7.8687,0,3.6246-.1542,6.7653-2.1728,8.31"/><path fill="none" stroke="#000" stroke-linecap="round" stroke-linejoin="round" stroke-width="2" d="M19.178,44.0351c1.7347,1.6573,2.1728,4.5616,2.1728,7.8687,0,3.6246-.1542,6.7653-2.1728,8.3105"/><path fill="none" stroke="#000" stroke-linecap="round" stroke-linejoin="round" stroke-width="2" d="M51.5363,11.6767c-1.7348,1.6573-2.1729,4.5617-2.1729,7.8687,0,3.6246.1543,6.7653,2.1729,8.31"/><path fill="none" stroke="#000" stroke-linecap="round" stroke-linejoin="round" stroke-width="2" d="M51.5363,27.8559c-1.7348,1.6573-2.1729,4.5616-2.1729,7.8687,0,3.6246.1543,6.7653,2.1729,8.31"/><path fill="none" stroke="#000" stroke-linecap="round" stroke-linejoin="round" stroke-width="2" d="M51.5363,44.0351c-1.7348,1.6573-2.1729,4.5616-2.1729,7.8687,0,3.6246.1543,6.7653,2.1729,8.3105"/><g><path stroke="#000" stroke-linecap="round" stroke-linejoin="round" stroke-width="2" d="M36.727,35.4885A1.2333,1.2333,0,1,1,36.11,34.42,1.2336,1.2336,0,0,1,36.727,35.4885Z"/><path stroke="#000" stroke-linecap="round" stroke-linejoin="round" stroke-width="2" d="M30.5565,35.4885a4.9345,4.9345,0,0,1,2.4678-4.2758l-2.4687-4.2758A9.8691,9.8691,0,0,0,25.62,35.4885Z"/><path stroke="#000" stroke-linecap="round" stroke-linejoin="round" stroke-width="2" d="M37.9615,39.7643a4.9428,4.9428,0,0,1-4.9372,0L30.5557,44.04a9.8851,9.8851,0,0,0,9.8745,0Z"/><path stroke="#000" stroke-linecap="round" stroke-linejoin="round" stroke-width="2" d="M37.9615,31.2127a4.9345,4.9345,0,0,1,2.4678,4.2758h4.9365A9.8691,9.8691,0,0,0,40.43,26.9369Z"/></g></g></svg>