<svg xmlns="http://www.w3.org/2000/svg" id="emoji" viewBox="0 0 72 72"><g id="color"><g id="skin"><ellipse cx="35.593" cy="28.277" fill="#f4aa41" rx="11.281" ry="14.358"/></g><g id="color-2"><g id="color-2-2"><path fill="#f4aa41" d="M55.7858,58.9753A1.0255,1.0255,0,0,1,54.76,57.95V54.8732c0-4.5649-4.6149-9.0357-8.8723-9.2219-6.3636,5.1407-12.81,5.1407-19.1777,0-4.2624.1873-9.8989,4.657-9.8989,9.2219V57.95a1.0248,1.0248,0,0,1-1.0243,1.0255h-.0012"/></g></g><polygon fill="#d0cfce" points="43.887 19.363 27.689 19.363 24.731 24.335 25.638 33.685 45.938 33.685 46.896 24.619 43.887 19.363"/><circle cx="35.593" cy="40.578" r="5.128" fill="#3f3f3f"/><circle cx="35.593" cy="40.578" r="1.538" fill="#d0cfce"/><polygon fill="#fff" points="33.889 33.75 39 33.838 43.27 19.027 38.16 18.939 33.889 33.75"/><ellipse cx="44.545" cy="38.517" fill="#d22f27" rx="3.086" ry="2.061" transform="translate(-13.5937 47.8818) rotate(-50)"/><ellipse cx="26.558" cy="38.517" fill="#d22f27" rx="2.061" ry="3.086" transform="translate(-18.5448 26.0823) rotate(-40)"/></g><g id="line"><path fill="none" stroke="#000" stroke-linecap="round" stroke-linejoin="round" stroke-width="2" d="M16.3024,57.8917V54.8151c0-5.1217,5.1357-9.23,10.2554-9.23q9.23,7.6915,18.46,0c5.1216,0,10.2554,4.1082,10.2554,9.23v3.0766"/><line x1="27.689" x2="43.886" y1="18.338" y2="18.338" fill="none" stroke="#000" stroke-linecap="round" stroke-linejoin="round" stroke-width="2"/><line x1="25.638" x2="45.938" y1="33.685" y2="33.685" fill="none" stroke="#000" stroke-linecap="round" stroke-linejoin="round" stroke-width="2"/><line x1="26.558" x2="26.558" y1="45.585" y2="57.95" fill="none" stroke="#000" stroke-linecap="round" stroke-linejoin="round" stroke-width="2"/><circle cx="35.593" cy="40.578" r="5.128" fill="none" stroke="#000" stroke-linecap="round" stroke-linejoin="round" stroke-width="2"/><ellipse cx="44.545" cy="38.517" fill="none" stroke="#000" stroke-linecap="round" stroke-linejoin="round" stroke-width="2" rx="3.086" ry="2.061" transform="translate(-13.5937 47.8818) rotate(-50)"/><ellipse cx="26.558" cy="38.517" fill="none" stroke="#000" stroke-linecap="round" stroke-linejoin="round" stroke-width="2" rx="2.061" ry="3.086" transform="translate(-18.5448 26.0823) rotate(-40)"/><path fill="none" stroke="#000" stroke-linecap="round" stroke-linejoin="round" stroke-width="2" d="M26.0369,35.6641A17.2426,17.2426,0,0,1,24.44,28.2772c0-3.369.9753-7.5655,3.0766-10.2554a9.755,9.755,0,0,1,.8615-.968,10.8875,10.8875,0,0,1,7.3428-2.8778h.0652a10.8875,10.8875,0,0,1,7.3428,2.8778,9.755,9.755,0,0,1,.8615.968c2.1013,2.69,3.0766,6.8864,3.0766,10.2554a17.2452,17.2452,0,0,1-1.5935,7.379"/><circle cx="47.067" cy="51.558" r="2.1"/></g></svg>