<svg xmlns="http://www.w3.org/2000/svg" id="emoji" viewBox="0 0 72 72"><g id="line"><ellipse cx="31.584" cy="51.77" fill="none" stroke="#000" stroke-miterlimit="10" stroke-width="2" rx="3.729" ry="3.003" transform="rotate(-56.229 31.584 51.77)"/><path d="M30.5831,48.93l-.2992-2.1686s-1.1385.02-.5878-.7848l2.3613-.279.3392,2.4585A3.2,3.2,0,0,0,30.5831,48.93Z"/><line x1="31.221" x2="38.088" y1="46.153" y2="32.714" fill="none" stroke="#000" stroke-linecap="round" stroke-linejoin="round" stroke-width="2"/><ellipse cx="23.568" cy="47.537" fill="none" stroke="#000" stroke-miterlimit="10" stroke-width="2" rx="3.729" ry="3.003" transform="rotate(-62.651 23.568 47.537)"/><path d="M26.2019,46.375l2.0434-.7854s.532,1.0067.971.1356l-.8-2.0978-2.3166.89A3.1724,3.1724,0,0,1,26.2019,46.375Z"/><line x1="28.34" x2="37.293" y1="44.648" y2="31.887" fill="none" stroke="#000" stroke-linecap="round" stroke-linejoin="round" stroke-width="2"/><path fill="none" stroke="#000" stroke-linecap="round" stroke-linejoin="round" stroke-width="2" d="M47.0234,19.2768s4.32,2.9181-.5265,5.981L40.604,28.3646"/><path fill="none" stroke="#000" stroke-linecap="round" stroke-linejoin="round" stroke-width="2" d="M44.32,18.1092s-4.7619-2.1223-4.7969,3.6111l.4813,6.6443"/><rect width="3.471" height="5.679" x="37.289" y="27.319" rx="1.736" transform="rotate(30 39.025 30.158)"/></g><g id="color-foreground"><circle cx="39.02" cy="30.132" r=".613" fill="#fff"/></g></svg>