<svg xmlns="http://www.w3.org/2000/svg" id="emoji" viewBox="0 0 72 72"><g id="color"><ellipse cx="34.961" cy="25.779" fill="#fff" rx="2.251" ry="1.373"/></g><g id="line"><ellipse cx="35.169" cy="26.101" fill="none" stroke="#000" stroke-miterlimit="10" stroke-width="2" rx="9.587" ry="4.681"/><path fill="none" stroke="#000" stroke-miterlimit="10" stroke-width="2" d="M25.5821,45.118c0,1.7658,4.2926,3.1908,9.5852,3.1908,5.3,0,8.1386-1.0336,10.4642-2.5249"/><line x1="25.582" x2="25.582" y1="26.101" y2="45.12" fill="none" stroke="#000" stroke-miterlimit="10" stroke-width="2"/><line x1="44.759" x2="44.759" y1="27.933" y2="26.097" fill="none" stroke="#000" stroke-miterlimit="10" stroke-width="2"/><path fill="none" stroke="#000" stroke-linecap="round" stroke-linejoin="round" stroke-width="2" d="M42.165,29.3017s5.3488-1.7634,7.1208-3.2043V42.9843a20.9345,20.9345,0,0,1-7.3085,4.5137"/><ellipse cx="34.961" cy="26.097" fill="none" stroke="#000" stroke-linecap="round" stroke-linejoin="round" stroke-width="2" rx="2.251" ry="1.373"/><path fill="none" stroke="#000" stroke-linecap="round" stroke-linejoin="round" stroke-width="2" d="M34.344,58.0262a22.6773,22.6773,0,0,1-5.6481-44.1971"/><path d="M29.0563,17.4945l4.6293-4.14a.51.51,0,0,0-.1806-.8647l-5.8993-1.94a.51.51,0,0,0-.6585.5887l1.27,6.08A.51.51,0,0,0,29.0563,17.4945Z"/><path fill="none" stroke="#000" stroke-linecap="round" stroke-linejoin="round" stroke-width="2" d="M37.656,12.7662a22.6773,22.6773,0,0,1,5.648,44.1971"/><path d="M42.9437,53.2979l-4.6293,4.14a.51.51,0,0,0,.1806.8646l5.8993,1.94a.51.51,0,0,0,.6585-.5887l-1.27-6.08A.51.51,0,0,0,42.9437,53.2979Z"/></g></svg>