<svg xmlns="http://www.w3.org/2000/svg" id="emoji" viewBox="0 0 72 72"><g id="color"><path fill="#92d3f5" d="M48.8521,24.6873h0a4.7576,4.7576,0,0,0-6.7234-.2545L26.1505,39.2452c-1.336,1.2384-1.5632,4.9386-1.7681,5.1272l-3.1005,2.8552a2.3555,2.3555,0,0,0-.1371,3.3284l.1148.1246a2.3555,2.3555,0,0,0,3.3283.1371l3.1005-2.8552c.2642-.2432,3.7053-.6033,4.9309-1.7394L48.5976,31.4105A4.7574,4.7574,0,0,0,48.8521,24.6873Z"/></g><g id="line"><path fill="none" stroke="#000" stroke-linecap="round" stroke-linejoin="round" stroke-width="2" d="M48.8521,24.6873h0a4.7576,4.7576,0,0,0-6.7234-.2545L26.1505,39.2452c-1.336,1.2384-1.5632,4.9386-1.7681,5.1272l-3.1005,2.8552a2.3555,2.3555,0,0,0-.1371,3.3284l.1148.1246a2.3555,2.3555,0,0,0,3.3283.1371l3.1005-2.8552c.2642-.2432,3.7053-.6033,4.9309-1.7394L48.5976,31.4105A4.7574,4.7574,0,0,0,48.8521,24.6873Z"/><line x1="23.463" x2="46.253" y1="48.575" y2="27.417" fill="none" stroke="#000" stroke-linecap="round" stroke-linejoin="round" stroke-width="2"/><rect width="2.893" height="1.571" x="27.905" y="37.732" rx=".523" transform="translate(35.8328 -9.4735) rotate(45)"/><rect width="2.126" height="1.571" x="31.086" y="34.331" rx=".523" transform="translate(34.2471 -12.4476) rotate(45)"/><rect width="3.39" height="1.571" x="33.602" y="32.203" rx=".523" transform="translate(33.6646 -15.297) rotate(45)"/><rect width="2.786" height="1.571" x="36.814" y="29.035" rx=".523" transform="translate(32.2766 -18.2825) rotate(45)"/><rect width="2.786" height="1.571" x="39.727" y="26.249" rx=".523" transform="translate(31.1598 -21.1579) rotate(45)"/></g></svg>