<svg xmlns="http://www.w3.org/2000/svg" id="emoji" viewBox="0 0 72 72"><g id="color"><polygon fill="#d0cfce" points="35.665 44.073 36.036 43.134 40.401 41.634 44.301 47.155 39.993 50.199 35.665 44.073"/><rect width="7.766" height="5.275" x="27.755" y="42.138" fill="#d0cfce" transform="translate(-23.1873 44.6859) rotate(-54.6611)"/><path fill="#92d3f5" d="M53.8248,25.6409,43.0726,18.1182l1.455-2.08c.7017-1.003,1.7967-1.4059,2.36-.8684l2.8557,2.7241a8.09,8.09,0,0,0,2.0054,1.4029l3.5378,1.7492c.698.3451.6949,1.5119-.0068,2.5148Z"/><path fill="#92d3f5" d="M29.0712,17.9523,18.1575,25.4348,16.71,23.3239c-.698-1.018-.69-2.1945.0171-2.5359l3.5841-1.73a8.1611,8.1611,0,0,0,2.0354-1.3955l2.9056-2.7194c.5733-.5366,1.6735-.12,2.3715.8981Z"/></g><g id="line"><polygon fill="none" stroke="#000" stroke-linecap="round" stroke-linejoin="round" stroke-width="2" points="35.665 44.073 36.036 43.134 40.401 41.634 44.301 47.155 39.993 50.199 35.665 44.073"/><rect width="7.766" height="5.275" x="27.755" y="42.138" fill="none" stroke="#000" stroke-linecap="round" stroke-linejoin="round" stroke-width="2" transform="translate(-23.1873 44.6859) rotate(-54.6611)"/><path fill="none" stroke="#000" stroke-linecap="round" stroke-linejoin="round" stroke-width="2" d="M53.8248,25.6409,43.0726,18.1182l1.455-2.08c.7017-1.003,1.7967-1.4059,2.36-.8684l2.8557,2.7241a8.09,8.09,0,0,0,2.0054,1.4029l3.5378,1.7492c.698.3451.6949,1.5119-.0068,2.5148Z"/><path fill="none" stroke="#000" stroke-linecap="round" stroke-linejoin="round" stroke-width="2" d="M29.0712,17.9523,18.1575,25.4348,16.71,23.3239c-.698-1.018-.69-2.1945.0171-2.5359l3.5841-1.73a8.1611,8.1611,0,0,0,2.0354-1.3955l2.9056-2.7194c.5733-.5366,1.6735-.12,2.3715.8981Z"/><path fill="none" stroke="#000" stroke-linecap="round" stroke-linejoin="round" stroke-width="2" d="M43.0451,18.8925,32.8855,32.77a3.961,3.961,0,0,0-.7877,2.412l-.365,4.9012-4.492,6.3351,4.3033,3.0513,4.492-6.3351,4.8032-1.66a3.9617,3.9617,0,0,0,2.0593-1.4789L53.008,26.1866"/><line x1="35.889" x2="29.28" y1="28.668" y2="19.057" fill="none" stroke="#000" stroke-linecap="round" stroke-linejoin="round" stroke-width="2"/><polyline fill="none" stroke="#000" stroke-linecap="round" stroke-linejoin="round" stroke-width="2" points="35.494 43.898 39.87 50.059 44.171 47.005 40.401 41.634"/><path fill="none" stroke="#000" stroke-linecap="round" stroke-linejoin="round" stroke-width="2" d="M19.1061,26.0533l9.7445,14.1716a4.0339,4.0339,0,0,0,1.6732,1.4093"/><rect width="6.791" height="2.291" x="24.127" y="49.423" rx=".8" transform="translate(-29.5957 43.343) rotate(-54.2322)"/><rect width="3.417" height="3.417" x="22.398" y="53.603" rx="1.175" transform="translate(36.8762 -3.6581) rotate(35.7678)"/><rect width="6.791" height="2.291" x="40.603" y="50.007" rx=".8" transform="translate(25.0954 115.9214) rotate(-123.0299)"/><rect width="3.417" height="3.417" x="45.476" y="54.344" rx="1.175" transform="translate(-22.9272 34.7777) rotate(-33.0299)"/><line x1="39.515" x2="49.066" y1="24.604" y2="31.658" fill="none" stroke="#000" stroke-linecap="round" stroke-linejoin="round" stroke-width="2"/><line x1="21.51" x2="31.638" y1="29.55" y2="22.487" fill="none" stroke="#000" stroke-linecap="round" stroke-linejoin="round" stroke-width="2"/></g></svg>