<svg xmlns="http://www.w3.org/2000/svg" id="emoji" version="1.1" viewBox="0 0 72 72"><g id="color"><ellipse cx="28.507" cy="43.726" fill="#D0CFCE" rx="11.468" ry="11.274"/><ellipse cx="28.507" cy="44.082" fill="#9B9B9A" rx="6.843" ry="6.727"/><ellipse cx="28.507" cy="43.726" fill="#D0CFCE" rx="2.492" ry="2.45"/><ellipse cx="47.442" cy="51.184" fill="#D0CFCE" rx="3.882" ry="3.816"/><path fill="#D22F27" d="M29.9415,32.5385l17.0555-0.0874l1.7694,11.2745h-8.7913C39.9751,43.7256,39.2786,33.7,29.9415,32.5385z"/></g><g id="line"><path stroke="#000" stroke-linecap="round" stroke-linejoin="round" stroke-width="2" d="M25.3636,27.2 c0,0,20.1457-0.0658,21.6081,0c0.0628,1.2046,0.0842,1.4174,0.0842,2.2887c-0.7851,0.0127-18.0857,0.131-21.3081,0.1488 C25.566,28.8344,25.4376,28.0201,25.3636,27.2z"/><polyline fill="none" stroke="#000" stroke-linecap="round" stroke-linejoin="round" stroke-width="2" points="12.329 17.361 23.159 17.361 25.938 32.451"/><ellipse cx="28.507" cy="43.726" fill="none" stroke="#000" stroke-linecap="round" stroke-linejoin="round" stroke-width="2" rx="11.468" ry="11.274"/><ellipse cx="28.507" cy="44.082" fill="none" stroke="#000" stroke-linecap="round" stroke-linejoin="round" stroke-width="2" rx="6.843" ry="6.727"/><ellipse cx="28.507" cy="43.726" fill="none" stroke="#000" stroke-linecap="round" stroke-linejoin="round" stroke-width="2" rx="2.492" ry="2.45"/><ellipse cx="47.442" cy="51.184" fill="none" stroke="#000" stroke-linecap="round" stroke-linejoin="round" stroke-width="2" rx="3.882" ry="3.816"/><ellipse cx="47.449" cy="51.139" rx="1.331" ry="1.308"/><line x1="23.633" x2="26.623" y1="39.362" y2="42.124" fill="none" stroke="#000" stroke-linecap="round" stroke-linejoin="round" stroke-width="2"/><line x1="32.973" x2="30.39" y1="39.362" y2="42.124" fill="none" stroke="#000" stroke-linecap="round" stroke-linejoin="round" stroke-width="2"/><line x1="30.092" x2="33.39" y1="45.616" y2="48.791" fill="none" stroke="#000" stroke-linecap="round" stroke-linejoin="round" stroke-width="2"/><line x1="26.623" x2="23.624" y1="45.616" y2="48.791" fill="none" stroke="#000" stroke-linecap="round" stroke-linejoin="round" stroke-width="2"/><path fill="none" stroke="#000" stroke-linecap="round" stroke-linejoin="round" stroke-width="2" d="M29.9415,32.5385 l17.0555-0.0874l1.7694,11.2745h-8.7913C39.9751,43.7256,39.2786,33.7,29.9415,32.5385z"/><path d="M52.049,45.2603h3.4144c0.4006,0,0.7254,0.3248,0.7254,0.7254v0.3801c0,0.4006-0.3248,0.7254-0.7254,0.7254H52.049 c-0.4006,0-0.7254-0.3248-0.7254-0.7254v-0.3801C51.3236,45.5851,51.6484,45.2603,52.049,45.2603z"/></g></svg>