<svg xmlns="http://www.w3.org/2000/svg" id="emoji" viewBox="0 0 72 72"><g id="color"><polygon fill="#92d3f5" points="46.894 34.519 16 34.519 16 40.484 56.286 40.484 56.286 34.519 56.286 30.072 46.894 34.519"/></g><g id="line"><polygon fill="none" stroke="#000" stroke-linecap="round" stroke-linejoin="round" stroke-width="2" points="46.894 34.519 16 34.519 16 40.484 56.286 40.484 56.286 34.519 56.286 30.072 46.894 34.519"/><path fill="none" stroke="#000" stroke-linecap="round" stroke-linejoin="round" stroke-width="2" d="M28.3152,34.0516V32.31a2.1186,2.1186,0,0,1,2.1186-2.1186H41.8527A2.1185,2.1185,0,0,1,43.9712,32.31v1.7418"/><circle cx="24.34" cy="53.078" r="2.921" fill="none" stroke="#000" stroke-linecap="round" stroke-linejoin="round" stroke-width="2"/><circle cx="48.172" cy="53.078" r="2.921" fill="none" stroke="#000" stroke-linecap="round" stroke-linejoin="round" stroke-width="2"/><line x1="45.01" x2="27.011" y1="40.652" y2="51.598" fill="none" stroke="#000" stroke-miterlimit="10" stroke-width="2"/><line x1="28.699" x2="45.01" y1="40.652" y2="51.988" fill="none" stroke="#000" stroke-miterlimit="10" stroke-width="2"/><line x1="27.261" x2="45.25" y1="53.078" y2="53.078" fill="none" stroke="#000" stroke-miterlimit="10" stroke-width="2"/></g></svg>